<svg xmlns="http://www.w3.org/2000/svg" xmlns:xlink="http://www.w3.org/1999/xlink" viewBox="0 0 400 130">
  <defs>
    <linearGradient id="b" x1="44.15" x2="120.56" y1="609.54" y2="546.02" gradientTransform="translate(0 -531.05)" gradientUnits="userSpaceOnUse">
      <stop offset="0" stop-color="#041620"/>
      <stop offset="1" stop-color="#32485e"/>
    </linearGradient>
    <linearGradient id="a" x1="55.06" x2="69.01" y1="82.01" y2="68.07" gradientUnits="userSpaceOnUse">
      <stop offset="0" stop-color="#ef3939"/>
      <stop offset="1" stop-color="#ff006c"/>
    </linearGradient>
    <linearGradient id="c" x1="46.56" x2="109.62" y1="82.98" y2="19.91" xlink:href="#a"/>
    <linearGradient id="d" x1="60.72" x2="100.56" y1="86.54" y2="17.53" xlink:href="#a"/>
    <linearGradient id="e" x1="51.36" x2="89.09" y1="76.14" y2="10.78" xlink:href="#a"/>
    <linearGradient id="f" x1="84.89" x2="114.11" y1="75.98" y2="25.37" xlink:href="#a"/>
  </defs>
  <g data-name="Layer 2">
    <g data-name="Layer 1">
      <path fill="#010203" d="M164 111.5a28.51 28.51 0 0 1-11.61 11.6 38.38 38.38 0 0 1-17.27 4.4V112q16.93-.88 16.94-18.7V29.71h16.06v63.91A36.73 36.73 0 0 1 164 111.5zM184.17 49.73a41.84 41.84 0 0 1 15.07-15.23 40.35 40.35 0 0 1 41.25 0 42.85 42.85 0 0 1 15.18 15.23 40.41 40.41 0 0 1 0 41.25 42.35 42.35 0 0 1-15.18 15 41.21 41.21 0 0 1-41.31 0 41.49 41.49 0 0 1-15-15 41 41 0 0 1 0-41.25zm14.3 33.55a25.22 25.22 0 0 0 9.13 9.41 24.42 24.42 0 0 0 12.81 3.46 23.17 23.17 0 0 0 12.43-3.46 24.57 24.57 0 0 0 8.8-9.35 28.15 28.15 0 0 0-.11-26.24 25.14 25.14 0 0 0-9-9.4 24.59 24.59 0 0 0-25.19 0 25.09 25.09 0 0 0-9 9.4 26.72 26.72 0 0 0-3.3 13.2 25.92 25.92 0 0 0 3.43 12.98zM323.42 75.75a17.92 17.92 0 0 1 3.58 11q0 12.32-8.08 18.1t-20.19 5.77h-27v-81h23.76q12.87 0 20.24 5.23t7.37 15.12a21.55 21.55 0 0 1-2.53 10.62 19.29 19.29 0 0 1-7.1 7.41 25.57 25.57 0 0 1 9.95 7.75zm-35.69-12.93h9.68a8.71 8.71 0 0 0 6.82-2.69 9.63 9.63 0 0 0 2.42-6.66 7.41 7.41 0 0 0-2.75-6.21q-2.75-2.15-7.59-2.15h-8.58zM307 93.57a7.56 7.56 0 0 0 3.46-6.77q0-8.58-13.64-8.58h-9.13v17.6H298a16.46 16.46 0 0 0 9-2.25zM362.31 43.46q-5.28 0-8.2 2.09a7.21 7.21 0 0 0-2.91 6.27c0 2.57 1.41 4.82 4.23 6.77a53.07 53.07 0 0 0 11.28 5.55 47 47 0 0 1 9.79 4.79 21.33 21.33 0 0 1 6.76 7.42q2.7 4.73 2.7 12a21.89 21.89 0 0 1-3.25 11.65 22.65 22.65 0 0 1-9.51 8.47 33.12 33.12 0 0 1-15 3.13 49.87 49.87 0 0 1-14.41-2.14 45.11 45.11 0 0 1-13.31-6.55l7-12.43a38.32 38.32 0 0 0 9.57 5.06 28.43 28.43 0 0 0 9.68 2 17.38 17.38 0 0 0 8.8-2.14q3.74-2.14 3.74-7 0-6.27-11.77-10.89a104.13 104.13 0 0 1-11.5-5.34 23.88 23.88 0 0 1-8-7.26A20.06 20.06 0 0 1 334.7 53q0-10.45 6.87-16.83t18.32-6.93a47.77 47.77 0 0 1 15.07 2 51.31 51.31 0 0 1 11.77 5.77l-6.05 12.21q-10.56-5.76-18.37-5.76zM157.34 2.7a9.28 9.28 0 0 1 2.86.42 6.09 6.09 0 0 1 2.23 1.25 5.65 5.65 0 0 1 1.45 2.08 7.38 7.38 0 0 1 .52 2.89 8 8 0 0 1-.62 3.29 6.09 6.09 0 0 1-1.67 2.25 6.73 6.73 0 0 1-2.45 1.27 10.68 10.68 0 0 1-3 .41h-4.07V2.7zm-2.05 11.75h1.19a7.87 7.87 0 0 0 1.88-.23 4.13 4.13 0 0 0 1.62-.81 4 4 0 0 0 1.13-1.56 6.25 6.25 0 0 0 .43-2.51A4.39 4.39 0 0 0 160.29 6a4.67 4.67 0 0 0-3.35-1.17h-1.65zM169.59 2.7v13.86h-2.68V2.7zM177.07 2.48a10.12 10.12 0 0 1 2.23.23 8.5 8.5 0 0 1 1.84.65l-.62 2.07a9.47 9.47 0 0 0-1.71-.66 6 6 0 0 0-1.61-.22 2.89 2.89 0 0 0-1.75.46 1.47 1.47 0 0 0-.62 1.25 1.41 1.41 0 0 0 .51 1.18 5.74 5.74 0 0 0 1.66.78l1.35.44a5.87 5.87 0 0 1 2.65 1.59 3.48 3.48 0 0 1 .91 2.39 3.7 3.7 0 0 1-.36 1.65 3.76 3.76 0 0 1-1 1.31 4.49 4.49 0 0 1-1.62.87 6.87 6.87 0 0 1-2.16.31 11.75 11.75 0 0 1-2.31-.23 8.76 8.76 0 0 1-2.16-.74l.62-2a10.55 10.55 0 0 0 1.85.7 7.31 7.31 0 0 0 1.89.24 3.24 3.24 0 0 0 1.86-.46 1.55 1.55 0 0 0 .67-1.34 1.73 1.73 0 0 0-.11-.6 1.48 1.48 0 0 0-.39-.54 3.27 3.27 0 0 0-.74-.48 10.44 10.44 0 0 0-1.23-.47l-1.23-.42A6.62 6.62 0 0 1 173 9a3.21 3.21 0 0 1-.91-2.45 3.74 3.74 0 0 1 1.27-2.95 5.44 5.44 0 0 1 3.71-1.12zM184.35 2.7h5a5.55 5.55 0 0 1 2 .33 4.2 4.2 0 0 1 1.44.9 3.76 3.76 0 0 1 .88 1.34A4.6 4.6 0 0 1 194 7a4.09 4.09 0 0 1-1.79 3.4 5.82 5.82 0 0 1-.94.51l3.5 5.7h-3.06l-2.88-5.21H187v5.21h-2.62zM187 9.26h1.34a3.83 3.83 0 0 0 2.07-.52 1.9 1.9 0 0 0 .78-1.74 2.09 2.09 0 0 0-.65-1.67 2.78 2.78 0 0 0-1.9-.57H187zM196.25 2.7h2.69V11a4.51 4.51 0 0 0 .71 2.81 2.8 2.8 0 0 0 2.3.89 2.63 2.63 0 0 0 2.27-1 4 4 0 0 0 .7-2.47V2.7h2.69v8.38a5.73 5.73 0 0 1-1.46 4.29 5.76 5.76 0 0 1-4.2 1.41 7.77 7.77 0 0 1-2.4-.34 4.54 4.54 0 0 1-1.79-1.06 4.6 4.6 0 0 1-1.12-1.81 7.82 7.82 0 0 1-.39-2.6zM210.73 2.7h4.69a7.32 7.32 0 0 1 2.11.29 4.9 4.9 0 0 1 1.63.82 3.62 3.62 0 0 1 1 1.32 4.24 4.24 0 0 1 .36 1.79 4.59 4.59 0 0 1-.41 2 4 4 0 0 1-1.11 1.4 4.7 4.7 0 0 1-1.71.83 8.59 8.59 0 0 1-2.14.26h-1.74v5.15h-2.68zm2.68 6.62h1.24a6 6 0 0 0 1.23-.11 3.05 3.05 0 0 0 1-.37 1.9 1.9 0 0 0 .67-.71 2.27 2.27 0 0 0 .24-1.1 2.19 2.19 0 0 0-.22-1 2 2 0 0 0-.6-.7 2.69 2.69 0 0 0-.89-.41 4.11 4.11 0 0 0-1.08-.15h-1.61zM232.11 2.7v2.16H228v11.7h-2.68V4.86h-4V2.7zM236.6 2.7v13.86h-2.68V2.7zM245.91 2.48a7.51 7.51 0 0 1 2.68.47 5.88 5.88 0 0 1 2.12 1.39 6.46 6.46 0 0 1 1.4 2.24 8.55 8.55 0 0 1 .51 3.07 8.35 8.35 0 0 1-.52 3 6.18 6.18 0 0 1-3.59 3.63 7.35 7.35 0 0 1-2.69.48 7.6 7.6 0 0 1-2.69-.46A5.79 5.79 0 0 1 241 15a6.22 6.22 0 0 1-1.39-2.23 8.55 8.55 0 0 1-.51-3.07 8.14 8.14 0 0 1 .52-3 6.47 6.47 0 0 1 1.43-2.26A6.18 6.18 0 0 1 243.21 3a7.44 7.44 0 0 1 2.7-.52zM242 9.65a7.15 7.15 0 0 0 .31 2.25 4.44 4.44 0 0 0 .84 1.57 3.34 3.34 0 0 0 1.26.93 3.91 3.91 0 0 0 3.05 0 3.29 3.29 0 0 0 1.22-.93 4.74 4.74 0 0 0 .81-1.57 7.48 7.48 0 0 0 .3-2.25 7.78 7.78 0 0 0-.31-2.29 4.62 4.62 0 0 0-.85-1.59 3.25 3.25 0 0 0-1.25-.92 3.94 3.94 0 0 0-1.53-.3 3.54 3.54 0 0 0-1.52.32 3.37 3.37 0 0 0-1.22.94 4.54 4.54 0 0 0-.81 1.6 7.55 7.55 0 0 0-.3 2.24zM255.15 2.7h2.42l5.28 7.79c.29.44.56.87.81 1.31l.59 1.06h.05c-.09-1-.13-2-.13-3V2.7h2.53v13.86h-2.42l-5-7.37q-.51-.75-1-1.56t-.69-1.32c.08 1.08.12 2.14.13 3.15s0 2.06 0 3.12v4h-2.53zM281.5 14.67a7.15 7.15 0 0 0 1.74-.18 5.56 5.56 0 0 0 1.28-.48l.57 2a7.06 7.06 0 0 1-1.56.53 10.16 10.16 0 0 1-2.31.22 7.94 7.94 0 0 1-2.79-.48 6.55 6.55 0 0 1-2.22-1.4 6.45 6.45 0 0 1-1.46-2.24 8.23 8.23 0 0 1-.53-3 8.28 8.28 0 0 1 .51-3 6.09 6.09 0 0 1 1.44-2.26A6.43 6.43 0 0 1 278.4 3a8.06 8.06 0 0 1 2.88-.5 9.19 9.19 0 0 1 2.31.24 7.56 7.56 0 0 1 1.54.57l-.61 2a7.94 7.94 0 0 0-1.34-.53 5.85 5.85 0 0 0-1.59-.2 5.31 5.31 0 0 0-1.75.28 3.48 3.48 0 0 0-1.43.88 4.46 4.46 0 0 0-1 1.56 6.61 6.61 0 0 0-.36 2.32 6.75 6.75 0 0 0 .35 2.28 4.51 4.51 0 0 0 .95 1.57 3.59 3.59 0 0 0 1.4.9 5.09 5.09 0 0 0 1.75.3zM287.38 16.56V2.7h2.68v5.61h5.7V2.7h2.68v13.86h-2.68v-6.09h-5.7v6.09zM305.5 2.7h2.69l5.26 13.86h-2.84l-1.23-3.41h-5.17L303 16.56h-2.79zm-.65 8.45h3.85L308 9.1l-.58-1.74-.57-1.78-.59 1.75-.62 1.77zM315.23 2.7h2.68v11.7h5.7v2.16h-8.38zM325.44 2.7h2.68v11.7h5.7v2.16h-8.38zM335.64 2.7h8.8v2.11h-6.11v3.5h5.54v2.09h-5.54v4h6.18v2.11h-8.87zM346.91 2.7h2.42l5.28 7.79c.29.44.56.87.81 1.31l.6 1.06c-.09-1-.13-2-.13-3V2.7h2.53v13.86H356l-5-7.37q-.51-.75-1-1.56t-.69-1.32h-.05c.08 1.08.12 2.14.13 3.15s0 2.06 0 3.12v4h-2.53zM368.12 2.48a11.84 11.84 0 0 1 2.25.2 7.62 7.62 0 0 1 1.82.59l-.58 1.89a6.53 6.53 0 0 0-1.61-.53 8.25 8.25 0 0 0-1.65-.17 5.31 5.31 0 0 0-1.75.29 3.75 3.75 0 0 0-1.45.91 4.31 4.31 0 0 0-1 1.61 6.88 6.88 0 0 0-.37 2.38 5.77 5.77 0 0 0 1.12 3.81 3.92 3.92 0 0 0 3.18 1.32 5.73 5.73 0 0 0 2-.29v-3.43h-2.4V9h4.95v6.9a10.25 10.25 0 0 1-2 .61 13.19 13.19 0 0 1-2.57.23 8.32 8.32 0 0 1-2.81-.46A6.44 6.44 0 0 1 363 15a6.2 6.2 0 0 1-1.51-2.23 7.93 7.93 0 0 1-.49-3.12 8 8 0 0 1 .56-3.08 6.19 6.19 0 0 1 3.77-3.63 8.36 8.36 0 0 1 2.79-.46zM375.46 2.7h8.8v2.11h-6.11v3.5h5.54v2.09h-5.54v4h6.18v2.11h-8.87z"/>
      <path fill="url(#b)" d="M75.5 112H15V51.5A49.5 49.5 0 0 1 64.5 2H125v60.5A49.51 49.51 0 0 1 75.5 112z" data-name="BackGradient Main"/>
      <g fill="none" stroke-miterlimit="10" stroke-width="2.81" data-name="Reach Plane Thick">
        <path stroke="url(#a)" d="M58.53 83.49L69.6 70.72a.06.06 0 0 0 0-.09l-5.47-2a.7.7 0 0 0-.92.45s-4.77 14.52-4.68 14.41z"/>
        <path stroke="url(#c)" d="M25.86 60.16l26.38 4.69a.57.57 0 0 1 .43.39s5.56 18.36 5.77 18.36 4.8-14.7 4.8-14.7a.54.54 0 0 1 .68-.36l30.2 11.16a.54.54 0 0 0 .69-.32l20.47-51.58a.28.28 0 0 0-.35-.37L25.78 59.08a.56.56 0 0 0 .08 1.08z" data-name="Wing Base"/>
        <g>
          <path stroke="url(#d)" d="M52.69 65.32a.57.57 0 0 1 .25-.63l62-37.15a.14.14 0 0 1 .15.24L63.54 68.24a.71.71 0 0 0-.18.27S58.51 83.6 58.44 83.6s-5.75-18.28-5.75-18.28z"/>
          <path stroke="url(#e)" d="M83.42 46.45l31.46-18.89c.34-.2.23-.19-.15-.06L25.67 59.1c-.14 0-.37.48-.22.45z" data-name="Semi-Wing-Left Upper"/>
          <path stroke="url(#f)" d="M88.8 48.59a.28.28 0 0 1 .11-.27l26.32-20.64h.08l-20.62 52c0 .13-.44.11-.46 0z" data-name="Semi-Wing-Right Upper"/>
        </g>
      </g>
      <path fill="none" d="M0 0h400v130H0z"/>
    </g>
  </g>
</svg>
