<svg xmlns="http://www.w3.org/2000/svg" xmlns:xlink="http://www.w3.org/1999/xlink" viewBox="0 0 960 480">
  <defs>
    <style>
      .cls-153{opacity:.5}.cls-151{fill:#191a78}.cls-160{mix-blend-mode:luminosity}
    </style>
    <linearGradient id="linear-gradient" x1="120" x2="840" y1="600" y2="-120" gradientUnits="userSpaceOnUse">
      <stop offset="0" stop-color="#162432"/>
      <stop offset="1" stop-color="#32485e"/>
    </linearGradient>
    <clipPath id="clip-path">
      <path fill="none" d="M0 0h960v480H0z"/>
    </clipPath>
    <radialGradient id="radial-gradient" cx="923.23" cy="393.1" r="3.95" gradientTransform="translate(-3.11 2.89)" gradientUnits="userSpaceOnUse">
      <stop offset=".06" stop-color="#ff7f9a"/>
      <stop offset=".53" stop-color="#ff3a9c"/>
      <stop offset=".99" stop-color="#d10059"/>
    </radialGradient>
    <radialGradient id="radial-gradient-2" cx="792.94" cy="407.29" r="3.95" xlink:href="#radial-gradient"/>
    <radialGradient id="radial-gradient-3" cx="783.71" cy="448.82" r="6.58" xlink:href="#radial-gradient"/>
    <radialGradient id="radial-gradient-4" cx="778.89" cy="370.73" r="6.58" xlink:href="#radial-gradient"/>
    <radialGradient id="radial-gradient-5" cx="947.36" cy="456.72" r="6.58" xlink:href="#radial-gradient"/>
    <radialGradient id="radial-gradient-6" cx="-1684.32" cy="41.43" r="172.16" gradientTransform="rotate(180 -411.99 194)" gradientUnits="userSpaceOnUse">
      <stop offset=".06" stop-color="#000e57"/>
      <stop offset=".89" stop-color="#0279af"/>
    </radialGradient>
    <radialGradient id="radial-gradient-7" cx="-1684.32" cy="41.43" r="172.16" xlink:href="#radial-gradient-6"/>
    <radialGradient id="radial-gradient-8" cx="-1684.32" cy="41.43" r="172.16" xlink:href="#radial-gradient-6"/>
    <radialGradient id="radial-gradient-9" cx="-1684.32" cy="41.43" r="172.16" xlink:href="#radial-gradient-6"/>
    <radialGradient id="radial-gradient-10" cx="-1684.32" cy="41.43" r="172.16" xlink:href="#radial-gradient-6"/>
    <radialGradient id="radial-gradient-11" cx="-1756.94" cy="-44.73" r="13.51" xlink:href="#radial-gradient-6"/>
    <radialGradient id="radial-gradient-12" cx="-1622.98" cy="-94.74" r="13.86" xlink:href="#radial-gradient-6"/>
    <radialGradient id="radial-gradient-13" cx="929.17" cy="37.07" r="3.95" xlink:href="#radial-gradient"/>
    <radialGradient id="radial-gradient-14" cx="918.2" cy="129.65" r="3.95" xlink:href="#radial-gradient"/>
    <radialGradient id="radial-gradient-15" cx="798.88" cy="51.26" r="3.95" xlink:href="#radial-gradient"/>
    <radialGradient id="radial-gradient-16" cx="789.65" cy="92.79" r="6.58" xlink:href="#radial-gradient"/>
    <radialGradient id="radial-gradient-17" cx="784.82" cy="14.7" r="6.58" xlink:href="#radial-gradient"/>
    <radialGradient id="radial-gradient-18" cx="953.3" cy="100.69" r="6.58" xlink:href="#radial-gradient"/>
    <radialGradient id="radial-gradient-19" cx="-1690.25" cy="397.46" r="172.16" xlink:href="#radial-gradient-6"/>
    <radialGradient id="radial-gradient-20" cx="-1690.26" cy="397.46" r="172.16" xlink:href="#radial-gradient-6"/>
    <radialGradient id="radial-gradient-21" cx="-1690.26" cy="397.46" r="172.16" xlink:href="#radial-gradient-6"/>
    <radialGradient id="radial-gradient-22" cx="-1690.26" cy="397.46" r="172.16" xlink:href="#radial-gradient-6"/>
    <radialGradient id="radial-gradient-23" cx="-1690.26" cy="397.46" r="172.16" xlink:href="#radial-gradient-6"/>
    <radialGradient id="radial-gradient-24" cx="-1690.26" cy="397.46" r="172.16" xlink:href="#radial-gradient-6"/>
    <radialGradient id="radial-gradient-25" cx="-1762.87" cy="311.3" r="13.51" xlink:href="#radial-gradient-6"/>
    <radialGradient id="radial-gradient-26" cx="-1628.91" cy="261.28" r="13.86" xlink:href="#radial-gradient-6"/>
    <radialGradient id="radial-gradient-27" cx="619.3" cy="136.62" r="3.77" xlink:href="#radial-gradient"/>
    <radialGradient id="radial-gradient-28" cx="640.27" cy="99.6" r="6.29" xlink:href="#radial-gradient"/>
    <radialGradient id="radial-gradient-29" cx="622.05" cy="175.69" r="6.29" xlink:href="#radial-gradient"/>
    <radialGradient id="radial-gradient-30" cx="773.65" cy="188.47" r="172.16" gradientTransform="rotate(17 682.18 -612.88)" xlink:href="#radial-gradient-6"/>
    <radialGradient id="radial-gradient-31" cx="773.65" cy="188.46" r="172.16" gradientTransform="rotate(17 682.18 -612.88)" xlink:href="#radial-gradient-6"/>
    <radialGradient id="radial-gradient-32" cx="773.65" cy="188.47" r="172.16" gradientTransform="rotate(17 682.18 -612.88)" xlink:href="#radial-gradient-6"/>
    <radialGradient id="radial-gradient-33" cx="773.65" cy="188.47" r="172.16" gradientTransform="rotate(17 682.18 -612.88)" xlink:href="#radial-gradient-6"/>
    <radialGradient id="radial-gradient-34" cx="672.74" cy="33.68" r="3.59" xlink:href="#radial-gradient"/>
    <radialGradient id="radial-gradient-35" cx="740.63" cy="38.3" r="5.98" xlink:href="#radial-gradient"/>
    <radialGradient id="radial-gradient-36" cx="-534.44" cy="-655.53" r="172.16" gradientTransform="scale(-1) rotate(-65 -115.92 -315.9)" xlink:href="#radial-gradient-6"/>
    <radialGradient id="radial-gradient-37" cx="-311.86" cy="1500.79" r="13.62" gradientTransform="rotate(-82.33 -633.88 188.72)" xlink:href="#radial-gradient-6"/>
    <radialGradient id="radial-gradient-38" cx="-1260.75" cy="822.31" r="217.2" gradientTransform="rotate(-160.18 -444.12 217.6) scale(.99)" xlink:href="#radial-gradient-6"/>
    <radialGradient id="radial-gradient-39" cx="822.15" cy="288.17" r="15.48" gradientTransform="rotate(2.82 6164.9 -4861.24)" xlink:href="#radial-gradient-6"/>
    <radialGradient id="radial-gradient-40" cx="425.01" cy="880.45" r="217.21" gradientTransform="matrix(.91 -.39 .39 .91 313.23 -246.68)" xlink:href="#radial-gradient-6"/>
    <radialGradient id="radial-gradient-41" cx="-768.14" cy="-221.09" r="17.19" gradientTransform="rotate(139.81 -22.91 364.77)" xlink:href="#radial-gradient-6"/>
    <radialGradient id="radial-gradient-42" cx="-1458.23" cy="-550.48" r="217.19" gradientTransform="matrix(-.81 .58 -.58 -.81 -791.61 424.35)" xlink:href="#radial-gradient-6"/>
    <radialGradient id="radial-gradient-43" cx="614.15" cy="1697.29" r="17.19" gradientTransform="rotate(-52.7 -920.9 635.09) scale(.99)" xlink:href="#radial-gradient-6"/>
    <radialGradient id="radial-gradient-44" cx="-1461.79" cy="360.43" r="12.3" xlink:href="#radial-gradient-6"/>
    <radialGradient id="radial-gradient-45" cx="56.82" cy="1223.95" r="6.29" gradientTransform="rotate(-54.4 -536.17 399.47)" xlink:href="#radial-gradient"/>
    <radialGradient id="radial-gradient-46" cx="481.54" cy="1500.28" r="172.16" gradientTransform="rotate(-37.07 -833.6 1077.32)" xlink:href="#radial-gradient-6"/>
    <radialGradient id="radial-gradient-47" cx="481.54" cy="1500.28" r="172.16" gradientTransform="rotate(-37.07 -833.6 1077.32)" xlink:href="#radial-gradient-6"/>
    <radialGradient id="radial-gradient-48" cx="-23.18" cy="1231.19" r="13.4" gradientTransform="rotate(-54.4 -536.17 399.47)" xlink:href="#radial-gradient-6"/>
    <radialGradient id="radial-gradient-49" cx="339.37" cy="1155.62" r="13.4" gradientTransform="rotate(-54.4 -536.17 399.47)" xlink:href="#radial-gradient-6"/>
    <radialGradient id="radial-gradient-50" cx="259.14" cy="1255.35" r="13.4" gradientTransform="rotate(-54.4 -536.17 399.47)" xlink:href="#radial-gradient-6"/>
    <radialGradient id="radial-gradient-51" cx="851.13" cy="447.96" r="3.77" xlink:href="#radial-gradient"/>
    <radialGradient id="radial-gradient-52" cx="872.1" cy="410.94" r="6.29" xlink:href="#radial-gradient"/>
    <radialGradient id="radial-gradient-53" cx="841.49" cy="454.48" r="172.16" gradientTransform="rotate(17 682.18 -612.88)" xlink:href="#radial-gradient-6"/>
    <radialGradient id="radial-gradient-54" cx="1086.38" cy="418.41" r="172.16" gradientTransform="rotate(17 682.18 -612.88)" xlink:href="#radial-gradient-6"/>
    <radialGradient id="radial-gradient-55" cx="722.94" cy="96.15" r="3.92" xlink:href="#radial-gradient"/>
    <radialGradient id="radial-gradient-56" cx="769.54" cy="226.08" r="3.92" xlink:href="#radial-gradient"/>
    <radialGradient id="radial-gradient-57" cx="-1632.69" cy="185.68" r="6.54" gradientTransform="rotate(180 -411.99 194)" gradientUnits="userSpaceOnUse">
      <stop offset=".06" stop-color="#1ab1da"/>
      <stop offset="1" stop-color="#461980"/>
    </radialGradient>
    <radialGradient id="radial-gradient-58" cx="-1116.03" cy="1066.79" r="172.17" gradientTransform="scale(-1) rotate(6.3 9082.6 4649.41)" xlink:href="#radial-gradient-6"/>
    <radialGradient id="radial-gradient-59" cx="-1188.26" cy="1035.68" r="172.17" gradientTransform="scale(-1) rotate(6.3 9082.6 4649.41)" xlink:href="#radial-gradient-6"/>
    <radialGradient id="radial-gradient-60" cx="-1621.39" cy="213.21" r="13.46" xlink:href="#radial-gradient-6"/>
    <radialGradient id="radial-gradient-61" cx="889.91" cy="266.63" r="3.77" xlink:href="#radial-gradient"/>
    <radialGradient id="radial-gradient-62" cx="-1735.83" cy="157.42" r="6.29" xlink:href="#radial-gradient-57"/>
    <radialGradient id="radial-gradient-63" cx="861.66" cy="346.76" r="6.29" xlink:href="#radial-gradient"/>
    <radialGradient id="radial-gradient-64" cx="1070.45" cy="233.67" r="172.16" gradientTransform="rotate(17 682.18 -612.88)" xlink:href="#radial-gradient-6"/>
    <radialGradient id="radial-gradient-65" cx="1052.81" cy="282" r="172.16" gradientTransform="rotate(17 682.18 -612.88)" xlink:href="#radial-gradient-6"/>
    <radialGradient id="radial-gradient-66" cx="1070.45" cy="233.67" r="172.16" gradientTransform="rotate(17 682.18 -612.88)" xlink:href="#radial-gradient-6"/>
    <radialGradient id="radial-gradient-67" cx="1070.45" cy="233.67" r="172.16" gradientTransform="rotate(17 682.18 -612.88)" xlink:href="#radial-gradient-6"/>
    <radialGradient id="radial-gradient-68" cx="-1734.49" cy="194.7" r="13.4" xlink:href="#radial-gradient-6"/>
    <radialGradient id="radial-gradient-69" cx="-1393.44" cy="105.79" r="6.29" xlink:href="#radial-gradient-57"/>
    <radialGradient id="radial-gradient-70" cx="758.12" cy="383.17" r="172.16" gradientTransform="rotate(17 682.18 -612.88)" xlink:href="#radial-gradient-6"/>
    <radialGradient id="radial-gradient-71" cx="758.12" cy="383.16" r="172.16" gradientTransform="rotate(17 682.18 -612.88)" xlink:href="#radial-gradient-6"/>
    <radialGradient id="radial-gradient-72" cx="-432.97" cy="855.67" r="3.82" gradientTransform="rotate(-90 -406.06 38.8) scale(.94)" xlink:href="#radial-gradient"/>
    <radialGradient id="radial-gradient-73" cx="-443.6" cy="945.38" r="3.83" gradientTransform="rotate(-90 -406.06 38.8) scale(.94)" xlink:href="#radial-gradient"/>
    <radialGradient id="radial-gradient-74" cx="-559.24" cy="869.41" r="3.83" gradientTransform="rotate(-90 -406.06 38.8) scale(.94)" xlink:href="#radial-gradient"/>
    <radialGradient id="radial-gradient-75" cx="-568.18" cy="909.67" r="6.38" gradientTransform="rotate(-90 -406.06 38.8) scale(.94)" xlink:href="#radial-gradient"/>
    <radialGradient id="radial-gradient-76" cx="-572.86" cy="833.98" r="6.38" gradientTransform="rotate(-90 -406.06 38.8) scale(.94)" xlink:href="#radial-gradient"/>
    <radialGradient id="radial-gradient-77" cx="-409.58" cy="917.32" r="6.38" gradientTransform="rotate(-90 -406.06 38.8) scale(.94)" xlink:href="#radial-gradient"/>
    <radialGradient id="radial-gradient-78" cx="-330.09" cy="-422.6" r="166.85" gradientTransform="matrix(0 .94 -.94 0 -79.46 411.6)" xlink:href="#radial-gradient-6"/>
    <radialGradient id="radial-gradient-79" cx="-330.09" cy="-422.6" r="166.84" gradientTransform="matrix(0 .94 -.94 0 -79.46 411.6)" xlink:href="#radial-gradient-6"/>
    <radialGradient id="radial-gradient-80" cx="-330.09" cy="-422.6" r="166.85" gradientTransform="matrix(0 .94 -.94 0 -79.46 411.6)" xlink:href="#radial-gradient-6"/>
    <radialGradient id="radial-gradient-81" cx="-330.09" cy="-422.6" r="166.85" gradientTransform="matrix(0 .94 -.94 0 -79.46 411.6)" xlink:href="#radial-gradient-6"/>
    <radialGradient id="radial-gradient-82" cx="-330.09" cy="-422.6" r="166.85" gradientTransform="matrix(0 .94 -.94 0 -79.46 411.6)" xlink:href="#radial-gradient-6"/>
    <radialGradient id="radial-gradient-83" cx="-330.09" cy="-422.6" r="166.85" gradientTransform="matrix(0 .94 -.94 0 -79.46 411.6)" xlink:href="#radial-gradient-6"/>
    <radialGradient id="radial-gradient-84" cx="-399.46" cy="-504.56" r="13.03" gradientTransform="matrix(0 .95 -.95 0 -80.38 412.53)" xlink:href="#radial-gradient-6"/>
    <radialGradient id="radial-gradient-85" cx="-270.28" cy="-552.79" r="13.36" gradientTransform="matrix(0 .95 -.95 0 -80.38 412.53)" xlink:href="#radial-gradient-6"/>
    <radialGradient id="radial-gradient-86" cx="-427.22" cy="510.63" r="3.83" gradientTransform="rotate(-90 -406.06 38.8) scale(.94)" xlink:href="#radial-gradient"/>
    <radialGradient id="radial-gradient-87" cx="-437.85" cy="600.34" r="3.82" gradientTransform="rotate(-90 -406.06 38.8) scale(.94)" xlink:href="#radial-gradient"/>
    <radialGradient id="radial-gradient-88" cx="-553.49" cy="524.37" r="3.82" gradientTransform="rotate(-90 -406.06 38.8) scale(.94)" xlink:href="#radial-gradient"/>
    <radialGradient id="radial-gradient-89" cx="-562.43" cy="564.63" r="6.38" gradientTransform="rotate(-90 -406.06 38.8) scale(.94)" xlink:href="#radial-gradient"/>
    <radialGradient id="radial-gradient-90" cx="-567.11" cy="488.94" r="6.38" gradientTransform="rotate(-90 -406.06 38.8) scale(.94)" xlink:href="#radial-gradient"/>
    <radialGradient id="radial-gradient-91" cx="-403.83" cy="572.28" r="6.38" gradientTransform="rotate(-90 -406.06 38.8) scale(.94)" xlink:href="#radial-gradient"/>
    <radialGradient id="radial-gradient-92" cx="-335.84" cy="-77.56" r="166.84" gradientTransform="matrix(0 .94 -.94 0 -79.46 411.6)" xlink:href="#radial-gradient-6"/>
    <radialGradient id="radial-gradient-93" cx="-335.84" cy="-77.56" r="166.85" gradientTransform="matrix(0 .94 -.94 0 -79.46 411.6)" xlink:href="#radial-gradient-6"/>
    <radialGradient id="radial-gradient-94" cx="-335.84" cy="-77.56" r="166.85" gradientTransform="matrix(0 .94 -.94 0 -79.46 411.6)" xlink:href="#radial-gradient-6"/>
    <radialGradient id="radial-gradient-95" cx="-335.84" cy="-77.56" r="166.85" gradientTransform="matrix(0 .94 -.94 0 -79.46 411.6)" xlink:href="#radial-gradient-6"/>
    <radialGradient id="radial-gradient-96" cx="-335.84" cy="-77.56" r="166.85" gradientTransform="matrix(0 .94 -.94 0 -79.46 411.6)" xlink:href="#radial-gradient-6"/>
    <radialGradient id="radial-gradient-97" cx="-335.84" cy="-77.56" r="166.84" gradientTransform="matrix(0 .94 -.94 0 -79.46 411.6)" xlink:href="#radial-gradient-6"/>
    <radialGradient id="radial-gradient-98" cx="-405.18" cy="-161.24" r="13.03" gradientTransform="matrix(0 .95 -.95 0 -80.38 412.53)" xlink:href="#radial-gradient-6"/>
    <radialGradient id="radial-gradient-99" cx="-276" cy="-209.47" r="13.36" gradientTransform="matrix(0 .95 -.95 0 -80.38 412.53)" xlink:href="#radial-gradient-6"/>
    <radialGradient id="radial-gradient-100" cx="-727.52" cy="607.1" r="3.66" gradientTransform="rotate(-90 -406.06 38.8) scale(.94)" xlink:href="#radial-gradient"/>
    <radialGradient id="radial-gradient-101" cx="-707.2" cy="571.22" r="6.1" gradientTransform="rotate(-90 -406.06 38.8) scale(.94)" xlink:href="#radial-gradient"/>
    <radialGradient id="radial-gradient-102" cx="-724.86" cy="644.97" r="6.1" gradientTransform="rotate(-90 -406.06 38.8) scale(.94)" xlink:href="#radial-gradient"/>
    <radialGradient id="radial-gradient-103" cx="-374.69" cy="1030.29" r="166.85" gradientTransform="rotate(-73 -485.5 333.27) scale(.94)" xlink:href="#radial-gradient-6"/>
    <radialGradient id="radial-gradient-104" cx="-374.69" cy="1030.29" r="166.84" gradientTransform="rotate(-73 -485.5 333.27) scale(.94)" xlink:href="#radial-gradient-6"/>
    <radialGradient id="radial-gradient-105" cx="-374.69" cy="1030.29" r="166.85" gradientTransform="rotate(-73 -485.5 333.27) scale(.94)" xlink:href="#radial-gradient-6"/>
    <radialGradient id="radial-gradient-106" cx="-374.69" cy="1030.29" r="166.85" gradientTransform="rotate(-73 -485.5 333.27) scale(.94)" xlink:href="#radial-gradient-6"/>
    <radialGradient id="radial-gradient-107" cx="-675.73" cy="507.34" r="3.48" gradientTransform="rotate(-90 -406.06 38.8) scale(.94)" xlink:href="#radial-gradient"/>
    <radialGradient id="radial-gradient-108" cx="-609.94" cy="511.82" r="5.79" gradientTransform="rotate(-90 -406.06 38.8) scale(.94)" xlink:href="#radial-gradient"/>
    <radialGradient id="radial-gradient-109" cx="456.9" cy="370.7" r="166.85" gradientTransform="matrix(.86 .39 -.39 .86 -176.83 -163.49)" xlink:href="#radial-gradient-6"/>
    <radialGradient id="radial-gradient-110" cx="-961.45" cy="226.59" r="13.14" gradientTransform="rotate(-172.33 -435.7 194.42) scale(.95)" xlink:href="#radial-gradient-6"/>
    <radialGradient id="radial-gradient-111" cx="-158.12" cy="-82.27" r="210.5" gradientTransform="rotate(109.82 -276.73 192.15) scale(.94)" xlink:href="#radial-gradient-6"/>
    <radialGradient id="radial-gradient-112" cx="-497.67" cy="828.47" r="14.93" gradientTransform="rotate(-87.18 -452.56 315.29) scale(.95)" xlink:href="#radial-gradient-6"/>
    <radialGradient id="radial-gradient-113" cx="-1007.59" cy="770.15" r="210.5" gradientTransform="matrix(-.37 -.87 .87 -.37 -681.66 -667.4)" xlink:href="#radial-gradient-6"/>
    <radialGradient id="radial-gradient-114" cx="567.83" cy="300.85" r="16.57" gradientTransform="rotate(49.81 690.73 -88.64) scale(.95)" xlink:href="#radial-gradient-6"/>
    <radialGradient id="radial-gradient-115" cx="-84.76" cy="-150.59" r="210.48" gradientTransform="rotate(54.42 -392.9 146.7) scale(.94)" xlink:href="#radial-gradient-6"/>
    <radialGradient id="radial-gradient-116" cx="-584.88" cy="909.04" r="16.57" gradientTransform="rotate(-142.1 -378.9 384.1) scale(.95)" xlink:href="#radial-gradient-6"/>
    <radialGradient id="radial-gradient-117" cx="-114.84" cy="-113.85" r="11.86" gradientTransform="matrix(0 .95 -.95 0 -80.38 412.53)" xlink:href="#radial-gradient-6"/>
    <radialGradient id="radial-gradient-118" cx="-1181.58" cy="451.37" r="6.1" gradientTransform="rotate(-144.07 -326.87 188.08) scale(.94)" xlink:href="#radial-gradient"/>
    <radialGradient id="radial-gradient-119" cx="-1105.36" cy="408.22" r="6.1" gradientTransform="rotate(-144.07 -326.87 188.08) scale(.94)" xlink:href="#radial-gradient"/>
    <radialGradient id="radial-gradient-120" cx="-864.04" cy="1054.75" r="166.84" gradientTransform="rotate(-127.3 -257.77 380.66) scale(.94)" xlink:href="#radial-gradient-6"/>
    <radialGradient id="radial-gradient-121" cx="-864.04" cy="1054.75" r="166.85" gradientTransform="rotate(-127.3 -257.77 380.66) scale(.94)" xlink:href="#radial-gradient-6"/>
    <radialGradient id="radial-gradient-122" cx="-762.62" cy="602.88" r="13.68" gradientTransform="rotate(-90 -408.9 38.7) scale(.95)" xlink:href="#radial-gradient-6"/>
    <radialGradient id="radial-gradient-123" cx="-730.14" cy="721.96" r="13.68" gradientTransform="rotate(-90 -408.9 38.7) scale(.95)" xlink:href="#radial-gradient-6"/>
    <radialGradient id="radial-gradient-124" cx="-502.85" cy="908.83" r="3.66" gradientTransform="rotate(-90 -406.06 38.8) scale(.94)" xlink:href="#radial-gradient"/>
    <radialGradient id="radial-gradient-125" cx="-482.52" cy="872.95" r="6.1" gradientTransform="rotate(-90 -406.06 38.8) scale(.94)" xlink:href="#radial-gradient"/>
    <radialGradient id="radial-gradient-126" cx="-308.95" cy="1288.09" r="166.85" gradientTransform="rotate(-73 -485.5 333.27) scale(.94)" xlink:href="#radial-gradient-6"/>
    <radialGradient id="radial-gradient-127" cx="-71.61" cy="1253.13" r="166.85" gradientTransform="rotate(-73 -485.5 333.27) scale(.94)" xlink:href="#radial-gradient-6"/>
    <radialGradient id="radial-gradient-128" cx="-627.08" cy="567.88" r="3.8" gradientTransform="rotate(-90 -406.06 38.8) scale(.94)" xlink:href="#radial-gradient"/>
    <radialGradient id="radial-gradient-129" cx="-581.92" cy="693.8" r="3.8" gradientTransform="rotate(-90 -406.06 38.8) scale(.94)" xlink:href="#radial-gradient"/>
    <radialGradient id="radial-gradient-130" cx="-280.05" cy="-282.8" r="6.33" gradientTransform="matrix(0 .94 -.94 0 -79.46 411.6)" xlink:href="#radial-gradient-57"/>
    <radialGradient id="radial-gradient-131" cx="168.74" cy="441.18" r="166.85" gradientTransform="rotate(96.62 162.11 294.63) scale(.94)" xlink:href="#radial-gradient-6"/>
    <radialGradient id="radial-gradient-132" cx="98.74" cy="411.03" r="166.86" gradientTransform="rotate(96.62 162.11 294.63) scale(.94)" xlink:href="#radial-gradient-6"/>
    <radialGradient id="radial-gradient-133" cx="-268.75" cy="-255.83" r="12.98" gradientTransform="matrix(0 .95 -.95 0 -80.38 412.53)" xlink:href="#radial-gradient-6"/>
    <radialGradient id="radial-gradient-134" cx="-343.54" cy="1455.79" r="166.85" gradientTransform="rotate(-73 -485.5 333.27) scale(.94)" xlink:href="#radial-gradient-6"/>
    <radialGradient id="radial-gradient-135" cx="-465.26" cy="733.1" r="3.66" gradientTransform="rotate(-90 -406.06 38.8) scale(.94)" xlink:href="#radial-gradient"/>
    <radialGradient id="radial-gradient-136" cx="-380.01" cy="-310.19" r="6.1" gradientTransform="matrix(0 .94 -.94 0 -79.46 411.6)" xlink:href="#radial-gradient-57"/>
    <radialGradient id="radial-gradient-137" cx="-492.64" cy="810.76" r="6.1" gradientTransform="rotate(-90 -406.06 38.8) scale(.94)" xlink:href="#radial-gradient"/>
    <radialGradient id="radial-gradient-138" cx="-87.05" cy="1074.09" r="166.85" gradientTransform="rotate(-73 -485.5 333.27) scale(.94)" xlink:href="#radial-gradient-6"/>
    <radialGradient id="radial-gradient-139" cx="-104.14" cy="1120.93" r="166.85" gradientTransform="rotate(-73 -485.5 333.27) scale(.94)" xlink:href="#radial-gradient-6"/>
    <radialGradient id="radial-gradient-140" cx="-87.05" cy="1074.1" r="166.85" gradientTransform="rotate(-73 -485.5 333.27) scale(.94)" xlink:href="#radial-gradient-6"/>
    <radialGradient id="radial-gradient-141" cx="-87.05" cy="1074.09" r="166.84" gradientTransform="rotate(-73 -485.5 333.27) scale(.94)" xlink:href="#radial-gradient-6"/>
    <radialGradient id="radial-gradient-142" cx="-377.81" cy="-273.67" r="12.92" gradientTransform="matrix(0 .95 -.95 0 -80.38 412.53)" xlink:href="#radial-gradient-6"/>
    <radialGradient id="radial-gradient-143" cx="-48.19" cy="-360.23" r="6.1" gradientTransform="matrix(0 .94 -.94 0 -79.46 411.6)" xlink:href="#radial-gradient-57"/>
    <radialGradient id="radial-gradient-144" cx="-389.73" cy="1218.98" r="166.85" gradientTransform="rotate(-73 -485.5 333.27) scale(.94)" xlink:href="#radial-gradient-6"/>
    <radialGradient id="radial-gradient-145" cx="-389.74" cy="1218.98" r="166.84" gradientTransform="rotate(-73 -485.5 333.27) scale(.94)" xlink:href="#radial-gradient-6"/>
    <linearGradient id="linear-gradient-2" x1="-1456.12" x2="-1389.48" y1="263.77" y2="301.77" gradientTransform="scale(-1 1) rotate(7 784.7 9302.12)" gradientUnits="userSpaceOnUse">
      <stop offset="0" stop-color="#fff" stop-opacity="0"/>
      <stop offset="1" stop-color="#fff" stop-opacity=".8"/>
    </linearGradient>
    <linearGradient id="linear-gradient-3" x1="-1496.83" x2="-1406.49" y1="233.78" y2="294.51" xlink:href="#linear-gradient-2"/>
    <linearGradient id="linear-gradient-4" x1="300.13" x2="302.34" y1="99.09" y2="99.09" xlink:href="#linear-gradient-2"/>
    <linearGradient id="linear-gradient-5" x1="-1636.52" x2="-1569.88" y1="227.95" y2="265.95" xlink:href="#linear-gradient-2"/>
    <linearGradient id="linear-gradient-6" x1="-1677.23" x2="-1586.89" y1="197.96" y2="258.69" xlink:href="#linear-gradient-2"/>
    <linearGradient id="linear-gradient-7" x1="474.8" x2="477.01" y1="41.53" y2="41.53" xlink:href="#linear-gradient-2"/>
    <linearGradient id="linear-gradient-8" x1="-1625.93" x2="-1599.08" y1="504.13" y2="519.44" xlink:href="#linear-gradient-2"/>
    <linearGradient id="linear-gradient-9" x1="-1633.86" x2="-1605.27" y1="496.76" y2="515.98" xlink:href="#linear-gradient-2"/>
    <linearGradient id="linear-gradient-10" x1="532.18" x2="534.94" y1="291.56" y2="291.56" xlink:href="#linear-gradient-2"/>
    <linearGradient id="linear-gradient-11" x1="-1367.77" x2="-1292.72" y1="392.05" y2="434.85" xlink:href="#linear-gradient-2"/>
    <linearGradient id="linear-gradient-12" x1="-1412.06" x2="-1311.41" y1="358.36" y2="426.03" xlink:href="#linear-gradient-2"/>
    <linearGradient id="linear-gradient-13" x1="221.28" x2="224.05" y1="242.39" y2="242.39" xlink:href="#linear-gradient-2"/>
    <linearGradient id="Degradado_sin_nombre_23" x1="626.55" x2="706.06" y1="-1.22" y2="-1.22" gradientTransform="matrix(1 .09 -.09 1 2.1 79.77)" gradientUnits="userSpaceOnUse">
      <stop offset="0" stop-color="#ffe656"/>
      <stop offset=".06" stop-color="#ffd152"/>
      <stop offset=".2" stop-color="#ff9b49"/>
      <stop offset=".35" stop-color="#ff563c"/>
      <stop offset="1" stop-color="#310554" stop-opacity="0"/>
    </linearGradient>
  </defs>
  <g style="isolation:isolate">
    <g id="Layer_2" data-name="Layer 2">
      <path fill="url(#linear-gradient)" d="M0 0h960v480H0z"/>
      <g id="Back" clip-path="url(#clip-path)">
        <path d="M915.54 398a5.15 5.15 0 0 0-3.93-3.93 13.21 13.21 0 0 0 2.54-1.38 13.7 13.7 0 0 0 1.39-2.54 13.7 13.7 0 0 0 1.39 2.54 13.21 13.21 0 0 0 2.54 1.38 5.15 5.15 0 0 0-3.93 3.93z" style="mix-blend-mode:screen" fill="url(#radial-gradient)" opacity=".32"/>
        <path d="M785.9 412.09a5.15 5.15 0 0 0-3.93-3.93 5.15 5.15 0 0 0 3.93-3.93 13.21 13.21 0 0 0 1.38 2.54 13.7 13.7 0 0 0 2.54 1.39 13.7 13.7 0 0 0-2.54 1.39 13.21 13.21 0 0 0-1.38 2.54z" style="mix-blend-mode:screen" fill="url(#radial-gradient-2)" opacity=".32"/>
        <path d="M776.71 456a22.5 22.5 0 0 0-2.31-4.23 22.2 22.2 0 0 0-4.23-2.31 21.81 21.81 0 0 0 4.23-2.32 22.2 22.2 0 0 0 2.31-4.23 21.81 21.81 0 0 0 2.32 4.23 21.81 21.81 0 0 0 4.23 2.32 22.2 22.2 0 0 0-4.26 2.34 22.1 22.1 0 0 0-2.29 4.2z" style="mix-blend-mode:screen" fill="url(#radial-gradient-3)" opacity=".32"/>
        <path d="M771.91 378.33a22.51 22.51 0 0 0-2.31-4.24 22.51 22.51 0 0 0-4.24-2.31 22.11 22.11 0 0 0 4.24-2.32 22.2 22.2 0 0 0 2.31-4.23 21.81 21.81 0 0 0 2.32 4.23 21.81 21.81 0 0 0 4.23 2.32 22.2 22.2 0 0 0-4.23 2.31 22.11 22.11 0 0 0-2.32 4.24z" style="mix-blend-mode:screen" fill="url(#radial-gradient-4)" opacity=".32"/>
        <path d="M939.55 463.89a22.2 22.2 0 0 0-2.31-4.23 22.51 22.51 0 0 0-4.24-2.31 22.7 22.7 0 0 0 4.24-2.32 22.2 22.2 0 0 0 2.31-4.23 21.81 21.81 0 0 0 2.32 4.23 22.38 22.38 0 0 0 4.23 2.32 22.2 22.2 0 0 0-4.23 2.31 21.81 21.81 0 0 0-2.32 4.23z" style="mix-blend-mode:screen" fill="url(#radial-gradient-5)" opacity=".32"/>
        <path d="M791.91 383.17a2.19 2.19 0 1 0 2.19 2.19 2.19 2.19 0 0 0-2.19-2.19z" style="mix-blend-mode:screen" fill="url(#radial-gradient-6)" opacity=".5"/>
        <path d="M767.29 461.3a7.49 7.49 0 0 1-.77 1.41 7.82 7.82 0 0 1-1.41.77 2.85 2.85 0 0 1 2.18 2.18 7.82 7.82 0 0 1 .77-1.41 7.49 7.49 0 0 1 1.41-.77 2.85 2.85 0 0 1-2.18-2.18z" style="mix-blend-mode:screen" fill="url(#radial-gradient-7)" opacity=".5"/>
        <path d="M797.31 431.51a2.85 2.85 0 0 1-2.18 2.18 7.49 7.49 0 0 1 1.41.77 7.82 7.82 0 0 1 .77 1.41 2.85 2.85 0 0 1 2.18-2.18 7.82 7.82 0 0 1-1.41-.77 7.49 7.49 0 0 1-.77-1.41z" style="mix-blend-mode:screen" fill="url(#radial-gradient-8)" opacity=".5"/>
        <path d="M933.42 364.82a7.49 7.49 0 0 1-.77 1.41 7.82 7.82 0 0 1-1.41.77 2.85 2.85 0 0 1 2.18 2.18 7.22 7.22 0 0 1 .77-1.41 7.49 7.49 0 0 1 1.41-.77 7.49 7.49 0 0 1-1.41-.77 6.94 6.94 0 0 1-.77-1.41z" style="mix-blend-mode:screen" fill="url(#radial-gradient-9)" opacity=".5"/>
        <path d="M908.12 463.46a7.49 7.49 0 0 1-.77 1.41 7.82 7.82 0 0 1-1.41.77 2.85 2.85 0 0 1 2.18 2.18 7.82 7.82 0 0 1 .77-1.41 7.49 7.49 0 0 1 1.41-.77 2.85 2.85 0 0 1-2.18-2.18z" style="mix-blend-mode:screen" fill="url(#radial-gradient-10)" opacity=".5"/>
        <path d="M921.1 431.06a.73.73 0 1 1 .73.73.73.73 0 0 1-.73-.73zm-5.83 13.37a1.46 1.46 0 1 0-1.46-1.46 1.46 1.46 0 0 0 1.46 1.46zm-2.92-17.5a2.92 2.92 0 1 0-2.92-2.92 2.92 2.92 0 0 0 2.92 2.92zm25.27-3.4a1.46 1.46 0 1 0-1.46-1.46 1.46 1.46 0 0 0 1.46 1.46z" style="mix-blend-mode:screen" fill="url(#radial-gradient-11)"/>
        <path d="M793.42 483.28a.73.73 0 1 1-.79-.66.72.72 0 0 1 .79.66zm4.68-13.81a1.46 1.46 0 1 0 1.58 1.33 1.46 1.46 0 0 0-1.58-1.33zm4.39 17.19a2.92 2.92 0 1 0 3.15 2.65 2.9 2.9 0 0 0-3.15-2.65zm-24.89 5.53a1.45 1.45 0 1 0 .24 2.9 1.45 1.45 0 1 0-.24-2.9z" style="mix-blend-mode:screen" fill="url(#radial-gradient-12)"/>
        <path d="M921.44 43.71a12.83 12.83 0 0 0-1.39-2.54 13.39 13.39 0 0 0-2.53-1.39 12.82 12.82 0 0 0 2.53-1.39 12.82 12.82 0 0 0 1.39-2.53 13.39 13.39 0 0 0 1.39 2.53 12.83 12.83 0 0 0 2.54 1.39 13.39 13.39 0 0 0-2.54 1.39 13.39 13.39 0 0 0-1.39 2.54z" style="mix-blend-mode:screen" fill="url(#radial-gradient-13)" opacity=".32"/>
        <path d="M910.53 135.83a13.39 13.39 0 0 0-1.39-2.54 12.83 12.83 0 0 0-2.54-1.39 13.39 13.39 0 0 0 2.54-1.39 13.39 13.39 0 0 0 1.39-2.54 13.39 13.39 0 0 0 1.39 2.54 13.39 13.39 0 0 0 2.54 1.39 12.83 12.83 0 0 0-2.54 1.39 13.39 13.39 0 0 0-1.39 2.54z" style="mix-blend-mode:screen" fill="url(#radial-gradient-14)" opacity=".32"/>
        <path d="M791.8 57.83a13.39 13.39 0 0 0-1.39-2.54 13.39 13.39 0 0 0-2.54-1.39 13.39 13.39 0 0 0 2.54-1.39A13.39 13.39 0 0 0 791.8 50a13.39 13.39 0 0 0 1.39 2.54 13.39 13.39 0 0 0 2.54 1.39 13.39 13.39 0 0 0-2.54 1.39 13.39 13.39 0 0 0-1.39 2.51z" style="mix-blend-mode:screen" fill="url(#radial-gradient-15)" opacity=".32"/>
        <path d="M782.62 101.77a22.38 22.38 0 0 0-2.32-4.23 22.2 22.2 0 0 0-4.23-2.31 22.38 22.38 0 0 0 4.23-2.32 22.38 22.38 0 0 0 2.32-4.23 22.2 22.2 0 0 0 2.31 4.23 22.38 22.38 0 0 0 4.23 2.32 22.2 22.2 0 0 0-4.23 2.31 22.2 22.2 0 0 0-2.31 4.23z" style="mix-blend-mode:screen" fill="url(#radial-gradient-16)" opacity=".32"/>
        <path d="M777.81 24.06a22.5 22.5 0 0 0-2.31-4.23 22.2 22.2 0 0 0-4.23-2.31 21.81 21.81 0 0 0 4.23-2.32 22.2 22.2 0 0 0 2.31-4.2 21.81 21.81 0 0 0 2.32 4.23 21.81 21.81 0 0 0 4.23 2.32 22.2 22.2 0 0 0-4.23 2.31 22.1 22.1 0 0 0-2.32 4.2z" style="mix-blend-mode:screen" fill="url(#radial-gradient-17)"/>
        <path d="M945.45 109.63a22.2 22.2 0 0 0-2.31-4.23 22.38 22.38 0 0 0-4.23-2.32 22.2 22.2 0 0 0 4.23-2.31 22.2 22.2 0 0 0 2.31-4.23 22.38 22.38 0 0 0 2.32 4.23 22.2 22.2 0 0 0 4.23 2.31 22.38 22.38 0 0 0-4.23 2.32 22.38 22.38 0 0 0-2.32 4.23z" style="mix-blend-mode:screen" fill="url(#radial-gradient-18)"/>
        <path d="M797.81 28.91A2.19 2.19 0 1 0 800 31.1a2.19 2.19 0 0 0-2.19-2.19z" style="mix-blend-mode:screen" fill="url(#radial-gradient-19)" opacity=".5"/>
        <path d="M833.44 149a7.82 7.82 0 0 1-.77 1.41 7.82 7.82 0 0 1-1.41.77 7.82 7.82 0 0 1 1.41.77 7.82 7.82 0 0 1 .77 1.41 7.22 7.22 0 0 1 .77-1.41 7.49 7.49 0 0 1 1.41-.77 7.49 7.49 0 0 1-1.41-.77 7.22 7.22 0 0 1-.77-1.41z" style="mix-blend-mode:screen" fill="url(#radial-gradient-20)" opacity=".5"/>
        <path d="M773.19 107a7.82 7.82 0 0 1-.77 1.41 7.49 7.49 0 0 1-1.41.77 7.49 7.49 0 0 1 1.41.77 7.82 7.82 0 0 1 .77 1.41A7.82 7.82 0 0 1 774 110a7.82 7.82 0 0 1 1.41-.77 7.82 7.82 0 0 1-1.41-.77 7.82 7.82 0 0 1-.81-1.46z" style="mix-blend-mode:screen" fill="url(#radial-gradient-21)" opacity=".5"/>
        <path d="M803.21 77.25a7.22 7.22 0 0 1-.77 1.41 7.49 7.49 0 0 1-1.41.77 7.49 7.49 0 0 1 1.41.77 6.94 6.94 0 0 1 .77 1.41 7.49 7.49 0 0 1 .79-1.41 7.82 7.82 0 0 1 1.41-.77 7.82 7.82 0 0 1-1.41-.77 7.82 7.82 0 0 1-.79-1.41z" style="mix-blend-mode:screen" fill="url(#radial-gradient-22)" opacity=".5"/>
        <path d="M939.32 10.56a7.82 7.82 0 0 1-.77 1.41 7.82 7.82 0 0 1-1.41.77 7.82 7.82 0 0 1 1.41.77 7.49 7.49 0 0 1 .77 1.41 7.49 7.49 0 0 1 .77-1.41 7.49 7.49 0 0 1 1.41-.77 7.49 7.49 0 0 1-1.41-.77 7.82 7.82 0 0 1-.77-1.41z" style="mix-blend-mode:screen" fill="url(#radial-gradient-23)" opacity=".5"/>
        <path d="M914 109.2a7.82 7.82 0 0 1-.77 1.41 7.49 7.49 0 0 1-1.41.77 7.49 7.49 0 0 1 1.41.77 7.49 7.49 0 0 1 .77 1.41 7.49 7.49 0 0 1 .77-1.41 7.82 7.82 0 0 1 1.41-.77 7.82 7.82 0 0 1-1.41-.77 7.82 7.82 0 0 1-.77-1.41z" style="mix-blend-mode:screen" fill="url(#radial-gradient-24)" opacity=".5"/>
        <path d="M927 76.8a.73.73 0 1 1 .73.73.73.73 0 0 1-.73-.73zm-5.83 13.36a1.46 1.46 0 1 0-1.46-1.45 1.46 1.46 0 0 0 1.46 1.45zm-2.92-17.49a2.92 2.92 0 1 0-2.91-2.92 2.92 2.92 0 0 0 2.91 2.92zm25.27-3.4a1.46 1.46 0 1 0-1.46-1.46 1.46 1.46 0 0 0 1.46 1.46z" style="mix-blend-mode:screen" fill="url(#radial-gradient-25)"/>
        <path d="M799.32 129a.72.72 0 0 1-.66.79.74.74 0 0 1-.79-.67.72.72 0 0 1 .67-.78.71.71 0 0 1 .78.66zm4.68-13.79a1.46 1.46 0 1 0 1.58 1.33 1.46 1.46 0 0 0-1.58-1.33zm4.39 17.19a2.92 2.92 0 1 0 3.15 2.65 2.92 2.92 0 0 0-3.15-2.65zm-24.89 5.53a1.46 1.46 0 1 0 1.58 1.33 1.46 1.46 0 0 0-1.58-1.33z" style="mix-blend-mode:screen" fill="url(#radial-gradient-26)"/>
        <path d="M614.26 135.08a13.37 13.37 0 0 0 .59 2.83 13.29 13.29 0 0 0 2 2.07 13.43 13.43 0 0 0-2.84.59 13.77 13.77 0 0 0-2.07 2 13.08 13.08 0 0 0-.58-2.83 13.29 13.29 0 0 0-2-2.07 13.37 13.37 0 0 0 2.83-.59 13.29 13.29 0 0 0 2.07-2z" style="mix-blend-mode:screen" fill="url(#radial-gradient-27)" opacity=".32"/>
        <path d="M635.89 95.74a22 22 0 0 0 1 4.72 22.13 22.13 0 0 0 3.37 3.45 22 22 0 0 0-4.72 1 21.86 21.86 0 0 0-3.46 3.37 22.6 22.6 0 0 0-1-4.73 22.6 22.6 0 0 0-3.37-3.45 22.42 22.42 0 0 0 4.72-1 22.13 22.13 0 0 0 3.46-3.36z" style="mix-blend-mode:screen" fill="url(#radial-gradient-28)"/>
        <path d="M617.76 171.45a22.13 22.13 0 0 0 1 4.73 22.6 22.6 0 0 0 3.37 3.45 22.42 22.42 0 0 0-4.72 1 22.31 22.31 0 0 0-3.46 3.37 21.9 21.9 0 0 0-1-4.72 22.6 22.6 0 0 0-3.37-3.45 22 22 0 0 0 4.72-1 21.68 21.68 0 0 0 3.46-3.38z" style="mix-blend-mode:screen" fill="url(#radial-gradient-29)" opacity=".32"/>
        <path d="M600.06 161a2.2 2.2 0 1 0-1.46-2.74 2.19 2.19 0 0 0 1.46 2.74z" style="mix-blend-mode:screen" fill="url(#radial-gradient-30)" opacity=".5"/>
        <path d="M601.09 35.76a7.24 7.24 0 0 1 1.15-1.12 7.31 7.31 0 0 1 1.57-.33 7.24 7.24 0 0 1-1.12-1.15 7.31 7.31 0 0 1-.33-1.57 6.83 6.83 0 0 1-1.15 1.12 7.31 7.31 0 0 1-1.57.33 7.24 7.24 0 0 1 1.12 1.15 7.31 7.31 0 0 1 .33 1.57z" style="mix-blend-mode:screen" fill="url(#radial-gradient-31)" opacity=".5"/>
        <path d="M646.44 93.46a7.66 7.66 0 0 1 1.15-1.13 8 8 0 0 1 1.58-.32 7.66 7.66 0 0 1-1.17-1.15 7.94 7.94 0 0 1-.32-1.57 7.71 7.71 0 0 1-1.15 1.12 7.15 7.15 0 0 1-1.57.32 7.71 7.71 0 0 1 1.12 1.15 7.32 7.32 0 0 1 .36 1.58z" style="mix-blend-mode:screen" fill="url(#radial-gradient-32)" opacity=".5"/>
        <path d="M609 113.17a7.66 7.66 0 0 1 1.15-1.13 8 8 0 0 1 1.58-.32 7.25 7.25 0 0 1-1.12-1.15 7.43 7.43 0 0 1-.33-1.57 7.24 7.24 0 0 1-1.15 1.12 7.15 7.15 0 0 1-1.57.32 7.71 7.71 0 0 1 1.12 1.15 7.32 7.32 0 0 1 .32 1.58z" style="mix-blend-mode:screen" fill="url(#radial-gradient-33)" opacity=".5"/>
        <path d="M669.86 38.05a13.29 13.29 0 0 0-2.88.2 13.15 13.15 0 0 0-2.32 1.75 13.58 13.58 0 0 0-.21-2.89 13.22 13.22 0 0 0-1.72-2.32 13.33 13.33 0 0 0 2.88-.2 13.15 13.15 0 0 0 2.32-1.73 12.93 12.93 0 0 0 .21 2.89 13.62 13.62 0 0 0 1.72 2.3z" style="mix-blend-mode:screen" fill="url(#radial-gradient-34)" opacity=".32"/>
        <path d="M739.79 43.74a22.17 22.17 0 0 0-4.81.34 22.3 22.3 0 0 0-3.87 2.92 22.17 22.17 0 0 0-.34-4.81 21.9 21.9 0 0 0-2.88-3.87 22.17 22.17 0 0 0 4.81-.34 22.3 22.3 0 0 0 3.87-2.88 22.17 22.17 0 0 0 .34 4.81 22.3 22.3 0 0 0 2.88 3.83z" style="mix-blend-mode:screen" fill="url(#radial-gradient-35)" opacity=".32"/>
        <path d="M726.28 72.12a7.71 7.71 0 0 1 1 1.29 7.4 7.4 0 0 1 .11 1.61 7.3 7.3 0 0 1 1.29-1 7.48 7.48 0 0 1 1.6-.12 7.53 7.53 0 0 1-1-1.28 7.4 7.4 0 0 1-.11-1.61 7.3 7.3 0 0 1-1.29 1 7.32 7.32 0 0 1-1.6.11z" style="mix-blend-mode:screen" fill="url(#radial-gradient-36)" opacity=".5"/>
        <path d="M702.25 46.81a.73.73 0 1 1 .61-1.33.73.73 0 0 1-.61 1.33zM712 57.69a1.46 1.46 0 0 0-.71-1.94A1.46 1.46 0 1 0 710 58.4a1.45 1.45 0 0 0 2-.71zM694.85 53a2.92 2.92 0 1 0-3.85 1.47 2.91 2.91 0 0 0 3.85-1.47zm7.45-24.38a1.46 1.46 0 0 0-2.65-1.22 1.46 1.46 0 1 0 2.65 1.22z" style="mix-blend-mode:screen" fill="url(#radial-gradient-37)"/>
        <path d="M538.53 89.9a9.48 9.48 0 0 1-1.53 1.35 9.57 9.57 0 0 1-2 .31 9.06 9.06 0 0 1 1.34 1.52 9.18 9.18 0 0 1 .32 2 9.32 9.32 0 0 1 1.51-1.34 9.09 9.09 0 0 1 2-.31 9.48 9.48 0 0 1-1.35-1.52 9.74 9.74 0 0 1-.29-2.01z" style="mix-blend-mode:screen" fill="url(#radial-gradient-38)" opacity=".5"/>
        <path d="M565.56 13.44a.92.92 0 1 1 .56 1.18.92.92 0 0 1-.56-1.18zm-12.64 13.37a1.84 1.84 0 1 0-1.1-2.36 1.85 1.85 0 0 0 1.1 2.36zm35.47-15.24a1.84 1.84 0 1 0 1.25-3.46 1.84 1.84 0 0 0-1.25 3.46z" style="mix-blend-mode:screen" fill="url(#radial-gradient-39)"/>
        <path d="M923.84 284.68a9.34 9.34 0 0 1 .2-2 9.38 9.38 0 0 1 1.25-1.59 9.34 9.34 0 0 1-2-.2 8.89 8.89 0 0 1-1.59-1.25 9.34 9.34 0 0 1-.2 2 9.05 9.05 0 0 1-1.25 1.6 9.18 9.18 0 0 1 2 .19 9.38 9.38 0 0 1 1.59 1.25z" style="mix-blend-mode:screen" fill="url(#radial-gradient-40)" opacity=".5"/>
        <path d="M924.89 328.7a.92.92 0 1 1-1.69.72.92.92 0 0 1 1.69-.72zm.12-18.4a1.84 1.84 0 1 0 2.42 1 1.85 1.85 0 0 0-2.43-1zm12.07 18.84a3.68 3.68 0 1 0 4.83 1.94 3.69 3.69 0 0 0-4.83-1.94zm-27.61 16.5a1.84 1.84 0 1 0 2.41 1 1.84 1.84 0 0 0-2.41-1z" style="mix-blend-mode:screen" fill="url(#radial-gradient-41)"/>
        <path d="M850.45 104a8.92 8.92 0 0 1 .24 2 9.23 9.23 0 0 1-.88 1.83 9.52 9.52 0 0 1 2-.25 9.67 9.67 0 0 1 1.82.88 9.55 9.55 0 0 1-.24-2 9.23 9.23 0 0 1 .88-1.83 9.41 9.41 0 0 1-2 .25 9.23 9.23 0 0 1-1.82-.88z" style="mix-blend-mode:screen" fill="url(#radial-gradient-42)" opacity=".5"/>
        <path d="M840 61.25a.92.92 0 1 1 1.29.21.93.93 0 0 1-1.29-.21zm3.83 18a1.84 1.84 0 1 0-2.56-.42 1.83 1.83 0 0 0 2.54.41zM828 63.43a3.68 3.68 0 1 0-5.13-.85 3.68 3.68 0 0 0 5.13.85zm23.43-22a1.84 1.84 0 1 0-2.57-.42 1.85 1.85 0 0 0 2.55.38z" style="mix-blend-mode:screen" fill="url(#radial-gradient-43)"/>
        <path d="M625.65 26.82a.73.73 0 1 1 .56.86.71.71 0 0 1-.56-.86zm-8.51 11.83a1.46 1.46 0 1 0-1.14-1.73 1.46 1.46 0 0 0 1.14 1.73zm26.24-15.73a1.46 1.46 0 1 0-1.11-1.73 1.45 1.45 0 0 0 1.11 1.73z" style="mix-blend-mode:screen" fill="url(#radial-gradient-44)"/>
        <path d="M468.6 395.62a21.86 21.86 0 0 0 4.39 2 22.07 22.07 0 0 0 4.78-.7 22.21 22.21 0 0 0-2 4.4 22.57 22.57 0 0 0 .71 4.77 21.74 21.74 0 0 0-4.4-2 22.06 22.06 0 0 0-4.77.7 22.31 22.31 0 0 0 2-4.4 22.06 22.06 0 0 0-.71-4.77z" style="mix-blend-mode:screen" fill="url(#radial-gradient-45)"/>
        <path d="M389.55 478a7.15 7.15 0 0 1-.23-1.58 7.69 7.69 0 0 1 .66-1.47 7.16 7.16 0 0 1-1.59.23 7 7 0 0 1-1.46-.66 7.26 7.26 0 0 1 .23 1.59 7.69 7.69 0 0 1-.66 1.47 7.66 7.66 0 0 1 1.59-.24 7.54 7.54 0 0 1 1.46.66z" style="mix-blend-mode:screen" fill="url(#radial-gradient-46)" opacity=".5"/>
        <path d="M462.89 475.1a2.85 2.85 0 0 1 .42-3.06 7 7 0 0 1-1.59.24 7.84 7.84 0 0 1-1.46-.66 7.16 7.16 0 0 1 .23 1.59 7 7 0 0 1-.66 1.46 7.16 7.16 0 0 1 1.59-.23 7.69 7.69 0 0 1 1.47.66z" style="mix-blend-mode:screen" fill="url(#radial-gradient-47)" opacity=".5"/>
        <path d="M428.79 473.31a.73.73 0 1 1 1 .06.73.73 0 0 1-1-.06zm4.59 13.84a1.46 1.46 0 1 0-2.06-.11 1.46 1.46 0 0 0 2.06.11zm-13.86-11.06a2.92 2.92 0 1 0-4.12-.22 2.91 2.91 0 0 0 4.12.22zM436 456.67a1.46 1.46 0 1 0-2-2.17 1.48 1.48 0 0 0-.11 2.06 1.46 1.46 0 0 0 2.11.11z" style="mix-blend-mode:screen" fill="url(#radial-gradient-48)"/>
        <path d="M579.58 137.09a.73.73 0 0 1 .06-1 .74.74 0 0 1 1 .05.73.73 0 0 1-1.09 1zm4.6 13.84a1.46 1.46 0 1 0-2.06-.11 1.46 1.46 0 0 0 2.06.11zm-13.86-11.07a2.92 2.92 0 1 0-4.12-.22 2.93 2.93 0 0 0 4.12.22zm16.52-19.42a1.46 1.46 0 0 0 .11-2.06 1.48 1.48 0 0 0-2.06-.11 1.46 1.46 0 1 0 2 2.17z" style="mix-blend-mode:screen" fill="url(#radial-gradient-49)"/>
        <path d="M613.09 260a.74.74 0 0 1 .06-1 .73.73 0 1 1-.06 1zm4.6 13.84a1.46 1.46 0 1 0-2.06-.11 1.46 1.46 0 0 0 2.06.07zm-13.86-11.07a2.91 2.91 0 1 0-4.12-.22 2.92 2.92 0 0 0 4.12.18zm16.52-19.41a1.46 1.46 0 1 0-2.06-.11 1.48 1.48 0 0 0 2.06.07z" style="mix-blend-mode:screen" fill="url(#radial-gradient-50)"/>
        <path d="M844.94 444.87a13.25 13.25 0 0 0 .59 2.83 13.47 13.47 0 0 0 2 2.08 13.26 13.26 0 0 0-2.84.58 13.77 13.77 0 0 0-2.07 2 5.13 5.13 0 0 0-2.6-4.9 5.16 5.16 0 0 0 4.9-2.61z" style="mix-blend-mode:screen" fill="url(#radial-gradient-51)"/>
        <path d="M866.57 405.53a22 22 0 0 0 1 4.72 22.13 22.13 0 0 0 3.37 3.45 8.59 8.59 0 0 0-8.17 4.35 22 22 0 0 0-1-4.72 22.13 22.13 0 0 0-3.37-3.45 8.59 8.59 0 0 0 8.17-4.35z" style="mix-blend-mode:screen" fill="url(#radial-gradient-52)" opacity=".32"/>
        <path d="M633.6 366.33a7.66 7.66 0 0 1 1.15-1.13 7.32 7.32 0 0 1 1.58-.32 7.66 7.66 0 0 1-1.13-1.15 7.32 7.32 0 0 1-.32-1.58 7.66 7.66 0 0 1-1.15 1.13 7.32 7.32 0 0 1-1.58.32 7.66 7.66 0 0 1 1.13 1.15 7.32 7.32 0 0 1 .32 1.58z" style="mix-blend-mode:screen" fill="url(#radial-gradient-53)" opacity=".5"/>
        <path d="M839.71 423a2.88 2.88 0 0 1 2.72-1.45 6.83 6.83 0 0 1-1.12-1.15 7.31 7.31 0 0 1-.33-1.57 2.88 2.88 0 0 1-2.72 1.45 2.88 2.88 0 0 1 1.45 2.72z" style="mix-blend-mode:screen" fill="url(#radial-gradient-54)" opacity=".5"/>
        <path d="M715.78 102.47a13.25 13.25 0 0 0-1.08-2.69 13.71 13.71 0 0 0-2.36-1.67A13.21 13.21 0 0 0 715 97a13.7 13.7 0 0 0 1.67-2.37 13.42 13.42 0 0 0 1.09 2.69 13.34 13.34 0 0 0 2.38 1.68 13.6 13.6 0 0 0-2.68 1.08 13.33 13.33 0 0 0-1.68 2.39z" style="mix-blend-mode:screen" fill="url(#radial-gradient-55)" opacity=".32"/>
        <path d="M762.16 231.75a13.16 13.16 0 0 0-1.09-2.68 13.35 13.35 0 0 0-2.36-1.68 13.21 13.21 0 0 0 2.68-1.08 13.17 13.17 0 0 0 1.67-2.36 13.4 13.4 0 0 0 1.09 2.68 13.71 13.71 0 0 0 2.36 1.67 13.16 13.16 0 0 0-2.68 1.09 13.17 13.17 0 0 0-1.67 2.36z" style="mix-blend-mode:screen" fill="url(#radial-gradient-56)" opacity=".32"/>
        <path fill="url(#radial-gradient-57)" d="M799.87 209.75a22.84 22.84 0 0 0-1.81-4.47 22.41 22.41 0 0 0-3.94-2.78 22.4 22.4 0 0 0 4.47-1.82 22.24 22.24 0 0 0 2.79-3.93 22.21 22.21 0 0 0 1.81 4.47 22.43 22.43 0 0 0 3.93 2.78 22.4 22.4 0 0 0-4.47 1.82 22.06 22.06 0 0 0-2.78 3.93z"/>
        <path d="M737.36 71.6a7.18 7.18 0 0 1-.93 1.31 7.2 7.2 0 0 1-1.49.6 6.85 6.85 0 0 1 1.31.93 7.37 7.37 0 0 1 .61 1.49 7.18 7.18 0 0 1 .93-1.31 7.37 7.37 0 0 1 1.49-.61 7.17 7.17 0 0 1-1.32-.93 7.17 7.17 0 0 1-.6-1.48z" style="mix-blend-mode:screen" fill="url(#radial-gradient-58)" opacity=".5"/>
        <path d="M768.69 205.7a2.86 2.86 0 0 1-2.41 1.92 7.54 7.54 0 0 1 1.31.92 7.42 7.42 0 0 1 .6 1.49 2.85 2.85 0 0 1 2.42-1.91 7.18 7.18 0 0 1-1.31-.93 7.37 7.37 0 0 1-.61-1.49z" style="mix-blend-mode:screen" fill="url(#radial-gradient-59)" opacity=".5"/>
        <path d="M785.32 175a.73.73 0 1 1 .64.81.73.73 0 0 1-.64-.81zM778 187.62a1.46 1.46 0 1 0-1.28-1.62 1.45 1.45 0 0 0 1.28 1.62zm-.88-17.72a2.91 2.91 0 1 0-2.56-3.23 2.91 2.91 0 0 0 2.55 3.23zm25.49-.46a1.46 1.46 0 1 0-1.28-1.62 1.47 1.47 0 0 0 1.27 1.62z" style="mix-blend-mode:screen" fill="url(#radial-gradient-60)"/>
        <path d="M883.53 264.45a13.37 13.37 0 0 0 .59 2.83 13.29 13.29 0 0 0 2 2.07 5.16 5.16 0 0 0-4.9 2.61 13.43 13.43 0 0 0-.59-2.84 13.77 13.77 0 0 0-2-2.07 13.08 13.08 0 0 0 2.83-.58 13.29 13.29 0 0 0 2.07-2.02z" style="mix-blend-mode:screen" fill="url(#radial-gradient-61)" opacity=".32"/>
        <path fill="url(#radial-gradient-62)" d="M905.17 225.11a22.54 22.54 0 0 0 1 4.72 22.6 22.6 0 0 0 3.37 3.45 22 22 0 0 0-4.72 1 21.68 21.68 0 0 0-3.45 3.37 22.13 22.13 0 0 0-1-4.73 22.14 22.14 0 0 0-3.37-3.45 22.6 22.6 0 0 0 4.73-1 22.6 22.6 0 0 0 3.44-3.36z"/>
        <path d="M856.19 341.67a22.13 22.13 0 0 0 1 4.73 22.14 22.14 0 0 0 3.37 3.45 22.6 22.6 0 0 0-4.73 1 22.6 22.6 0 0 0-3.45 3.37 22.54 22.54 0 0 0-1-4.72A22.6 22.6 0 0 0 848 346a22.07 22.07 0 0 0 4.72-1 22.14 22.14 0 0 0 3.47-3.33z" style="mix-blend-mode:screen" fill="url(#radial-gradient-63)"/>
        <path d="M869.33 290.34a2.19 2.19 0 1 0-1.45-2.73 2.19 2.19 0 0 0 1.45 2.73z" style="mix-blend-mode:screen" fill="url(#radial-gradient-64)" opacity=".5"/>
        <path d="M839.51 206a7.71 7.71 0 0 1 1.15-1.12 7.49 7.49 0 0 1 1.58-.33 7.48 7.48 0 0 1-1.13-1.14 7.32 7.32 0 0 1-.32-1.58 7.25 7.25 0 0 1-1.15 1.12 7.49 7.49 0 0 1-1.58.33 7.2 7.2 0 0 1 1.13 1.15 7.15 7.15 0 0 1 .32 1.57z" style="mix-blend-mode:screen" fill="url(#radial-gradient-65)" opacity=".5"/>
        <path d="M915.72 222.83a2.83 2.83 0 0 1 2.72-1.45 7.71 7.71 0 0 1-1.12-1.15 7.49 7.49 0 0 1-.33-1.58 2.83 2.83 0 0 1-2.72 1.45 7.71 7.71 0 0 1 1.12 1.15 7.49 7.49 0 0 1 .33 1.58z" style="mix-blend-mode:screen" fill="url(#radial-gradient-66)" opacity=".5"/>
        <path d="M878.3 242.54a2.83 2.83 0 0 1 2.72-1.45 7.71 7.71 0 0 1-1.12-1.15 7.49 7.49 0 0 1-.33-1.58 2.83 2.83 0 0 1-2.72 1.45A7.25 7.25 0 0 1 878 241a7.49 7.49 0 0 1 .3 1.54z" style="mix-blend-mode:screen" fill="url(#radial-gradient-67)" opacity=".5"/>
        <path d="M897.16 194.16a.73.73 0 1 1 .55.87.73.73 0 0 1-.55-.87zM888.64 206a1.46 1.46 0 1 0-1.11-1.73 1.46 1.46 0 0 0 1.11 1.73zm.83-17.71a2.92 2.92 0 1 0-2.24-3.47 2.93 2.93 0 0 0 2.24 3.47zm25.42 2a1.46 1.46 0 0 0 .62-2.85 1.46 1.46 0 1 0-.62 2.85z" style="mix-blend-mode:screen" fill="url(#radial-gradient-68)"/>
        <path fill="url(#radial-gradient-69)" d="M564.48 276.49a22.42 22.42 0 0 0 1 4.72 22.13 22.13 0 0 0 3.37 3.45 22 22 0 0 0-4.72 1 22.13 22.13 0 0 0-3.45 3.37 22 22 0 0 0-1-4.72 21.68 21.68 0 0 0-3.37-3.45 22 22 0 0 0 4.72-1 22.31 22.31 0 0 0 3.45-3.37z"/>
        <path d="M575 274.21a6.83 6.83 0 0 1 1.15-1.12 7.31 7.31 0 0 1 1.57-.33 2.88 2.88 0 0 1-1.42-2.76 2.88 2.88 0 0 1-2.72 1.45 2.85 2.85 0 0 1 1.45 2.72z" style="mix-blend-mode:screen" fill="url(#radial-gradient-70)" opacity=".5"/>
        <path d="M537.61 293.92a6.83 6.83 0 0 1 1.15-1.12 7.31 7.31 0 0 1 1.57-.33 2.88 2.88 0 0 1-1.45-2.72 2.88 2.88 0 0 1-2.72 1.45 2.88 2.88 0 0 1 1.45 2.72z" style="mix-blend-mode:screen" fill="url(#radial-gradient-71)" opacity=".5"/>
        <g opacity=".7">
          <path d="M366.59 41.53a12.13 12.13 0 0 0-2.33 1.27 12.32 12.32 0 0 0-1.26 2.34 12.14 12.14 0 0 0-1.27-2.34 12.14 12.14 0 0 0-2.34-1.27 12.32 12.32 0 0 0 2.34-1.28 12.13 12.13 0 0 0 1.27-2.33 12.32 12.32 0 0 0 1.28 2.33 12.32 12.32 0 0 0 2.31 1.28z" style="mix-blend-mode:screen" fill="url(#radial-gradient-72)" opacity=".32"/>
          <path d="M451.3 51.56a12.32 12.32 0 0 0-2.3 1.28 12.13 12.13 0 0 0-1.27 2.33 12.32 12.32 0 0 0-1.28-2.33 12.32 12.32 0 0 0-2.33-1.28 12.13 12.13 0 0 0 2.33-1.27 12.32 12.32 0 0 0 1.24-2.29 12.14 12.14 0 0 0 1.31 2.29 12.14 12.14 0 0 0 2.3 1.27z" style="mix-blend-mode:screen" fill="url(#radial-gradient-73)" opacity=".32"/>
          <path d="M379.57 160.74a12.32 12.32 0 0 0-2.33 1.28 12.32 12.32 0 0 0-1.28 2.33 12.13 12.13 0 0 0-1.27-2.33 12.32 12.32 0 0 0-2.34-1.28 12.32 12.32 0 0 0 2.34-1.28 12.13 12.13 0 0 0 1.27-2.33 12.32 12.32 0 0 0 1.28 2.33 12.32 12.32 0 0 0 2.33 1.28z" style="mix-blend-mode:screen" fill="url(#radial-gradient-74)" opacity=".32"/>
          <path d="M420 169.18a20.88 20.88 0 0 0-3.9 2.13 20.69 20.69 0 0 0-2.1 3.89 20.87 20.87 0 0 0-2.13-3.89 20.87 20.87 0 0 0-3.89-2.13 20.69 20.69 0 0 0 3.89-2.12 20.88 20.88 0 0 0 2.13-3.9 20.69 20.69 0 0 0 2.12 3.9 20.69 20.69 0 0 0 3.88 2.12z" style="mix-blend-mode:screen" fill="url(#radial-gradient-75)" opacity=".32"/>
          <path d="M348.53 173.6a20 20 0 0 0-3.89 2.13 20 20 0 0 0-2.13 3.89 20 20 0 0 0-2.13-3.89 20 20 0 0 0-3.89-2.13 20 20 0 0 0 3.89-2.13 20 20 0 0 0 2.13-3.89 20 20 0 0 0 2.13 3.89 20 20 0 0 0 3.89 2.13z" style="mix-blend-mode:screen" fill="url(#radial-gradient-76)" opacity=".32"/>
          <path d="M427.21 19.45a20 20 0 0 0-3.89 2.13 20.56 20.56 0 0 0-2.13 3.89 20 20 0 0 0-2.13-3.89 20 20 0 0 0-3.89-2.13 20.56 20.56 0 0 0 3.89-2.13 20.29 20.29 0 0 0 2.13-3.89 20.87 20.87 0 0 0 2.13 3.89 20.56 20.56 0 0 0 3.89 2.13z" style="mix-blend-mode:screen" fill="url(#radial-gradient-77)" opacity=".32"/>
          <path d="M353 155.21a2 2 0 1 0 2-2 2 2 0 0 0-2 2z" style="mix-blend-mode:screen" fill="url(#radial-gradient-78)" opacity=".5"/>
          <path d="M463.37 122.45a6.85 6.85 0 0 1 1.29.71 6.86 6.86 0 0 1 .71 1.3 6.86 6.86 0 0 1 .71-1.3 6.86 6.86 0 0 1 1.3-.71 6.86 6.86 0 0 1-1.3-.71 6.86 6.86 0 0 1-.71-1.3 6.86 6.86 0 0 1-.71 1.3 6.85 6.85 0 0 1-1.29.71z" style="mix-blend-mode:screen" fill="url(#radial-gradient-79)" opacity=".5"/>
          <path d="M424.83 177.85a6.85 6.85 0 0 1 1.29.71 6.31 6.31 0 0 1 .71 1.29 2.64 2.64 0 0 1 2-2 2.63 2.63 0 0 1-2-2 6.32 6.32 0 0 1-.71 1.3 6.85 6.85 0 0 1-1.29.7z" style="mix-blend-mode:screen" fill="url(#radial-gradient-80)" opacity=".5"/>
          <path d="M397.43 150.24a6.86 6.86 0 0 1 1.3.71 6.86 6.86 0 0 1 .71 1.3 6.86 6.86 0 0 1 .71-1.3 6.86 6.86 0 0 1 1.3-.71 6.32 6.32 0 0 1-1.3-.71 6.85 6.85 0 0 1-.71-1.29 6.85 6.85 0 0 1-.71 1.29 6.32 6.32 0 0 1-1.3.71z" style="mix-blend-mode:screen" fill="url(#radial-gradient-81)" opacity=".5"/>
          <path d="M336.11 25.09a6.86 6.86 0 0 1 1.3.71 6.85 6.85 0 0 1 .71 1.29 6.67 6.67 0 0 1 .7-1.29 7.18 7.18 0 0 1 1.3-.71 7.18 7.18 0 0 1-1.3-.71 6.68 6.68 0 0 1-.7-1.3 6.86 6.86 0 0 1-.71 1.3 6.86 6.86 0 0 1-1.3.71z" style="mix-blend-mode:screen" fill="url(#radial-gradient-82)" opacity=".5"/>
          <path d="M426.81 48.35a6.86 6.86 0 0 1 1.3.71 6.86 6.86 0 0 1 .71 1.3 6.86 6.86 0 0 1 .71-1.3 6.85 6.85 0 0 1 1.29-.71 6.85 6.85 0 0 1-1.29-.71 6.85 6.85 0 0 1-.71-1.29 6.85 6.85 0 0 1-.71 1.29 6.86 6.86 0 0 1-1.3.71z" style="mix-blend-mode:screen" fill="url(#radial-gradient-83)" opacity=".5"/>
          <path d="M397 36.42a.67.67 0 1 1 .67-.67.67.67 0 0 1-.67.67zm12.29 5.36a1.34 1.34 0 1 0-1.29 1.34 1.34 1.34 0 0 0 1.31-1.34zm-16.09 2.68a2.68 2.68 0 1 0-2.68 2.68 2.68 2.68 0 0 0 2.7-2.68zm-3.1-23.24a1.35 1.35 0 1 0-1.35 1.34 1.34 1.34 0 0 0 1.35-1.34z" style="mix-blend-mode:screen" fill="url(#radial-gradient-84)"/>
          <path d="M445 153.82a.68.68 0 0 1 .73.61.67.67 0 0 1-1.34.11.66.66 0 0 1 .61-.72zm-12.7-4.3a1.34 1.34 0 1 0 1.22-1.45 1.34 1.34 0 0 0-1.18 1.45zm15.8-4a2.68 2.68 0 1 0 2.45-2.9 2.69 2.69 0 0 0-2.41 2.86zm5.09 22.89a1.34 1.34 0 1 0 1.22-1.45 1.34 1.34 0 0 0-1.18 1.41z" style="mix-blend-mode:screen" fill="url(#radial-gradient-85)"/>
          <path d="M40.84 36.1a12.32 12.32 0 0 0-2.34 1.28 12.13 12.13 0 0 0-1.27 2.33A12.32 12.32 0 0 0 36 37.38a12.32 12.32 0 0 0-2.34-1.28A12.32 12.32 0 0 0 36 34.82a12.32 12.32 0 0 0 1.28-2.33 12.13 12.13 0 0 0 1.27 2.33 12.32 12.32 0 0 0 2.29 1.28z" style="mix-blend-mode:screen" fill="url(#radial-gradient-86)" opacity=".32"/>
          <path d="M125.54 46.13a12.32 12.32 0 0 0-2.33 1.28 12.32 12.32 0 0 0-1.28 2.34 12.32 12.32 0 0 0-1.28-2.34 12.32 12.32 0 0 0-2.33-1.28 12.13 12.13 0 0 0 2.33-1.27 12.32 12.32 0 0 0 1.28-2.34 12.32 12.32 0 0 0 1.28 2.34 12.13 12.13 0 0 0 2.33 1.27z" style="mix-blend-mode:screen" fill="url(#radial-gradient-87)" opacity=".32"/>
          <path d="M53.82 155.31a12.32 12.32 0 0 0-2.34 1.28 12.13 12.13 0 0 0-1.27 2.33 12.32 12.32 0 0 0-1.28-2.33 12.32 12.32 0 0 0-2.34-1.28 11.77 11.77 0 0 0 2.34-1.31 12.32 12.32 0 0 0 1.28-2.33 12.13 12.13 0 0 0 1.27 2.33 11.77 11.77 0 0 0 2.34 1.31z" style="mix-blend-mode:screen" fill="url(#radial-gradient-88)" opacity=".32"/>
          <path d="M94.23 163.76a20.38 20.38 0 0 0-3.89 2.12 20.3 20.3 0 0 0-2.13 3.9 20.88 20.88 0 0 0-2.13-3.9 20.38 20.38 0 0 0-3.89-2.12 20.56 20.56 0 0 0 3.89-2.13 20.87 20.87 0 0 0 2.13-3.89 20.29 20.29 0 0 0 2.13 3.89 20.56 20.56 0 0 0 3.89 2.13z" style="mix-blend-mode:screen" fill="url(#radial-gradient-89)" opacity=".32"/>
          <path d="M22.77 168.17a20.56 20.56 0 0 0-3.89 2.13 20.56 20.56 0 0 0-2.13 3.89 20 20 0 0 0-2.13-3.89 20.56 20.56 0 0 0-3.89-2.13 20 20 0 0 0 3.89-2.17 20 20 0 0 0 2.13-3.89 20.56 20.56 0 0 0 2.13 3.89 20 20 0 0 0 3.89 2.17z" style="mix-blend-mode:screen" fill="url(#radial-gradient-90)"/>
          <path d="M101.45 14a20.29 20.29 0 0 0-3.89 2.13A20.56 20.56 0 0 0 95.43 20a20.38 20.38 0 0 0-2.12-3.89 20.3 20.3 0 0 0-3.9-2.11 20.3 20.3 0 0 0 3.9-2.13A20.38 20.38 0 0 0 95.43 8a20.56 20.56 0 0 0 2.13 3.89 20.29 20.29 0 0 0 3.89 2.11z" style="mix-blend-mode:screen" fill="url(#radial-gradient-91)"/>
          <path d="M27.23 149.78a2 2 0 1 0 2-2 2 2 0 0 0-2 2z" style="mix-blend-mode:screen" fill="url(#radial-gradient-92)" opacity=".5"/>
          <path d="M137.61 117a6.85 6.85 0 0 1 1.29.71 6.32 6.32 0 0 1 .71 1.3 6.86 6.86 0 0 1 .71-1.3 6.86 6.86 0 0 1 1.3-.71 6.32 6.32 0 0 1-1.3-.71 6.85 6.85 0 0 1-.71-1.29 6.31 6.31 0 0 1-.71 1.29 6.31 6.31 0 0 1-1.29.71z" style="mix-blend-mode:screen" fill="url(#radial-gradient-93)" opacity=".5"/>
          <path d="M99.07 172.42a6.86 6.86 0 0 1 1.3.71 6.86 6.86 0 0 1 .71 1.3 6.68 6.68 0 0 1 .7-1.3 7.18 7.18 0 0 1 1.3-.71 7.18 7.18 0 0 1-1.3-.71 6.67 6.67 0 0 1-.7-1.29 6.85 6.85 0 0 1-.71 1.29 6.86 6.86 0 0 1-1.3.71z" style="mix-blend-mode:screen" fill="url(#radial-gradient-94)" opacity=".5"/>
          <path d="M71.68 144.82a6.31 6.31 0 0 1 1.29.71 6.85 6.85 0 0 1 .71 1.29 6.85 6.85 0 0 1 .71-1.29 6.32 6.32 0 0 1 1.3-.71 6.86 6.86 0 0 1-1.3-.71 6.86 6.86 0 0 1-.71-1.3 6.86 6.86 0 0 1-.71 1.3 6.85 6.85 0 0 1-1.29.71z" style="mix-blend-mode:screen" fill="url(#radial-gradient-95)" opacity=".5"/>
          <path d="M10.35 19.66a6.86 6.86 0 0 1 1.3.71 6.86 6.86 0 0 1 .71 1.3 6.86 6.86 0 0 1 .71-1.3 6.85 6.85 0 0 1 1.29-.71 6.85 6.85 0 0 1-1.29-.66 6.85 6.85 0 0 1-.71-1.29 6.85 6.85 0 0 1-.71 1.29 6.86 6.86 0 0 1-1.3.66z" style="mix-blend-mode:screen" fill="url(#radial-gradient-96)" opacity=".5"/>
          <path d="M101.06 42.92a6.85 6.85 0 0 1 1.29.71 6.86 6.86 0 0 1 .71 1.3 6.86 6.86 0 0 1 .71-1.3 6.86 6.86 0 0 1 1.3-.71 6.32 6.32 0 0 1-1.3-.71 6.85 6.85 0 0 1-.71-1.29 6.85 6.85 0 0 1-.71 1.29 6.31 6.31 0 0 1-1.29.71z" style="mix-blend-mode:screen" fill="url(#radial-gradient-97)" opacity=".5"/>
          <path d="M71.26 31a.67.67 0 1 1 .67-.67.67.67 0 0 1-.67.67zm12.29 5.36a1.34 1.34 0 1 0-1.34 1.34 1.34 1.34 0 0 0 1.34-1.35zM67.47 39a2.69 2.69 0 1 0-2.68 2.68A2.68 2.68 0 0 0 67.47 39zm-3.13-23.2A1.34 1.34 0 1 0 63 17.14a1.34 1.34 0 0 0 1.34-1.34z" style="mix-blend-mode:screen" fill="url(#radial-gradient-98)"/>
          <path d="M119.28 148.39a.67.67 0 1 1-.61.73.68.68 0 0 1 .61-.73zm-12.7-4.3a1.34 1.34 0 0 0 2.68-.23 1.34 1.34 0 0 0-2.68.23zm15.81-4a2.68 2.68 0 1 0 2.44-2.89 2.68 2.68 0 0 0-2.44 2.85zm5.08 22.89a1.34 1.34 0 0 0 2.68-.22 1.34 1.34 0 0 0-2.68.22z" style="mix-blend-mode:screen" fill="url(#radial-gradient-99)"/>
          <path d="M124.85 318.56a12.31 12.31 0 0 0 2.61-.53 12.42 12.42 0 0 0 1.9-1.86 12.3 12.3 0 0 0 .54 2.6 12.13 12.13 0 0 0 1.86 1.91 11.86 11.86 0 0 0-2.61.54 12.47 12.47 0 0 0-1.9 1.85 12.42 12.42 0 0 0-.54-2.6 12.13 12.13 0 0 0-1.86-1.91z" style="mix-blend-mode:screen" fill="url(#radial-gradient-100)" opacity=".32"/>
          <path d="M88.68 298.67a20.32 20.32 0 0 0 4.34-.89 20.29 20.29 0 0 0 3.17-3.1 20.49 20.49 0 0 0 .9 4.34 20.29 20.29 0 0 0 3.1 3.17 20.49 20.49 0 0 0-4.34.9 20.47 20.47 0 0 0-3.18 3.1 20.32 20.32 0 0 0-.89-4.34 20.47 20.47 0 0 0-3.1-3.18z" style="mix-blend-mode:screen" fill="url(#radial-gradient-101)"/>
          <path d="M158.3 315.34a20.38 20.38 0 0 0 4.35-.89 20.76 20.76 0 0 0 3.17-3.1 20.49 20.49 0 0 0 .9 4.34 20.29 20.29 0 0 0 3.1 3.17 20.55 20.55 0 0 0-4.35.9 20.29 20.29 0 0 0-3.17 3.1 20.49 20.49 0 0 0-.9-4.34 20.47 20.47 0 0 0-3.1-3.18z" style="mix-blend-mode:screen" fill="url(#radial-gradient-102)" opacity=".32"/>
          <path d="M148.67 331.63a2 2 0 1 0-2.52 1.33 2 2 0 0 0 2.52-1.33z" style="mix-blend-mode:screen" fill="url(#radial-gradient-103)" opacity=".5"/>
          <path d="M33.53 330.68a6.54 6.54 0 0 1-1-1.06 6.32 6.32 0 0 1-.3-1.44 7 7 0 0 1-1.06 1 7.12 7.12 0 0 1-1.45.3 7.26 7.26 0 0 1 1 1.05A6.93 6.93 0 0 1 31 332a7 7 0 0 1 1.06-1 7.12 7.12 0 0 1 1.47-.32z" style="mix-blend-mode:screen" fill="url(#radial-gradient-104)" opacity=".5"/>
          <path d="M86.58 289a6.54 6.54 0 0 1-1-1.06 6.32 6.32 0 0 1-.3-1.44 6.54 6.54 0 0 1-1.06 1 6.93 6.93 0 0 1-1.44.3 7 7 0 0 1 1 1.06 6.93 6.93 0 0 1 .3 1.44 6.82 6.82 0 0 1 1-1 7.12 7.12 0 0 1 1.5-.3z" style="mix-blend-mode:screen" fill="url(#radial-gradient-105)" opacity=".5"/>
          <path d="M104.71 323.38a6.94 6.94 0 0 1-1-1.06 6.93 6.93 0 0 1-.3-1.44 7.32 7.32 0 0 1-1.05 1 7.12 7.12 0 0 1-1.45.3 6.82 6.82 0 0 1 1 1.05 6.48 6.48 0 0 1 .3 1.45 6.54 6.54 0 0 1 1.06-1 6.37 6.37 0 0 1 1.44-.3z" style="mix-blend-mode:screen" fill="url(#radial-gradient-106)" opacity=".5"/>
          <path d="M35.63 267.44a11.71 11.71 0 0 0 .19 2.65 12.5 12.5 0 0 0 1.58 2.14 12.18 12.18 0 0 0-2.65.18 12.26 12.26 0 0 0-2.13 1.59 12.34 12.34 0 0 0-.19-2.65 12 12 0 0 0-1.59-2.14 11.83 11.83 0 0 0 2.66-.21 12.32 12.32 0 0 0 2.13-1.56z" style="mix-blend-mode:screen" fill="url(#radial-gradient-107)" opacity=".32"/>
          <path d="M40.86 203.14a20.73 20.73 0 0 0 .31 4.42 20.67 20.67 0 0 0 2.65 3.56 20.08 20.08 0 0 0-4.42.31 20.16 20.16 0 0 0-3.56 2.65 20.16 20.16 0 0 0-.31-4.43 20.67 20.67 0 0 0-2.65-3.56 20.16 20.16 0 0 0 4.43-.31 20.06 20.06 0 0 0 3.55-2.64z" style="mix-blend-mode:screen" fill="url(#radial-gradient-108)" opacity=".32"/>
          <path d="M67 215.56a6.84 6.84 0 0 1 1.19-.88 6.62 6.62 0 0 1 1.47-.1 6.84 6.84 0 0 1-.88-1.19 6.62 6.62 0 0 1-.1-1.47 6.84 6.84 0 0 1-1.19.88 6.6 6.6 0 0 1-1.47.1 6.84 6.84 0 0 1 .88 1.19 6.6 6.6 0 0 1 .1 1.47z" style="mix-blend-mode:screen" fill="url(#radial-gradient-109)" opacity=".5"/>
          <path d="M43.69 237.65a.67.67 0 0 1-1.22-.56.67.67 0 0 1 1.22.56zm10-8.93a1.34 1.34 0 1 0 .66 1.78 1.34 1.34 0 0 0-.66-1.78zm-4.28 15.74a2.68 2.68 0 1 0 1.32 3.54 2.68 2.68 0 0 0-1.32-3.54zM27 237.61a1.34 1.34 0 1 0 .66 1.77 1.34 1.34 0 0 0-.66-1.77z" style="mix-blend-mode:screen" fill="url(#radial-gradient-110)"/>
          <path d="M83.31 388.2a8.35 8.35 0 0 1 1.24 1.4 8.49 8.49 0 0 1 .29 1.84 8.61 8.61 0 0 1 1.39-1.24 8.33 8.33 0 0 1 1.84-.28 8.85 8.85 0 0 1-1.23-1.4 8.49 8.49 0 0 1-.29-1.84 8.67 8.67 0 0 1-1.39 1.23 8.65 8.65 0 0 1-1.85.29z" style="mix-blend-mode:screen" fill="url(#radial-gradient-111)" opacity=".5"/>
          <path d="M13 363.35a.85.85 0 1 1 1.09-.51.86.86 0 0 1-1.09.51zM25.29 375a1.69 1.69 0 1 0-3.18-1.15 1.69 1.69 0 0 0 3.18 1.15zm-14-32.62a1.69 1.69 0 1 0-2.16 1 1.68 1.68 0 0 0 2.15-1.03z" style="mix-blend-mode:screen" fill="url(#radial-gradient-112)"/>
          <path d="M262.42 33.89a8.9 8.9 0 0 1-1.86-.18 8.44 8.44 0 0 1-1.46-1.15 8.9 8.9 0 0 1-.18 1.86 8.44 8.44 0 0 1-1.15 1.46 8.76 8.76 0 0 1 1.85.18 8.21 8.21 0 0 1 1.47 1.15 8.76 8.76 0 0 1 .18-1.85 8.21 8.21 0 0 1 1.15-1.47z" style="mix-blend-mode:screen" fill="url(#radial-gradient-113)" opacity=".5"/>
          <path d="M302.9 32.93a.85.85 0 1 1-.45 1.11.85.85 0 0 1 .45-1.11zm-16.9-.11a1.69 1.69 0 1 0 .89-2.22 1.7 1.7 0 0 0-.89 2.22zm17.33-11.1a3.38 3.38 0 1 0 1.77-4.44 3.38 3.38 0 0 0-1.79 4.44zm15.17 25.39a1.69 1.69 0 1 0 .88-2.22 1.69 1.69 0 0 0-.9 2.22z" style="mix-blend-mode:screen" fill="url(#radial-gradient-114)"/>
          <path d="M96.29 101.38a8.91 8.91 0 0 1 1.85-.23 8.81 8.81 0 0 1 1.68.81 8.4 8.4 0 0 1-.22-1.85 8.24 8.24 0 0 1 .81-1.68 8.91 8.91 0 0 1-1.85.23 8.81 8.81 0 0 1-1.68-.81 8.4 8.4 0 0 1 .22 1.85 8.24 8.24 0 0 1-.81 1.68z" style="mix-blend-mode:screen" fill="url(#radial-gradient-115)" opacity=".5"/>
          <path d="M57 111a.84.84 0 1 1 .2-1.18.85.85 0 0 1-.2 1.18zm16.55-3.52a1.69 1.69 0 1 0-.39 2.36 1.69 1.69 0 0 0 .35-2.36zM59 122a3.38 3.38 0 1 0-.78 4.72A3.38 3.38 0 0 0 59 122zm-20.29-21.5a1.7 1.7 0 1 0-.4 2.36 1.69 1.69 0 0 0 .4-2.36z" style="mix-blend-mode:screen" fill="url(#radial-gradient-116)"/>
          <path d="M25.3 308.09a.66.66 0 0 1-.51-.79.67.67 0 1 1 .51.79zm10.89 7.83a1.35 1.35 0 0 0-1-1.59 1.34 1.34 0 0 0-.59 2.67 1.35 1.35 0 0 0 1.59-1.08zm-14.47-24.14a1.33 1.33 0 0 0-1-1.59 1.34 1.34 0 1 0-.56 2.62 1.33 1.33 0 0 0 1.56-1.03z" style="mix-blend-mode:screen" fill="url(#radial-gradient-117)"/>
          <path d="M446.6 461.75a20.65 20.65 0 0 0 1.83-4 20.58 20.58 0 0 0-.65-4.39 20.16 20.16 0 0 0 4 1.82 20.09 20.09 0 0 0 4.39-.64 20.16 20.16 0 0 0-1.82 4 20.58 20.58 0 0 0 .65 4.39 20.31 20.31 0 0 0-4.05-1.82 20.09 20.09 0 0 0-4.35.64z" style="mix-blend-mode:screen" fill="url(#radial-gradient-118)"/>
          <path d="M364.43 452.51a20.44 20.44 0 0 0 1.82-4 20.09 20.09 0 0 0-.64-4.39 20.16 20.16 0 0 0 4 1.82 20.58 20.58 0 0 0 4.39-.65 20.31 20.31 0 0 0-1.82 4.05 20.08 20.08 0 0 0 .64 4.38 20.16 20.16 0 0 0-4-1.82 20.58 20.58 0 0 0-4.39.61z" style="mix-blend-mode:screen" fill="url(#radial-gradient-119)"/>
          <path d="M437.52 457.76a7 7 0 0 1-1.46.21 6.75 6.75 0 0 1-1.35-.6 6.88 6.88 0 0 1 .21 1.46 7 7 0 0 1-.6 1.35 6.74 6.74 0 0 1 1.46-.22 6.92 6.92 0 0 1 1.35.61 6.85 6.85 0 0 1-.22-1.46 6.65 6.65 0 0 1 .61-1.35z" style="mix-blend-mode:screen" fill="url(#radial-gradient-120)" opacity=".5"/>
          <path d="M476 463.27a2.59 2.59 0 0 1-2.8-.39 7 7 0 0 1 .21 1.46 6.65 6.65 0 0 1-.61 1.35 6.86 6.86 0 0 1 1.47-.22 7.42 7.42 0 0 1 1.34.61 6.88 6.88 0 0 1-.21-1.46 6.75 6.75 0 0 1 .6-1.35z" style="mix-blend-mode:screen" fill="url(#radial-gradient-121)" opacity=".5"/>
          <path d="M126.7 350.45a.66.66 0 0 1-.94-.05.67.67 0 1 1 .94.05zm12.73-4.22a1.34 1.34 0 1 0-.1 1.89 1.34 1.34 0 0 0 .1-1.89zM129.25 359a2.68 2.68 0 1 0-.2 3.79 2.67 2.67 0 0 0 .2-3.79zm-17.85-15.22a1.34 1.34 0 1 0-.11 1.89 1.35 1.35 0 0 0 .11-1.89z" style="mix-blend-mode:screen" fill="url(#radial-gradient-122)"/>
          <path d="M239.69 319.64a.69.69 0 0 1-.95-.05.67.67 0 1 1 .95.05zm12.72-4.23a1.34 1.34 0 1 0-.1 1.9 1.34 1.34 0 0 0 .1-1.9zm-10.17 12.75A2.68 2.68 0 1 0 242 332a2.69 2.69 0 0 0 .24-3.84zM224.38 313a1.34 1.34 0 1 0-.1 1.9 1.34 1.34 0 0 0 .1-1.9z" style="mix-blend-mode:screen" fill="url(#radial-gradient-123)"/>
          <path d="M409.72 106.44a12.31 12.31 0 0 0 2.61-.53 12.91 12.91 0 0 0 1.9-1.86 12.3 12.3 0 0 0 .54 2.6 12.13 12.13 0 0 0 1.86 1.91 11.86 11.86 0 0 0-2.61.54 12 12 0 0 0-1.9 1.85 12.42 12.42 0 0 0-.54-2.6 12.13 12.13 0 0 0-1.86-1.91z" style="mix-blend-mode:screen" fill="url(#radial-gradient-124)"/>
          <path d="M373.54 86.55a20.38 20.38 0 0 0 4.35-.89 20.76 20.76 0 0 0 3.17-3.1 20.49 20.49 0 0 0 .9 4.34 20.29 20.29 0 0 0 3.1 3.17 20.55 20.55 0 0 0-4.35.9 20.76 20.76 0 0 0-3.17 3.1 20.49 20.49 0 0 0-.9-4.34 20.47 20.47 0 0 0-3.1-3.18z" style="mix-blend-mode:screen" fill="url(#radial-gradient-125)" opacity=".32"/>
          <path d="M337.49 300.78a7 7 0 0 1-1-1.06 6.93 6.93 0 0 1-.3-1.44 7.32 7.32 0 0 1-1.05 1 7.12 7.12 0 0 1-1.45.3 6.82 6.82 0 0 1 1 1.05 7.12 7.12 0 0 1 .3 1.45 6.54 6.54 0 0 1 1.06-1 6.93 6.93 0 0 1 1.44-.3z" style="mix-blend-mode:screen" fill="url(#radial-gradient-126)" opacity=".5"/>
          <path d="M389.57 111.26a6.54 6.54 0 0 1-1-1.06 6.93 6.93 0 0 1-.3-1.44 7 7 0 0 1-1.06 1 6.93 6.93 0 0 1-1.44.3 6.82 6.82 0 0 1 1 1 7.12 7.12 0 0 1 .3 1.45 6.54 6.54 0 0 1 1.06-1 6.32 6.32 0 0 1 1.44-.25z" style="mix-blend-mode:screen" fill="url(#radial-gradient-127)" opacity=".5"/>
          <path d="M94.87 225.21a12.43 12.43 0 0 0-2.47 1 12.27 12.27 0 0 0-1.54 2.17 11.8 11.8 0 0 0-1-2.46 11.75 11.75 0 0 0-2.17-1.54 12.43 12.43 0 0 0 2.47-1 12.09 12.09 0 0 0 1.53-2.17 12.4 12.4 0 0 0 1 2.46 12.63 12.63 0 0 0 2.18 1.54z" style="mix-blend-mode:screen" fill="url(#radial-gradient-128)" opacity=".32"/>
          <path d="M213.75 182.57a12.43 12.43 0 0 0-2.47 1 12.27 12.27 0 0 0-1.54 2.17 12.05 12.05 0 0 0-1-2.47 12.09 12.09 0 0 0-2.17-1.53 12.43 12.43 0 0 0 2.47-1 12.46 12.46 0 0 0 1.53-2.17 12.4 12.4 0 0 0 1 2.46 12.63 12.63 0 0 0 2.18 1.54z" style="mix-blend-mode:screen" fill="url(#radial-gradient-129)" opacity=".32"/>
          <path fill="url(#radial-gradient-130)" d="M193.52 147.89a20.42 20.42 0 0 0-4.11 1.67 20.39 20.39 0 0 0-2.56 3.62 20.42 20.42 0 0 0-1.67-4.11 20.39 20.39 0 0 0-3.62-2.56 20.42 20.42 0 0 0 4.11-1.67 20.39 20.39 0 0 0 2.56-3.62 20.42 20.42 0 0 0 1.67 4.11 20.39 20.39 0 0 0 3.62 2.56z"/>
          <path d="M66.48 205.37a6.4 6.4 0 0 1 1.2.85 6.87 6.87 0 0 1 .56 1.37 6.74 6.74 0 0 1 .85-1.2 6.87 6.87 0 0 1 1.37-.56 6.74 6.74 0 0 1-1.2-.85 6.87 6.87 0 0 1-.56-1.37 6.4 6.4 0 0 1-.85 1.2 6.87 6.87 0 0 1-1.37.56z" style="mix-blend-mode:screen" fill="url(#radial-gradient-131)" opacity=".5"/>
          <path d="M189.79 176.56a6.73 6.73 0 0 1 1.21.85 6.87 6.87 0 0 1 .56 1.37 6.73 6.73 0 0 1 .85-1.21 7.34 7.34 0 0 1 1.37-.55 6.73 6.73 0 0 1-1.21-.85 6.69 6.69 0 0 1-.55-1.37 6.93 6.93 0 0 1-.86 1.2 6.87 6.87 0 0 1-1.37.56z" style="mix-blend-mode:screen" fill="url(#radial-gradient-132)" opacity=".5"/>
          <path d="M161.58 161.27a.67.67 0 1 1 .74-.59.67.67 0 0 1-.74.59zm11.59 6.73a1.34 1.34 0 1 0-1.49 1.18 1.34 1.34 0 0 0 1.49-1.18zm-16.29.81a2.68 2.68 0 1 0-3 2.36 2.68 2.68 0 0 0 3-2.35zm-.43-23.44a1.34 1.34 0 1 0-1.49 1.18 1.35 1.35 0 0 0 1.49-1.17z" style="mix-blend-mode:screen" fill="url(#radial-gradient-133)"/>
          <path d="M479.35 378.31a7 7 0 0 1-1-1.06 7.12 7.12 0 0 1-.3-1.45 6.54 6.54 0 0 1-1.06 1 6.32 6.32 0 0 1-1.44.3 7 7 0 0 1 1 1.06 7.12 7.12 0 0 1 .3 1.45 7.26 7.26 0 0 1 1-1 6.93 6.93 0 0 1 1.5-.3z" style="mix-blend-mode:screen" fill="url(#radial-gradient-134)" opacity=".5"/>
          <path d="M243.81 71a12.49 12.49 0 0 0 2.61-.54 12 12 0 0 0 1.9-1.86 12.3 12.3 0 0 0 .54 2.6 12.13 12.13 0 0 0 1.86 1.91 11.86 11.86 0 0 0-2.61.54 12.42 12.42 0 0 0-1.9 1.86 12.49 12.49 0 0 0-.54-2.61 12 12 0 0 0-1.86-1.9z" style="mix-blend-mode:screen" fill="url(#radial-gradient-135)" opacity=".32"/>
          <path fill="url(#radial-gradient-136)" d="M207.64 51.06a20.32 20.32 0 0 0 4.34-.89 20.29 20.29 0 0 0 3.17-3.1 20.49 20.49 0 0 0 .9 4.34 20.47 20.47 0 0 0 3.1 3.18 20.32 20.32 0 0 0-4.34.89 20.47 20.47 0 0 0-3.18 3.1 20.32 20.32 0 0 0-.89-4.34 20.47 20.47 0 0 0-3.1-3.18z"/>
          <path d="M314.83 96.1a20.49 20.49 0 0 0 4.34-.9 20.29 20.29 0 0 0 3.17-3.1 20.55 20.55 0 0 0 .9 4.35 20.29 20.29 0 0 0 3.1 3.17 20.49 20.49 0 0 0-4.34.9 20.47 20.47 0 0 0-3.18 3.1 20.38 20.38 0 0 0-.89-4.35 21.25 21.25 0 0 0-3.1-3.17z" style="mix-blend-mode:screen" fill="url(#radial-gradient-137)"/>
          <path d="M267.63 84a2 2 0 1 0-2.52 1.34 2 2 0 0 0 2.52-1.34z" style="mix-blend-mode:screen" fill="url(#radial-gradient-138)" opacity=".5"/>
          <path d="M190.05 111.44a6.54 6.54 0 0 1-1-1.06 7.12 7.12 0 0 1-.3-1.45 6.54 6.54 0 0 1-1.06 1 6.32 6.32 0 0 1-1.44.3 6.54 6.54 0 0 1 1 1.06 7.12 7.12 0 0 1 .3 1.45 6.54 6.54 0 0 1 1.06-1 6.32 6.32 0 0 1 1.44-.3z" style="mix-blend-mode:screen" fill="url(#radial-gradient-139)" opacity=".5"/>
          <path d="M205.54 41.36a6.82 6.82 0 0 1-1-1 6.48 6.48 0 0 1-.3-1.45 6.54 6.54 0 0 1-1.06 1 6.93 6.93 0 0 1-1.44.3 7 7 0 0 1 1 1.06 6.93 6.93 0 0 1 .3 1.44 6.82 6.82 0 0 1 1.05-1 7.12 7.12 0 0 1 1.45-.35z" style="mix-blend-mode:screen" fill="url(#radial-gradient-140)" opacity=".5"/>
          <path d="M223.67 75.77a6.94 6.94 0 0 1-1-1.06 6.93 6.93 0 0 1-.3-1.44 6.82 6.82 0 0 1-1.05 1 7.12 7.12 0 0 1-1.45.3 6.54 6.54 0 0 1 1 1.06 6.32 6.32 0 0 1 .3 1.44 6.54 6.54 0 0 1 1.06-1 7 7 0 0 1 1.44-.3z" style="mix-blend-mode:screen" fill="url(#radial-gradient-141)" opacity=".5"/>
          <path d="M179.18 58.43a.67.67 0 0 1 .29-1.31.67.67 0 1 1-.29 1.31zm10.89 7.83a1.34 1.34 0 0 0-2.62-.57 1.34 1.34 0 1 0 2.62.57zm-16.29-.76a2.68 2.68 0 1 0-3.19 2 2.69 2.69 0 0 0 3.19-2zm1.83-23.38a1.35 1.35 0 0 0-1-1.59 1.34 1.34 0 0 0-.57 2.62 1.34 1.34 0 0 0 1.57-1.03z" style="mix-blend-mode:screen" fill="url(#radial-gradient-142)"/>
          <path fill="url(#radial-gradient-143)" d="M254.89 364.34a20.32 20.32 0 0 0 4.34-.89 20.29 20.29 0 0 0 3.17-3.1 20.49 20.49 0 0 0 .9 4.34 20.29 20.29 0 0 0 3.1 3.17 20.49 20.49 0 0 0-4.34.9 20.47 20.47 0 0 0-3.18 3.1 20.32 20.32 0 0 0-.89-4.34 20.94 20.94 0 0 0-3.1-3.18z"/>
          <path d="M252.79 354.64a6.54 6.54 0 0 1-1-1.06 6.32 6.32 0 0 1-.3-1.44 6.54 6.54 0 0 1-1.06 1 7.12 7.12 0 0 1-1.45.3 2.63 2.63 0 0 1 1.34 2.5 6.82 6.82 0 0 1 1.05-1 7.12 7.12 0 0 1 1.42-.3z" style="mix-blend-mode:screen" fill="url(#radial-gradient-144)" opacity=".5"/>
          <path d="M270.91 389.05a6.54 6.54 0 0 1-1-1.06 6.93 6.93 0 0 1-.3-1.44 6.82 6.82 0 0 1-1.05 1 7.12 7.12 0 0 1-1.45.3 6.82 6.82 0 0 1 1 1.05 7.12 7.12 0 0 1 .3 1.45 6.54 6.54 0 0 1 1.06-1 6.93 6.93 0 0 1 1.44-.3z" style="mix-blend-mode:screen" fill="url(#radial-gradient-145)" opacity=".5"/>
        </g>
        <path d="M539.77 180.17l1.48 2.71 2.72 1.49-2.72 1.48-1.48 2.71-1.49-2.71-2.71-1.48 2.71-1.49 1.49-2.71zM480.3 126.19l1.49 2.71 2.71 1.49-2.71 1.48-1.49 2.72-1.48-2.72-2.71-1.48 2.71-1.49 1.48-2.71zM446.3 166.66l1.49 2.71 2.71 1.49-2.71 1.48-1.49 2.72-1.48-2.72-2.72-1.48 2.72-1.49 1.48-2.71zM370.04 97.39l1.48 2.72 2.72 1.48-2.72 1.49-1.48 2.71-1.49-2.71-2.71-1.49 2.71-1.48 1.49-2.72zM555.31 168.76l.74 1.35 1.36.75-1.36.74-.74 1.36-.74-1.36-1.36-.74 1.36-.75.74-1.35zM648.66 142.87l.74 1.36 1.36.74-1.36.74-.74 1.36-.74-1.36-1.36-.74 1.36-.74.74-1.36zM690.37 219.62l.74 1.36 1.36.74-1.36.74-.74 1.36-.74-1.36-1.36-.74 1.36-.74.74-1.36zM608.74 256.04l.74 1.36 1.36.74-1.36.74-.74 1.36-.74-1.36-1.36-.74 1.36-.74.74-1.36zM570.14 248.07l.75 1.36 1.35.74-1.35.75-.75 1.35-.74-1.35-1.36-.75 1.36-.74.74-1.36zM657.6 252.71l.74 1.35 1.36.75-1.36.74-.74 1.36-.74-1.36-1.36-.74 1.36-.75.74-1.35zM389.22 250.17l.74 1.36 1.36.74-1.36.74-.74 1.36-.75-1.36-1.35-.74 1.35-.74.75-1.36zM599.28 211.6l.74.72 1.36.4-1.36.4-.74.73-.74-.73-1.36-.4 1.36-.4.74-.72zM525.38 138.49l.5.92.92.5-.92.51-.5.92-.5-.92-.92-.51.92-.5.5-.92zM545.07 123.97l.28.52.52.28-.52.28-.28.51-.28-.51-.51-.28.51-.28.28-.52zM511.63 141.96l.28.51.52.29-.52.28-.28.51-.28-.51-.51-.28.51-.29.28-.51zM502.01 125.39l.28.52.51.28-.51.28-.28.51-.28-.51-.51-.28.51-.28.28-.52zM487.33 143.38l.28.52.52.28-.52.28-.28.51-.28-.51-.51-.28.51-.28.28-.52zM519.13 174.26l.28.52.52.28-.52.28-.28.51-.28-.51-.51-.28.51-.28.28-.52zM485.21 198.86l.29.51.51.29-.51.27-.29.52-.27-.52-.52-.27.52-.29.27-.51zM500.33 209.38l.28.51.52.29-.52.28-.28.51-.28-.51-.51-.28.51-.29.28-.51zM462.12 227.15l.28.52.51.28-.51.28-.28.51-.29-.51-.51-.28.51-.28.29-.52zM380.14 227.95l.28.51.51.28-.51.28-.28.51-.28-.51-.51-.28.51-.28.28-.51zM341.33 233.65l.28.51.52.28-.52.28-.28.52-.28-.52-.51-.28.51-.28.28-.51zM370.04 245.28l.28.51.51.28-.51.28-.28.51-.28-.51-.52-.28.52-.28.28-.51zM431 234.44l.28.52.52.28-.52.28-.28.51-.28-.51-.51-.28.51-.28.28-.52zM442.9 244.48l.28.52.51.28-.51.28-.28.51-.28-.51-.52-.28.52-.28.28-.52zM633.01 235.24l.28.51.52.28-.52.28-.28.52-.28-.52-.51-.28.51-.28.28-.51zM535.05 227.95l.29.51.51.28-.51.28-.29.51-.28-.51-.51-.28.51-.28.28-.51zM624.93 199.65l.29.52.51.28-.51.28-.29.51-.28-.51-.51-.28.51-.28.28-.52zM684.31 244.48l.28.52.51.28-.51.28-.28.51-.28-.51-.52-.28.52-.28.28-.52zM667.03 262.68l.28.52.51.28-.51.28-.28.51-.28-.51-.52-.28.52-.28.28-.52zM625.73 236.03l.28.52.51.28-.51.28-.28.51-.28-.51-.52-.28.52-.28.28-.52zM597.18 236.83l.28.51.51.28-.51.28-.28.51-.28-.51-.52-.28.52-.28.28-.51zM602.13 180.17l.28.51.52.28-.52.28-.28.51-.28-.51-.51-.28.51-.28.28-.51zM366.14 179.37l.28.52.52.28-.52.28-.28.51-.28-.51-.51-.28.51-.28.28-.52zM418.04 152.16l.28.52.51.28-.51.28-.28.51-.28-.51-.52-.28.52-.28.28-.52zM442.1 141.96l.28.51.52.29-.52.28-.28.51-.28-.51-.51-.28.51-.29.28-.51zM395.95 123.18l.28.51.51.28-.51.28-.28.52-.28-.52-.51-.28.51-.28.28-.51zM467.4 187.77l.28.51.51.28-.51.29-.28.51-.28-.51-.51-.29.51-.28.28-.51zM383.73 182.78l.28.51.52.28-.52.28-.28.52-.28-.52-.51-.28.51-.28.28-.51zM580.94 96.6l.28.51.52.28-.52.28-.28.52-.28-.52-.51-.28.51-.28.28-.51zM685.1 100.8l.28.51.51.28-.51.29-.28.51-.28-.51-.51-.29.51-.28.28-.51zM657.6 162.63l.28.52.51.28-.51.28-.28.51-.28-.51-.52-.28.52-.28.28-.52zM617.95 80l.28.51.52.29-.52.28-.28.51-.28-.51-.51-.28.51-.29.28-.51zM678.31 141.17l.28.51.51.28-.51.28-.28.52-.28-.52-.52-.28.52-.28.28-.51zM384.53 133.79l.28.52.51.28-.51.28-.28.51-.28-.51-.52-.28.52-.28.28-.52zM461.32 206.49l.28.52.52.28-.52.28-.28.51-.28-.51-.51-.28.51-.28.28-.52zM553.21 213.06l.28.51.51.28-.51.28-.28.51-.28-.51-.52-.28.52-.28.28-.51zM571.99 183.57l.28.52.51.28-.51.28-.28.51-.28-.51-.52-.28.52-.28.28-.52zM579.03 220.13l.29.52.51.28-.51.28-.29.51-.28-.51-.51-.28.51-.28.28-.52zM673.22 245.28l.28.51.51.28-.51.28-.28.51-.28-.51-.52-.28.52-.28.28-.51zM525.99 98.75l.5.92.92.5-.92.5-.5.92-.5-.92-.92-.5.92-.5.5-.92zM555.31 141.33l.5.92.92.51-.92.5-.5.92-.5-.92-.92-.5.92-.51.5-.92zM617.95 100.97l.51.92.91.5-.91.5-.51.92-.5-.92-.92-.5.92-.5.5-.92zM679.1 125.56l.51.92.91.5-.91.5-.51.92-.5-.92-.92-.5.92-.5.5-.92zM635.23 177.95l.5.92.92.51-.92.5-.5.92-.5-.92-.92-.5.92-.51.5-.92zM507.22 197.11l.5.92.92.5-.92.5-.5.92-.5-.92-.92-.5.92-.5.5-.92zM423.88 110.78l.5.92.92.5-.92.5-.5.92-.51-.92-.92-.5.92-.5.51-.92zM465.98 146.14l.5.92.92.5-.92.5-.5.92-.5-.92-.92-.5.92-.5.5-.92zM483.79 187.15l.51.91.92.51-.92.5-.51.92-.5-.92-.92-.5.92-.51.5-.91zM495.06 174.43l.5.92.92.5-.92.5-.5.92-.5-.92-.92-.5.92-.5.5-.92zM412.88 210.18l.5.91.92.51-.92.5-.5.92-.51-.92-.92-.5.92-.51.51-.91zM585.73 139.91l.5.92.92.51-.92.5-.5.92-.5-.92-.92-.5.92-.51.5-.92zM532.1 167.34l.5.91.92.51-.92.5-.5.92-.5-.92-.92-.5.92-.51.5-.91zM486.57 357.03l-1.31 2.41-2.41 1.32 2.41 1.32 1.31 2.41 1.32-2.41 2.41-1.32-2.41-1.32-1.32-2.41zM539.35 309.13l-1.32 2.41-2.41 1.32 2.41 1.31 1.32 2.41 1.31-2.41 2.41-1.31-2.41-1.32-1.31-2.41zM569.52 345.04l-1.31 2.41-2.41 1.32 2.41 1.32 1.31 2.41 1.32-2.41 2.41-1.32-2.41-1.32-1.32-2.41zM637.2 283.57l-1.31 2.41-2.41 1.32 2.41 1.32 1.31 2.41 1.32-2.41 2.41-1.32-2.41-1.32-1.32-2.41zM472.78 346.91l-.66 1.2-1.2.66 1.2.66.66 1.2.66-1.2 1.2-.66-1.2-.66-.66-1.2zM389.93 323.93l-.66 1.21-1.2.66 1.2.65.66 1.21.66-1.21 1.21-.65-1.21-.66-.66-1.21zM352.92 392.05l-.66 1.2-1.21.66 1.21.66.66 1.2.65-1.2 1.21-.66-1.21-.66-.65-1.2zM425.36 424.37l-.66 1.2-1.2.66 1.2.66.66 1.21.66-1.21 1.2-.66-1.2-.66-.66-1.2zM459.62 417.3l-.67 1.2-1.2.66 1.2.66.67 1.2.65-1.2 1.21-.66-1.21-.66-.65-1.2zM382 421.41l-.66 1.21-1.2.65 1.2.66.66 1.21.66-1.21 1.21-.66-1.21-.65-.66-1.21zM620.18 419.16l-.66 1.21-1.2.65 1.2.66.66 1.21.66-1.21 1.21-.66-1.21-.65-.66-1.21zM433.76 384.93l-.66.64-1.2.36 1.2.35.66.64.66-.64 1.2-.35-1.2-.36-.66-.64zM499.34 320.05l-.44.81-.82.45.82.44.44.82.45-.82.81-.44-.81-.45-.45-.81zM481.87 307.16l-.25.46-.46.25.46.25.25.45.24-.45.46-.25-.46-.25-.24-.46zM511.54 323.13l-.25.45-.45.25.45.25.25.46.25-.46.46-.25-.46-.25-.25-.45zM520.08 308.42l-.25.46-.45.25.45.25.25.45.25-.45.45-.25-.45-.25-.25-.46zM533.11 324.39l-.25.45-.46.25.46.25.25.46.25-.46.45-.25-.45-.25-.25-.45zM504.88 351.79l-.24.46-.46.25.46.25.24.45.25-.45.46-.25-.46-.25-.25-.46zM534.99 373.62l-.25.46-.46.25.46.25.25.45.25-.45.45-.25-.45-.25-.25-.46zM521.57 382.96l-.25.46-.45.24.45.25.25.46.25-.46.46-.25-.46-.24-.25-.46zM555.49 398.73l-.25.46-.46.25.46.25.25.45.25-.45.45-.25-.45-.25-.25-.46zM628.24 399.44l-.25.45-.46.25.46.25.25.45.25-.45.45-.25-.45-.25-.25-.45zM662.68 404.5l-.25.45-.45.25.45.25.25.46.25-.46.45-.25-.45-.25-.25-.45zM637.2 414.82l-.24.45-.46.25.46.25.24.45.25-.45.46-.25-.46-.25-.25-.45zM583.1 405.2l-.25.46-.45.25.45.25.25.45.25-.45.45-.25-.45-.25-.25-.46zM572.54 414.11l-.25.46-.45.25.45.24.25.46.25-.46.46-.24-.46-.25-.25-.46zM403.82 405.91l-.25.45-.45.25.45.25.25.46.25-.46.45-.25-.45-.25-.25-.45zM490.76 399.44l-.25.45-.46.25.46.25.25.45.25-.45.45-.25-.45-.25-.25-.45zM410.99 374.33l-.25.45-.45.25.45.25.25.46.25-.46.45-.25-.45-.25-.25-.45zM358.3 414.11l-.25.46-.46.25.46.24.25.46.25-.46.45-.24-.45-.25-.25-.46zM373.63 430.26l-.25.46-.45.25.45.25.25.45.25-.45.46-.25-.46-.25-.25-.46zM410.29 406.61l-.25.46-.46.25.46.24.25.46.25-.46.45-.24-.45-.25-.25-.46zM435.62 407.32l-.25.45-.45.25.45.25.25.46.25-.46.46-.25-.46-.25-.25-.45zM431.22 357.03l-.24.46-.46.25.46.25.24.45.25-.45.46-.25-.46-.25-.25-.46zM640.66 356.33l-.25.45-.45.25.45.25.25.46.25-.46.45-.25-.45-.25-.25-.45zM594.61 332.18l-.25.46-.46.25.46.24.25.46.24-.46.46-.24-.46-.25-.24-.46zM573.25 323.13l-.25.45-.46.25.46.25.25.46.25-.46.45-.25-.45-.25-.25-.45zM614.21 306.46l-.25.45-.46.25.46.25.25.46.25-.46.45-.25-.45-.25-.25-.45zM550.8 363.78l-.25.46-.45.25.45.25.25.45.25-.45.45-.25-.45-.25-.25-.46zM625.05 359.35l-.25.46-.45.25.45.25.25.45.25-.45.45-.25-.45-.25-.25-.46zM450.03 282.87l-.25.46-.45.24.45.25.25.46.25-.46.46-.25-.46-.24-.25-.46zM357.59 286.6l-.25.45-.45.25.45.25.25.46.25-.46.46-.25-.46-.25-.25-.45zM382 341.47l-.25.46-.45.25.45.25.25.45.25-.45.46-.25-.46-.25-.25-.46zM417.19 268.14l-.25.45-.46.25.46.25.25.46.25-.46.45-.25-.45-.25-.25-.45zM363.62 322.42l-.25.46-.45.25.45.25.25.45.25-.45.46-.25-.46-.25-.25-.46zM624.35 315.88l-.25.45-.46.25.46.25.25.46.24-.46.46-.25-.46-.25-.24-.45zM556.19 380.4l-.25.45-.45.25.45.25.25.46.25-.46.46-.25-.46-.25-.25-.45zM474.65 386.22l-.26.46-.45.24.45.25.26.46.24-.46.46-.25-.46-.24-.24-.46zM457.98 360.06l-.25.45-.46.25.46.25.25.45.25-.45.45-.25-.45-.25-.25-.45zM451.72 392.5l-.25.46-.45.25.45.24.25.46.25-.46.46-.24-.46-.25-.25-.46zM368.14 414.82l-.25.45-.45.25.45.25.25.45.25-.45.46-.25-.46-.25-.25-.45zM498.8 284.78l-.44.82-.82.44.82.45.44.81.45-.81.81-.45-.81-.44-.45-.82zM472.78 322.57l-.45.81-.81.45.81.45.45.81.45-.81.81-.45-.81-.45-.45-.81zM458.62 217.69l-1.32 2.41-2.41 1.31 2.41 1.32 1.32 2.41 1.32-2.41 2.41-1.32-2.41-1.31-1.32-2.41zM418.62 228.61l-.45.81-.81.45.81.45.45.81.44-.81.82-.45-.82-.45-.44-.81zM401.14 215.72l-.25.46-.45.25.45.25.25.45.25-.45.45-.25-.45-.25-.25-.46zM430.82 231.69l-.25.45-.46.25.46.25.25.46.25-.46.45-.25-.45-.25-.25-.45zM439.36 216.98l-.25.46-.46.25.46.25.25.45.25-.45.45-.25-.45-.25-.25-.46zM452.38 232.95l-.25.45-.45.25.45.25.25.46.25-.46.46-.25-.46-.25-.25-.45zM418.08 193.34l-.45.82-.82.44.82.45.45.81.44-.81.82-.45-.82-.44-.44-.82zM392.06 231.13l-.45.82-.81.44.81.45.45.81.44-.81.82-.45-.82-.44-.44-.82zM506.82 253.53l-.45.81-.82.45.82.44.45.82.44-.82.82-.44-.82-.45-.44-.81zM489.34 240.64l-.25.46-.46.24.46.25.25.46.25-.46.45-.25-.45-.24-.25-.46zM519.01 256.61l-.25.45-.45.25.45.25.25.45.25-.45.46-.25-.46-.25-.25-.45zM506.27 218.26l-.44.81-.82.45.82.44.44.82.45-.82.81-.44-.81-.45-.45-.81zM480.25 256.05l-.44.81-.82.45.82.44.44.82.45-.82.81-.44-.81-.45-.45-.81zM557.55 277.8l-.44.81-.82.45.82.44.44.82.45-.82.82-.44-.82-.45-.45-.81zM540.08 264.91l-.25.46-.46.24.46.25.25.46.25-.46.45-.25-.45-.24-.25-.46zM569.75 280.87l-.25.46-.45.25.45.25.25.45.25-.45.46-.25-.46-.25-.25-.46zM557.01 242.53l-.44.81-.82.45.82.44.44.82.45-.82.81-.44-.81-.45-.45-.81zM530.99 280.32l-.44.81-.82.45.82.44.44.82.45-.82.81-.44-.81-.45-.45-.81zM417.19 286.75l-.45.81-.82.45.82.44.45.82.44-.82.82-.44-.82-.45-.44-.81zM362.92 308.57l-.45.82-.82.44.82.45.45.81.44-.81.82-.45-.82-.44-.44-.82zM401.85 355.07l-.44.81-.82.45.82.44.44.82.45-.82.82-.44-.82-.45-.45-.81zM515.46 372.07l-.45.81-.81.45.81.44.45.82.44-.82.82-.44-.82-.45-.44-.81zM589.42 295.45l-.44.82-.82.44.82.45.44.82.45-.82.82-.45-.82-.44-.45-.82zM552.06 326.83l-.45.82-.81.44.81.45.45.81.44-.81.82-.45-.82-.44-.44-.82zM536.25 363.23l-.45.81-.81.45.81.44.45.82.44-.82.82-.44-.82-.45-.44-.81zM526.25 351.94l-.44.81-.82.45.82.45.44.81.45-.81.81-.45-.81-.45-.45-.81zM599.19 383.66l-.45.82-.81.45.81.44.45.82.44-.82.82-.44-.82-.45-.44-.82zM445.78 321.31l-.44.82-.82.44.82.45.44.81.45-.81.81-.45-.81-.44-.45-.82zM493.38 345.65l-.45.81-.81.45.81.44.45.82.44-.82.82-.44-.82-.45-.44-.81zM634.68 22.83l1.07 1.96 1.97 1.08-1.97 1.08-1.07 1.97-1.08-1.97-1.96-1.08 1.96-1.08 1.08-1.96zM578.71 11.28l1.08 1.96 1.97 1.08-1.97 1.08-1.08 1.96-1.08-1.96-1.96-1.08 1.96-1.08 1.08-1.96zM705.52 18l1.08 1.96 1.97 1.08-1.97 1.07-1.08 1.97-1.07-1.97-1.97-1.07 1.97-1.08 1.07-1.96zM316.36 14.32l1.08 1.97 1.96 1.07-1.96 1.08-1.08 1.97-1.08-1.97-1.97-1.08 1.97-1.07 1.08-1.97zM288.55 7.22l.4.74.75.41-.75.41-.4.74-.41-.74-.74-.41.74-.41.41-.74zM394.2 6.07l.4.74.75.41-.75.41-.4.74-.41-.74-.74-.41.74-.41.41-.74zM744.25 6.07l.41.74.74.41-.74.41-.41.74-.41-.74-.74-.41.74-.41.41-.74zM719.2 32.46l.4.74.75.41-.75.41-.4.74-.41-.74-.74-.41.74-.41.41-.74zM728.17 7.22l.41.74.74.41-.74.41-.41.74-.41-.74-.74-.41.74-.41.41-.74zM457.53 169.27l-1.91 3.49-3.49 1.92 3.49 1.91 1.91 3.49 1.91-3.49 3.49-1.91-3.49-1.92-1.91-3.49zM534.05 99.81l-1.91 3.49-3.49 1.91 3.49 1.91 1.91 3.49 1.91-3.49 3.49-1.91-3.49-1.91-1.91-3.49zM577.81 151.88l-1.91 3.5-3.5 1.91 3.5 1.91 1.91 3.49 1.91-3.49 3.49-1.91-3.49-1.91-1.91-3.5zM675.95 62.75l-1.91 3.5-3.49 1.91 3.49 1.91 1.91 3.49 1.91-3.49 3.49-1.91-3.49-1.91-1.91-3.5zM437.53 154.59l-.95 1.74-1.75.96 1.75.95.95 1.75.96-1.75 1.74-.95-1.74-.96-.96-1.74zM317.4 121.27l-.96 1.75-1.75.96 1.75.95.96 1.75.95-1.75 1.75-.95-1.75-.96-.95-1.75zM263.72 220.04l-.96 1.75-1.74.96 1.74.95.96 1.74.96-1.74 1.74-.95-1.74-.96-.96-1.75zM368.77 266.91l-.96 1.75-1.74.95 1.74.96.96 1.74.95-1.74 1.75-.96-1.75-.95-.95-1.75zM418.44 256.66l-.96 1.75-1.74.95 1.74.96.96 1.74.95-1.74 1.75-.96-1.75-.95-.95-1.75zM305.9 262.62l-.96 1.75-1.74.95 1.74.96.96 1.74.95-1.74 1.75-.96-1.75-.95-.95-1.75zM651.27 259.36l-.96 1.75-1.74.95 1.74.96.96 1.74.95-1.74 1.75-.96-1.75-.95-.95-1.75zM380.95 209.72l-.96.93-1.74.51 1.74.52.96.93.95-.93 1.75-.52-1.75-.51-.95-.93zM476.05 115.64l-.65 1.18-1.18.65 1.18.65.65 1.18.64-1.18 1.19-.65-1.19-.65-.64-1.18zM450.7 96.96l-.36.66-.66.36.66.36.36.66.36-.66.66-.36-.66-.36-.36-.66zM493.74 120.11l-.37.66-.66.36.66.36.37.66.36-.66.66-.36-.66-.36-.36-.66zM506.12 98.78l-.37.66-.65.37.65.36.37.66.36-.66.66-.36-.66-.37-.36-.66zM525.01 121.93l-.37.66-.65.36.65.37.37.66.36-.66.66-.37-.66-.36-.36-.66zM484.08 161.67l-.36.66-.66.36.66.36.36.66.36-.66.66-.36-.66-.36-.36-.66zM527.73 193.33l-.36.66-.66.36.66.36.36.66.36-.66.66-.36-.66-.36-.36-.66zM508.28 206.87l-.36.66-.66.36.66.36.36.66.36-.66.66-.36-.66-.36-.36-.66zM557.46 229.74l-.36.66-.67.36.67.36.36.66.36-.66.66-.36-.66-.36-.36-.66zM662.95 230.76l-.36.66-.66.36.66.36.36.66.36-.66.66-.36-.66-.36-.36-.66zM712.89 238.1l-.36.66-.66.36.66.36.36.66.36-.66.66-.36-.66-.36-.36-.66zM675.95 253.06l-.36.66-.66.36.66.36.36.66.36-.66.66-.36-.66-.36-.36-.66zM597.5 239.12l-.37.66-.65.36.65.36.37.66.36-.66.66-.36-.66-.36-.36-.66zM582.19 252.04l-.36.66-.66.36.66.36.36.66.36-.66.66-.36-.66-.36-.36-.66zM337.53 240.14l-.36.66-.66.36.66.36.36.66.36-.66.66-.36-.66-.36-.36-.66zM463.6 230.76l-.37.66-.66.36.66.36.37.66.36-.66.66-.36-.66-.36-.36-.66zM347.93 194.35l-.36.66-.66.36.66.36.36.66.36-.66.66-.36-.66-.36-.36-.66zM271.52 252.04l-.36.66-.66.36.66.36.36.66.37-.66.66-.36-.66-.36-.37-.66zM293.76 275.46l-.36.66-.66.36.66.36.36.66.36-.66.66-.36-.66-.36-.36-.66zM346.91 241.16l-.36.66-.66.36.66.36.36.66.36-.66.66-.36-.66-.36-.36-.66zM383.65 242.18l-.36.66-.66.37.66.35.36.67.36-.67.66-.35-.66-.37-.36-.66zM377.27 169.27l-.36.66-.66.36.66.36.36.66.36-.66.66-.36-.66-.36-.36-.66zM680.96 168.25l-.36.66-.66.36.66.36.36.66.36-.66.66-.36-.66-.36-.36-.66zM614.18 133.24l-.36.66-.66.36.66.36.36.66.36-.66.66-.36-.66-.36-.36-.66zM583.21 120.11l-.36.66-.66.36.66.36.36.66.36-.66.66-.36-.66-.36-.36-.66zM642.61 95.93l-.37.67-.66.36.66.36.37.66.36-.66.66-.36-.66-.36-.36-.67zM550.66 179.06l-.36.66-.66.36.66.36.36.66.36-.66.66-.36-.66-.36-.36-.66zM658.33 172.63l-.37.66-.66.36.66.36.37.67.36-.67.66-.36-.66-.36-.36-.66zM404.54 61.73l-.36.66-.66.36.66.36.36.66.36-.66.66-.36-.66-.36-.36-.66zM270.5 67.14l-.36.66-.66.36.66.36.36.66.36-.66.66-.36-.66-.36-.36-.66zM305.9 146.71l-.36.66-.66.36.66.36.36.66.36-.66.66-.36-.66-.36-.36-.66zM356.91 40.37l-.36.66-.66.36.66.36.36.66.37-.66.66-.36-.66-.36-.37-.66zM279.24 119.08l-.36.66-.66.37.66.36.36.66.36-.66.66-.36-.66-.37-.36-.66zM657.3 109.59l-.36.66-.66.36.66.36.36.66.36-.66.67-.36-.67-.36-.36-.66zM558.48 203.15l-.36.66-.66.36.66.36.36.66.36-.66.66-.36-.66-.36-.36-.66zM440.23 211.59l-.36.66-.66.36.66.36.36.66.36-.66.66-.36-.66-.36-.36-.66zM416.07 173.65l-.36.66-.67.37.67.36.36.66.36-.66.66-.36-.66-.37-.36-.66zM407 220.7l-.37.66-.66.36.66.36.37.67.36-.67.66-.36-.66-.36-.36-.66zM285.8 253.06l-.36.66-.67.36.67.36.36.66.36-.66.66-.36-.66-.36-.36-.66zM475.26 64.5l-.64 1.18-1.19.65 1.19.64.64 1.19.65-1.19 1.18-.64-1.18-.65-.65-1.18zM437.53 119.3l-.65 1.18-1.18.65 1.18.64.65 1.18.65-1.18 1.18-.64-1.18-.65-.65-1.18zM486.88 19.18l-.64 1.18-1.19.65 1.19.65.64 1.18.65-1.18 1.18-.65-1.18-.65-.65-1.18zM461.54.5l-.36.66-.66.36.66.36.36.66.36-.66.66-.36-.66-.36-.36-.66zM504.57 23.64l-.36.66-.66.37.66.36.36.66.36-.66.66-.36-.66-.37-.36-.66zM448.37 22.84l-.65 1.18-1.18.65 1.18.64.65 1.18.64-1.18 1.18-.64-1.18-.65-.64-1.18zM560.46 54.37l-.65 1.18-1.18.65 1.18.65.65 1.18.64-1.18 1.18-.65-1.18-.65-.64-1.18zM535.11 35.69l-.36.66-.66.36.66.36.36.66.36-.66.66-.36-.66-.36-.36-.66zM578.14 58.84l-.36.66-.66.36.66.36.36.66.37-.66.65-.36-.65-.36-.37-.66zM559.67 3.23l-.65 1.18-1.18.65 1.18.65.65 1.18.64-1.18 1.19-.65-1.19-.65-.64-1.18zM521.94 58.03l-.65 1.18-1.18.65 1.18.64.65 1.19.64-1.19 1.19-.64-1.19-.65-.64-1.18zM356.91 67.35l-.64 1.18-1.19.65 1.19.64.64 1.19.65-1.19 1.18-.64-1.18-.65-.65-1.18zM278.22 99l-.65 1.18-1.18.65 1.18.64.65 1.19.65-1.19 1.18-.64-1.18-.65-.65-1.18zM334.68 166.42l-.64 1.18-1.19.65 1.19.65.64 1.18.65-1.18 1.18-.65-1.18-.65-.65-1.18zM499.42 191.07l-.65 1.18-1.18.65 1.18.64.65 1.19.64-1.19 1.18-.64-1.18-.65-.64-1.18zM606.67 79.98l-.65 1.18-1.18.65 1.18.64.65 1.18.65-1.18 1.18-.64-1.18-.65-.65-1.18zM552.49 125.48l-.65 1.18-1.18.65 1.18.64.65 1.18.64-1.18 1.19-.64-1.19-.65-.64-1.18zM529.56 178.25l-.65 1.18-1.18.65 1.18.64.65 1.19.65-1.19 1.18-.64-1.18-.65-.65-1.18zM515.07 161.88l-.65 1.19-1.18.64 1.18.65.65 1.18.64-1.18 1.18-.65-1.18-.64-.64-1.19zM620.82 207.89l-.64 1.18-1.18.65 1.18.64.64 1.18.65-1.18 1.18-.64-1.18-.65-.65-1.18zM398.38 117.47l-.65 1.18-1.18.65 1.18.64.65 1.19.65-1.19 1.18-.64-1.18-.65-.65-1.18zM467.39 152.76l-.64 1.18-1.19.65 1.19.64.64 1.18.65-1.18 1.18-.64-1.18-.65-.65-1.18z" class="cls-151"/>
        <g id="Meteors" style="mix-blend-mode:overlay">
          <g class="cls-153">
            <path fill="url(#linear-gradient-2)" d="M299 95.1a11.75 11.75 0 0 1 1.83-1.16l2.2-1.35 4.4-2.7 3.82-2.35C315.38 85 402.43 20.73 403.56 20c-1.77 1.75-88.69 69.6-92.16 73l-4.5 4.34a38 38 0 0 1-3.11 3 3.59 3.59 0 0 1-5.36-4.53 2.92 2.92 0 0 1 .57-.71z" opacity=".7"/>
            <path fill="url(#linear-gradient-3)" d="M299.64 96.22c.77-.72 94.31-68.65 95.05-69.1-1.16 1.12-91.15 71.93-91.88 72.48a2.36 2.36 0 0 1-3.81-1.54 2.32 2.32 0 0 1 .37-1.58 1.86 1.86 0 0 1 .27-.26z" opacity=".7"/>
            <path d="M302.34 99.52s-2.13.73-2.21-1" style="mix-blend-mode:screen" fill="url(#linear-gradient-4)" stroke="#e600e9" stroke-linecap="round" stroke-linejoin="round" stroke-width=".57"/>
          </g>
          <g class="cls-153">
            <path fill="url(#linear-gradient-5)" d="M473.63 37.54a11.66 11.66 0 0 1 1.82-1.16l2.2-1.35 4.4-2.7 3.83-2.33c4.17-2.56 91.23-66.81 92.35-67.5-1.77 1.71-88.69 69.56-92.16 72.91l-4.5 4.34a39.59 39.59 0 0 1-3.1 3 3.58 3.58 0 0 1-5.36-4.53 2.44 2.44 0 0 1 .52-.68z" opacity=".7"/>
            <path fill="url(#linear-gradient-6)" d="M474.31 38.66c.77-.72 94.32-68.64 95.05-69.1-1.16 1.12-91.15 71.93-91.88 72.49a2.35 2.35 0 0 1-3.76-1.55 2.31 2.31 0 0 1 .36-1.58 2.85 2.85 0 0 1 .23-.26z" opacity=".7"/>
            <path d="M477 42s-2.12.72-2.21-1" style="mix-blend-mode:screen" fill="url(#linear-gradient-7)" stroke="#e600e9" stroke-linecap="round" stroke-linejoin="round" stroke-width=".57"/>
          </g>
          <g class="cls-160">
            <path fill="url(#linear-gradient-8)" d="M530.71 286.58a14.92 14.92 0 0 1 2.28-1.46l2.75-1.69 5.51-3.38 4.79-2.94c5.22-3.2 24.86-16.58 26.27-17.45-2.22 2.14-21.69 20-26 24.22l-5.63 5.44a48.62 48.62 0 0 1-3.88 3.72 4.48 4.48 0 0 1-6.71-5.67 3.08 3.08 0 0 1 .62-.79z" opacity=".7"/>
            <path fill="url(#linear-gradient-9)" d="M531.57 288c1-.9 28.72-18.88 29.64-19.44-1.45 1.4-24.77 23-25.68 23.68a2.93 2.93 0 0 1-4.25-3.91 2.28 2.28 0 0 1 .29-.33z" opacity=".7"/>
            <path d="M534.94 292.11s-2.65.91-2.76-1.28" style="mix-blend-mode:screen" fill="url(#linear-gradient-10)" stroke="#e600e9" stroke-linecap="round" stroke-linejoin="round" stroke-width=".41"/>
          </g>
          <g class="cls-160">
            <path fill="url(#linear-gradient-11)" d="M219.81 237.4a15 15 0 0 1 2.29-1.46l2.75-1.69 5.5-3.37 4.79-2.94c5.23-3.21 100.27-74.69 101.68-75.55-2.22 2.14-97.1 78.13-101.43 82.31l-5.64 5.44a50.58 50.58 0 0 1-3.88 3.73 4.49 4.49 0 0 1-6.71-5.67 3.17 3.17 0 0 1 .65-.8z" opacity=".7"/>
            <path fill="url(#linear-gradient-12)" d="M220.67 238.8c1-.9 104.13-77 105.05-77.55-1.45 1.4-100.17 81.08-101.08 81.78a2.94 2.94 0 0 1-4.71-1.93 2.9 2.9 0 0 1 .46-2 2.79 2.79 0 0 1 .28-.3z" opacity=".7"/>
            <path d="M224.05 242.93s-2.66.91-2.77-1.27" style="mix-blend-mode:screen" fill="url(#linear-gradient-13)" stroke="#e600e9" stroke-linecap="round" stroke-linejoin="round" stroke-width=".41"/>
          </g>
        </g>
        <path fill="url(#Degradado_sin_nombre_23)" d="M708.64 105.25l-76.83 66.46a5.27 5.27 0 0 1-7.21-.44 4.74 4.74 0 0 1 .5-6.9l79.27-63.78z"/>
        <path fill="#fff772" d="M628.4 164.56l1.03 2.55 2.79.62-2.23 1.74.23 2.73-2.41-1.48-2.64 1.07.73-2.65-1.86-2.07 2.86-.17 1.5-2.34z"/>
      </g>
    </g>
  </g>
</svg>
