<svg xmlns="http://www.w3.org/2000/svg" xmlns:xlink="http://www.w3.org/1999/xlink" viewBox="0 0 960 480">
  <defs>
    <style>
      .cls-6,.cls-8{fill:#f3a300}.cls-6{mix-blend-mode:screen}.cls-7{opacity:.7}.cls-108,.cls-165,.cls-48,.cls-8,.cls-91{opacity:.5}.cls-108,.cls-165,.cls-48,.cls-63,.cls-8,.cls-91{mix-blend-mode:multiply}.cls-28{fill:#fff}.cls-63{fill:#777676}.cls-48{fill:#2d1c43}.cls-63{opacity:.2}.cls-91{fill:url(#radial-gradient-36)}.cls-108{fill:url(#radial-gradient-54)}.cls-165{fill:url(#radial-gradient-112)}
    </style>
    <clipPath id="clip-path">
      <path fill="none" d="M0 0h960v480H0z"/>
    </clipPath>
    <radialGradient id="radial-gradient" cx="306.33" cy="290.15" r="67.48" gradientTransform="rotate(82.04 306.33 290.13)" gradientUnits="userSpaceOnUse">
      <stop offset="0" stop-color="#f3a300"/>
      <stop offset=".38" stop-color="#f3a300" stop-opacity=".99"/>
      <stop offset=".51" stop-color="#f3a300" stop-opacity=".96"/>
      <stop offset=".61" stop-color="#f3a300" stop-opacity=".92"/>
      <stop offset=".69" stop-color="#f3a300" stop-opacity=".85"/>
      <stop offset=".75" stop-color="#f3a300" stop-opacity=".76"/>
      <stop offset=".81" stop-color="#f3a300" stop-opacity=".64"/>
      <stop offset=".87" stop-color="#f3a300" stop-opacity=".51"/>
      <stop offset=".92" stop-color="#f3a300" stop-opacity=".35"/>
      <stop offset=".96" stop-color="#f3a300" stop-opacity=".19"/>
      <stop offset="1" stop-color="#f3a300" stop-opacity="0"/>
    </radialGradient>
    <radialGradient id="radial-gradient-2" cx="551.04" cy="762.17" r="647.03" gradientTransform="rotate(53.18 408.7 743.14)" gradientUnits="userSpaceOnUse">
      <stop offset="0" stop-color="#f07"/>
      <stop offset=".37" stop-color="#fe0077" stop-opacity=".99"/>
      <stop offset=".51" stop-color="#fb0279" stop-opacity=".97"/>
      <stop offset=".6" stop-color="#f5057c" stop-opacity=".92"/>
      <stop offset=".68" stop-color="#ed0a7f" stop-opacity=".85"/>
      <stop offset=".75" stop-color="#e21084" stop-opacity=".77"/>
      <stop offset=".8" stop-color="#d4178a" stop-opacity=".66"/>
      <stop offset=".86" stop-color="#c42091" stop-opacity=".53"/>
      <stop offset=".91" stop-color="#b22a99" stop-opacity=".39"/>
      <stop offset=".95" stop-color="#9c35a3" stop-opacity=".22"/>
      <stop offset=".99" stop-color="#8642ad" stop-opacity=".04"/>
      <stop offset="1" stop-color="#8144af" stop-opacity="0"/>
    </radialGradient>
    <radialGradient id="radial-gradient-3" cx="692.07" cy="252.29" r="1133.96" gradientTransform="rotate(45 415.87 625.67)" gradientUnits="userSpaceOnUse">
      <stop offset="0" stop-color="#f07" stop-opacity=".7"/>
      <stop offset=".17" stop-color="#f8047a" stop-opacity=".72"/>
      <stop offset=".37" stop-color="#e50e83" stop-opacity=".76"/>
      <stop offset=".58" stop-color="#c42091" stop-opacity=".84"/>
      <stop offset=".81" stop-color="#9738a5" stop-opacity=".95"/>
      <stop offset=".9" stop-color="#8144af"/>
    </radialGradient>
    <radialGradient id="radial-gradient-4" cx="-44.41" cy="-327.25" r="1188.55" gradientTransform="matrix(1.23 .57 -.5 1.08 264.92 -63.5)" gradientUnits="userSpaceOnUse">
      <stop offset=".05" stop-color="#f3a300"/>
      <stop offset=".41" stop-color="#f3a201" stop-opacity=".99"/>
      <stop offset=".54" stop-color="#f39f07" stop-opacity=".96"/>
      <stop offset=".63" stop-color="#f29910" stop-opacity=".92"/>
      <stop offset=".7" stop-color="#f2901c" stop-opacity=".85"/>
      <stop offset=".77" stop-color="#f1852d" stop-opacity=".76"/>
      <stop offset=".82" stop-color="#f17842" stop-opacity=".64"/>
      <stop offset=".87" stop-color="#f0675a" stop-opacity=".51"/>
      <stop offset=".92" stop-color="#ee5477" stop-opacity=".35"/>
      <stop offset=".96" stop-color="#ed4096" stop-opacity=".19"/>
      <stop offset="1" stop-color="#ec29b8" stop-opacity="0"/>
    </radialGradient>
    <radialGradient id="radial-gradient-5" cx="543.18" cy="179.62" r="110.09" gradientTransform="rotate(90 517.04 292)" gradientUnits="userSpaceOnUse">
      <stop offset="0" stop-color="#f07"/>
      <stop offset=".14" stop-color="#fa0379"/>
      <stop offset=".31" stop-color="#ec0a80"/>
      <stop offset=".49" stop-color="#d4178a"/>
      <stop offset=".67" stop-color="#b32999"/>
      <stop offset=".87" stop-color="#8840ac"/>
      <stop offset=".9" stop-color="#8144af"/>
    </radialGradient>
    <radialGradient id="radial-gradient-6" cx="543.18" cy="179.62" r="110.09" gradientTransform="rotate(8.1 -254.12 286.3)" xlink:href="#radial-gradient-5"/>
    <radialGradient id="radial-gradient-7" cx="699.92" cy="272.18" r="129.93" gradientTransform="matrix(.53 .85 -1.5 .93 774.24 -415.72)" xlink:href="#radial-gradient-5"/>
    <radialGradient id="radial-gradient-8" cx="-1323.95" cy="-374.12" r="165.38" gradientTransform="rotate(-155.52 -232.46 -79.58)" xlink:href="#radial-gradient-5"/>
    <radialGradient id="radial-gradient-9" cx="-196.88" cy="877.67" r="198.18" gradientTransform="matrix(.36 -.93 .93 .36 -757.66 87.66)" xlink:href="#radial-gradient-5"/>
    <radialGradient id="radial-gradient-10" cx="-196.88" cy="877.67" r="198.19" gradientTransform="matrix(.36 -.93 .93 .36 -757.66 87.66)" xlink:href="#radial-gradient-5"/>
    <radialGradient id="radial-gradient-11" cx="680.42" cy="-369.65" r="142.31" gradientTransform="rotate(90 377.12 154.7)" xlink:href="#radial-gradient-5"/>
    <radialGradient id="radial-gradient-12" cx="680.42" cy="-369.65" r="142.31" gradientTransform="rotate(49.03 -100.77 218.86)" xlink:href="#radial-gradient-5"/>
    <radialGradient id="radial-gradient-13" cx="-30.89" cy="753.52" r="103.68" gradientTransform="rotate(-30.7 -596.32 228.46)" xlink:href="#radial-gradient-5"/>
    <radialGradient id="radial-gradient-14" cx="-30.89" cy="753.52" r="103.68" gradientTransform="rotate(-30.7 -596.32 228.46)" xlink:href="#radial-gradient-5"/>
    <linearGradient id="linear-gradient" x1="509.68" x2="497.24" y1="253.36" y2="397.36" gradientUnits="userSpaceOnUse">
      <stop offset=".19" stop-color="#892512"/>
      <stop offset=".9" stop-color="#230028" stop-opacity="0"/>
    </linearGradient>
    <linearGradient id="Degradado_sin_nombre_4" x1="440.44" x2="451.1" y1="262.66" y2="262.66" gradientUnits="userSpaceOnUse">
      <stop offset="0" stop-color="#36204c"/>
      <stop offset="1" stop-color="#583681"/>
    </linearGradient>
    <linearGradient id="Degradado_sin_nombre_4-2" x1="445.46" x2="451.1" y1="262.32" y2="262.32" xlink:href="#Degradado_sin_nombre_4"/>
    <linearGradient id="Degradado_sin_nombre_4-3" x1="440.44" x2="447.1" y1="262.94" y2="262.94" xlink:href="#Degradado_sin_nombre_4"/>
    <linearGradient id="Degradado_sin_nombre_6" x1="539.41" x2="580.58" y1="208.02" y2="208.02" gradientUnits="userSpaceOnUse">
      <stop offset="0" stop-color="#e4dae5"/>
      <stop offset="1" stop-color="#f7f3f8"/>
    </linearGradient>
    <linearGradient id="Degradado_sin_nombre_4-4" x1="527.43" x2="539.41" y1="235.49" y2="235.49" xlink:href="#Degradado_sin_nombre_4"/>
    <linearGradient id="Degradado_sin_nombre_4-5" x1="527.43" x2="539.41" y1="233.18" y2="233.18" xlink:href="#Degradado_sin_nombre_4"/>
    <linearGradient id="Degradado_sin_nombre_6-2" x1="433.53" x2="535.73" y1="244.8" y2="244.8" xlink:href="#Degradado_sin_nombre_6"/>
    <linearGradient id="Degradado_sin_nombre_5" x1="475.81" x2="482.94" y1="277.19" y2="277.19" gradientUnits="userSpaceOnUse">
      <stop offset="0" stop-color="#ceb8d4" stop-opacity=".9"/>
      <stop offset="1" stop-color="#ceb8d4" stop-opacity=".3"/>
    </linearGradient>
    <linearGradient id="Degradado_sin_nombre_2" x1="431.66" x2="521.91" y1="159.3" y2="159.3" gradientUnits="userSpaceOnUse">
      <stop offset="0" stop-color="#281f6f"/>
      <stop offset="1" stop-color="#00014a"/>
    </linearGradient>
    <linearGradient id="Degradado_sin_nombre_6-3" x1="431.66" x2="521.91" y1="146.27" y2="146.27" xlink:href="#Degradado_sin_nombre_6"/>
    <linearGradient id="Degradado_sin_nombre_4-6" x1="441.92" x2="511.66" y1="203.03" y2="203.03" xlink:href="#Degradado_sin_nombre_4"/>
    <linearGradient id="Degradado_sin_nombre_4-7" x1="441.92" x2="511.65" y1="201.25" y2="201.25" xlink:href="#Degradado_sin_nombre_4"/>
    <linearGradient id="Degradado_sin_nombre_4-8" x1="441.92" x2="511.65" y1="204.5" y2="204.5" xlink:href="#Degradado_sin_nombre_4"/>
    <linearGradient id="Degradado_sin_nombre_4-9" x1="466.02" x2="478.3" y1="292.47" y2="292.47" xlink:href="#Degradado_sin_nombre_4"/>
    <linearGradient id="linear-gradient-2" x1="484.53" x2="531.63" y1="110.64" y2="158.13" gradientUnits="userSpaceOnUse">
      <stop offset="0" stop-color="#fff"/>
      <stop offset="1" stop-color="#fff" stop-opacity="0"/>
    </linearGradient>
    <linearGradient id="linear-gradient-3" x1="432.18" x2="464.39" y1="143.13" y2="195.15" xlink:href="#linear-gradient-2"/>
    <linearGradient id="Degradado_sin_nombre_4-10" x1="499.82" x2="512.36" y1="241.99" y2="241.99" xlink:href="#Degradado_sin_nombre_4"/>
    <linearGradient id="Degradado_sin_nombre_4-11" x1="500.88" x2="511.19" y1="213.16" y2="213.16" xlink:href="#Degradado_sin_nombre_4"/>
    <linearGradient id="Degradado_sin_nombre_4-12" x1="505.99" x2="511.19" y1="206.34" y2="206.34" xlink:href="#Degradado_sin_nombre_4"/>
    <linearGradient id="Degradado_sin_nombre_4-13" x1="508.88" x2="512.36" y1="246.1" y2="246.1" xlink:href="#Degradado_sin_nombre_4"/>
    <linearGradient id="Degradado_sin_nombre_4-14" x1="446.49" x2="456.79" y1="213.16" y2="213.16" xlink:href="#Degradado_sin_nombre_4"/>
    <linearGradient id="Degradado_sin_nombre_4-15" x1="446.49" x2="451.69" y1="206.34" y2="206.34" xlink:href="#Degradado_sin_nombre_4"/>
    <linearGradient id="Degradado_sin_nombre_4-16" x1="473.57" x2="478.3" y1="292.34" y2="292.34" xlink:href="#Degradado_sin_nombre_4"/>
    <linearGradient id="Degradado_sin_nombre_4-17" x1="466.02" x2="471.02" y1="292.72" y2="292.72" xlink:href="#Degradado_sin_nombre_4"/>
    <linearGradient id="Degradado_sin_nombre_4-18" x1="480.8" x2="493.08" y1="292.47" y2="292.47" xlink:href="#Degradado_sin_nombre_4"/>
    <linearGradient id="Degradado_sin_nombre_4-19" x1="480.8" x2="484.75" y1="292.33" y2="292.33" xlink:href="#Degradado_sin_nombre_4"/>
    <linearGradient id="Degradado_sin_nombre_4-20" x1="487.9" x2="493.08" y1="292.72" y2="292.72" xlink:href="#Degradado_sin_nombre_4"/>
    <linearGradient id="Degradado_sin_nombre_6-4" x1="451.09" x2="503.36" y1="227.34" y2="227.34" xlink:href="#Degradado_sin_nombre_6"/>
    <linearGradient id="Degradado_sin_nombre_6-5" x1="451.09" x2="503.36" y1="206.16" y2="206.16" xlink:href="#Degradado_sin_nombre_6"/>
    <linearGradient id="Degradado_sin_nombre_5-2" x1="443.4" x2="447.19" y1="244.6" y2="244.6" xlink:href="#Degradado_sin_nombre_5"/>
    <linearGradient id="Degradado_sin_nombre_5-3" x1="513.29" x2="527.82" y1="232.92" y2="232.92" xlink:href="#Degradado_sin_nombre_5"/>
    <radialGradient id="radial-gradient-15" cx="389.6" cy="764.72" r="33.17" gradientTransform="rotate(-36.69 -251.82 149.4)" gradientUnits="userSpaceOnUse">
      <stop offset="0" stop-color="#52e1ee"/>
      <stop offset=".62" stop-color="#3e8def"/>
      <stop offset=".7" stop-color="#3f8cee" stop-opacity=".99"/>
      <stop offset=".75" stop-color="#4189ec" stop-opacity=".95"/>
      <stop offset=".79" stop-color="#4585e8" stop-opacity=".89"/>
      <stop offset=".84" stop-color="#4b7ee2" stop-opacity=".8"/>
      <stop offset=".87" stop-color="#5376db" stop-opacity=".69"/>
      <stop offset=".91" stop-color="#5d6cd2" stop-opacity=".54"/>
      <stop offset=".94" stop-color="#685fc7" stop-opacity=".38"/>
      <stop offset=".97" stop-color="#7552bb" stop-opacity=".19"/>
      <stop offset="1" stop-color="#8144af" stop-opacity="0"/>
    </radialGradient>
    <radialGradient id="radial-gradient-16" cx="392.71" cy="739.16" r="57.82" gradientTransform="rotate(44.95 1120.86 803)" gradientUnits="userSpaceOnUse">
      <stop offset="0" stop-color="#52e1ee"/>
      <stop offset=".62" stop-color="#3e8def"/>
      <stop offset=".64" stop-color="#4487e9"/>
      <stop offset=".75" stop-color="#6562ca"/>
      <stop offset=".84" stop-color="#7a4cb6"/>
      <stop offset=".9" stop-color="#8144af"/>
    </radialGradient>
    <radialGradient id="radial-gradient-17" cx="293.98" cy="629.67" r="54.98" gradientTransform="matrix(1.26 -.5 .44 1.1 -62.29 -328.41)" xlink:href="#radial-gradient-16"/>
    <radialGradient id="radial-gradient-18" cx="392.01" cy="739.46" r="43.02" gradientTransform="rotate(-36.69 -251.82 149.4)" xlink:href="#radial-gradient-16"/>
    <radialGradient id="radial-gradient-19" cx="392.01" cy="739.46" r="43.02" gradientTransform="rotate(-36.69 -251.82 149.4)" xlink:href="#radial-gradient-16"/>
    <radialGradient id="radial-gradient-20" cx="392.01" cy="739.46" r="43.03" gradientTransform="rotate(-36.69 -251.82 149.4)" xlink:href="#radial-gradient-16"/>
    <radialGradient id="radial-gradient-21" cx="392.01" cy="739.46" r="43.02" gradientTransform="rotate(-36.69 -251.82 149.4)" xlink:href="#radial-gradient-16"/>
    <radialGradient id="radial-gradient-22" cx="392.66" cy="747.05" r="50.61" gradientTransform="rotate(-36.69 -251.82 149.4)" xlink:href="#radial-gradient-16"/>
    <radialGradient id="radial-gradient-23" cx="392.32" cy="762.57" r="37.21" gradientTransform="rotate(-36.69 -251.82 149.4)" xlink:href="#radial-gradient-16"/>
    <radialGradient id="radial-gradient-24" cx="387.54" cy="733.94" r="12.89" gradientTransform="rotate(-36.69 -251.82 149.4)" xlink:href="#radial-gradient-16"/>
    <radialGradient id="radial-gradient-25" cx="387.54" cy="733.94" r="12.89" gradientTransform="rotate(-36.69 -251.82 149.4)" xlink:href="#radial-gradient-16"/>
    <radialGradient id="radial-gradient-26" cx="-48.22" cy="-570.56" r="12.89" gradientTransform="rotate(64.56 -339.17 394.6)" xlink:href="#radial-gradient-16"/>
    <radialGradient id="radial-gradient-27" cx="-48.22" cy="-570.56" r="12.89" gradientTransform="rotate(64.56 -339.17 394.6)" xlink:href="#radial-gradient-16"/>
    <radialGradient id="radial-gradient-28" cx="-1084.67" cy="-176.11" r="12.89" gradientTransform="rotate(139.75 -299.86 368.34)" xlink:href="#radial-gradient-16"/>
    <radialGradient id="radial-gradient-29" cx="-1084.67" cy="-176.11" r="12.89" gradientTransform="rotate(139.75 -299.86 368.34)" xlink:href="#radial-gradient-16"/>
    <radialGradient id="radial-gradient-30" cx="-1232.8" cy="368.8" r="15.45" gradientTransform="matrix(-1 .05 -.09 -1.77 -564.33 998.15)" xlink:href="#radial-gradient-16"/>
    <radialGradient id="radial-gradient-31" cx="377.73" cy="759.34" r="19.67" gradientTransform="rotate(-36.69 -251.82 149.4)" xlink:href="#radial-gradient-16"/>
    <radialGradient id="radial-gradient-32" cx="532.26" cy="566.62" r="9.95" gradientTransform="matrix(.92 -.39 .7 1.62 -266.87 -470.05)" xlink:href="#radial-gradient-16"/>
    <radialGradient id="radial-gradient-33" cx="-894.39" cy="-503.96" r="12.66" gradientTransform="rotate(123.03 -335.92 287.28)" xlink:href="#radial-gradient-16"/>
    <radialGradient id="radial-gradient-34" cx="-615.59" cy="-58.22" r="12.48" gradientTransform="matrix(-.24 .97 -1.71 -.43 405.26 828.95)" xlink:href="#radial-gradient-16"/>
    <radialGradient id="radial-gradient-35" cx="-554.69" cy="1047.62" r="15.89" gradientTransform="rotate(-109.6 -236.01 236.47)" xlink:href="#radial-gradient-16"/>
    <radialGradient id="radial-gradient-36" cx="-216.88" cy="1325.19" r="10.16" gradientTransform="rotate(-90.47 -334.17 386.6)" xlink:href="#radial-gradient-16"/>
    <radialGradient id="radial-gradient-38" cx="-1079.16" cy="828.36" r="12.89" gradientTransform="rotate(-157.19 -282.94 387.8)" xlink:href="#radial-gradient-16"/>
    <radialGradient id="radial-gradient-39" cx="-1079.16" cy="828.36" r="12.89" gradientTransform="rotate(-157.19 -282.94 387.8)" xlink:href="#radial-gradient-16"/>
    <radialGradient id="radial-gradient-40" cx="537.41" cy="275.04" r="7.29" gradientTransform="rotate(-6.74 203.74 -495.06)" xlink:href="#radial-gradient-16"/>
    <radialGradient id="radial-gradient-41" cx="537.41" cy="275.04" r="7.29" gradientTransform="rotate(-6.74 203.74 -495.06)" xlink:href="#radial-gradient-16"/>
    <radialGradient id="radial-gradient-42" cx="-972.85" cy="-271.75" r="7.29" gradientTransform="rotate(129.24 -288.1 388.24)" xlink:href="#radial-gradient-16"/>
    <radialGradient id="radial-gradient-43" cx="-972.85" cy="-271.75" r="7.29" gradientTransform="rotate(129.24 -288.1 388.24)" xlink:href="#radial-gradient-16"/>
    <radialGradient id="radial-gradient-44" cx="-979.18" cy="1153.28" r="7.29" gradientTransform="rotate(-129.52 -390.8 342.42)" xlink:href="#radial-gradient-16"/>
    <radialGradient id="radial-gradient-45" cx="-979.18" cy="1153.28" r="7.29" gradientTransform="rotate(-129.52 -390.8 342.42)" xlink:href="#radial-gradient-16"/>
    <radialGradient id="radial-gradient-46" cx="-1431.3" cy="151.14" r="7.29" gradientTransform="rotate(156.45 -407.19 434.95)" xlink:href="#radial-gradient-16"/>
    <radialGradient id="radial-gradient-47" cx="-1431.3" cy="151.14" r="7.29" gradientTransform="rotate(156.45 -407.19 434.95)" xlink:href="#radial-gradient-16"/>
    <radialGradient id="radial-gradient-48" cx="387.72" cy="-291.51" r="5.6" gradientTransform="rotate(32.43 -389.36 420.97)" xlink:href="#radial-gradient-16"/>
    <radialGradient id="radial-gradient-49" cx="387.72" cy="-291.51" r="5.6" gradientTransform="rotate(32.43 -389.36 420.97)" xlink:href="#radial-gradient-16"/>
    <radialGradient id="radial-gradient-50" cx="-421.84" cy="-580.34" r="5.6" gradientTransform="rotate(92.91 -279.35 352.84)" xlink:href="#radial-gradient-16"/>
    <radialGradient id="radial-gradient-51" cx="-421.84" cy="-580.35" r="5.6" gradientTransform="rotate(92.91 -279.35 352.84)" xlink:href="#radial-gradient-16"/>
    <radialGradient id="radial-gradient-52" cx="-829.23" cy="1055.36" r="3.82" gradientTransform="scale(-1) rotate(35.3 1369.53 720.31)" xlink:href="#radial-gradient-16"/>
    <radialGradient id="radial-gradient-53" cx="-829.23" cy="1055.36" r="3.82" gradientTransform="scale(-1) rotate(35.3 1369.53 720.31)" xlink:href="#radial-gradient-16"/>
    <radialGradient id="radial-gradient-54" cx="329.83" cy="934.09" r="3.82" gradientTransform="matrix(.35 -.94 1.63 .6 -1021.08 -.54)" xlink:href="#radial-gradient-16"/>
    <radialGradient id="radial-gradient-56" cx="838.88" cy="658.41" r="3.81" gradientTransform="rotate(-15.01 -867.03 1264.1)" xlink:href="#radial-gradient-16"/>
    <radialGradient id="radial-gradient-57" cx="838.88" cy="658.41" r="3.82" gradientTransform="rotate(-15.01 -867.03 1264.1)" xlink:href="#radial-gradient-16"/>
    <radialGradient id="radial-gradient-58" cx="207.36" cy="-23.31" r="3.04" gradientTransform="matrix(.34 .94 -1.54 .56 542.33 65.62)" xlink:href="#radial-gradient-16"/>
    <radialGradient id="radial-gradient-59" cx="207.36" cy="-23.31" r="3.04" gradientTransform="matrix(.34 .94 -1.54 .56 542.33 65.62)" xlink:href="#radial-gradient-16"/>
    <radialGradient id="radial-gradient-60" cx="-125.32" cy="1199.16" r="7.29" gradientTransform="rotate(-75.23 -376.02 255.26)" xlink:href="#radial-gradient-16"/>
    <radialGradient id="radial-gradient-61" cx="-125.32" cy="1199.16" r="7.29" gradientTransform="rotate(-75.23 -376.02 255.26)" xlink:href="#radial-gradient-16"/>
    <radialGradient id="radial-gradient-62" cx="85.71" cy="1255.39" r="16.9" gradientTransform="matrix(.4 -.92 .76 .33 -348.55 -76.33)" xlink:href="#radial-gradient-16"/>
    <radialGradient id="radial-gradient-63" cx="85.7" cy="1255.39" r="16.9" gradientTransform="matrix(.4 -.92 .76 .33 -348.55 -76.33)" xlink:href="#radial-gradient-16"/>
    <radialGradient id="radial-gradient-64" cx="288.9" cy="-395.69" r="18.86" gradientTransform="matrix(.89 .45 -.37 .74 222.13 431.98)" xlink:href="#radial-gradient-16"/>
    <radialGradient id="radial-gradient-65" cx="292.17" cy="-390.46" r="11.4" gradientTransform="matrix(.89 .45 -.37 .74 222.13 431.98)" xlink:href="#radial-gradient-16"/>
    <radialGradient id="radial-gradient-66" cx="38.55" cy="-678.59" r="9.28" gradientTransform="matrix(.69 .72 -.6 .57 181.53 630.62)" xlink:href="#radial-gradient-16"/>
    <radialGradient id="radial-gradient-67" cx="36.26" cy="-738.88" r="13.51" gradientTransform="matrix(.69 .72 -.6 .57 181.53 630.62)" xlink:href="#radial-gradient-16"/>
    <radialGradient id="radial-gradient-68" cx="39.01" cy="-734.37" r="8.84" gradientTransform="matrix(.69 .72 -.6 .57 181.53 630.62)" xlink:href="#radial-gradient-16"/>
    <radialGradient id="radial-gradient-69" cx="462.26" cy="71.64" r="16.9" gradientTransform="matrix(1 .03 -.03 .83 172.15 199.84)" xlink:href="#radial-gradient-16"/>
    <radialGradient id="radial-gradient-70" cx="462.26" cy="71.64" r="16.9" gradientTransform="matrix(1 .03 -.03 .83 172.15 199.84)" xlink:href="#radial-gradient-16"/>
    <radialGradient id="radial-gradient-71" cx="456.21" cy="71.7" r="16.9" gradientTransform="matrix(1 .03 -.03 .83 172.15 199.84)" xlink:href="#radial-gradient-16"/>
    <radialGradient id="radial-gradient-72" cx="-273.75" cy="1142.05" r="102.2" gradientTransform="rotate(-84 -350.47 222.02)" xlink:href="#radial-gradient-16"/>
    <radialGradient id="radial-gradient-73" cx="604.79" cy="79.16" r="19.74" gradientTransform="rotate(13.18 605.14 79.3)" gradientUnits="userSpaceOnUse">
      <stop offset=".06" stop-color="#ffe080"/>
      <stop offset=".41" stop-color="#ffdf81" stop-opacity=".99"/>
      <stop offset=".54" stop-color="#ffdd84" stop-opacity=".97"/>
      <stop offset=".63" stop-color="#ffd98a" stop-opacity=".92"/>
      <stop offset=".7" stop-color="#ffd393" stop-opacity=".85"/>
      <stop offset=".76" stop-color="#ffcb9e" stop-opacity=".77"/>
      <stop offset=".82" stop-color="#ffc2ab" stop-opacity=".66"/>
      <stop offset=".87" stop-color="#ffb7bb" stop-opacity=".53"/>
      <stop offset=".91" stop-color="#ffaace" stop-opacity=".39"/>
      <stop offset=".96" stop-color="#ff9be4" stop-opacity=".22"/>
      <stop offset=".99" stop-color="#ff8bfa" stop-opacity=".04"/>
      <stop offset="1" stop-color="#f8f" stop-opacity="0"/>
    </radialGradient>
    <radialGradient id="radial-gradient-74" cx="606.64" cy="63.95" r="34.42" gradientTransform="rotate(16.99 604.8 79.2)" gradientUnits="userSpaceOnUse">
      <stop offset=".06" stop-color="#ffe080"/>
      <stop offset=".96" stop-color="#f8f"/>
    </radialGradient>
    <radialGradient id="radial-gradient-75" cx="324.96" cy="43.11" r="32.73" gradientTransform="matrix(1.31 .35 -.31 1.15 184.83 -120.64)" xlink:href="#radial-gradient-74"/>
    <radialGradient id="radial-gradient-76" cx="606.22" cy="64.13" r="25.61" xlink:href="#radial-gradient-74"/>
    <radialGradient id="radial-gradient-77" cx="606.22" cy="64.13" r="25.61" xlink:href="#radial-gradient-74"/>
    <radialGradient id="radial-gradient-78" cx="606.22" cy="64.13" r="25.61" xlink:href="#radial-gradient-74"/>
    <radialGradient id="radial-gradient-79" cx="606.22" cy="64.13" r="25.61" xlink:href="#radial-gradient-74"/>
    <radialGradient id="radial-gradient-80" cx="606.61" cy="68.65" r="30.13" xlink:href="#radial-gradient-74"/>
    <radialGradient id="radial-gradient-81" cx="606.4" cy="77.88" r="22.15" xlink:href="#radial-gradient-74"/>
    <radialGradient id="radial-gradient-82" cx="603.56" cy="60.84" r="7.67" xlink:href="#radial-gradient-74"/>
    <radialGradient id="radial-gradient-83" cx="603.56" cy="60.84" r="7.67" xlink:href="#radial-gradient-74"/>
    <radialGradient id="radial-gradient-84" cx="-761.09" cy="-635.77" r="7.67" gradientTransform="rotate(101.24 -362.72 290.84)" xlink:href="#radial-gradient-74"/>
    <radialGradient id="radial-gradient-85" cx="-761.09" cy="-635.77" r="7.67" gradientTransform="rotate(101.24 -362.72 290.84)" xlink:href="#radial-gradient-74"/>
    <radialGradient id="radial-gradient-86" cx="-1340.5" cy="505.42" r="7.67" gradientTransform="rotate(176.44 -359.57 330.41)" xlink:href="#radial-gradient-74"/>
    <radialGradient id="radial-gradient-87" cx="-1340.5" cy="505.42" r="7.67" gradientTransform="rotate(176.44 -359.57 330.41)" xlink:href="#radial-gradient-74"/>
    <radialGradient id="radial-gradient-88" cx="-1030.13" cy="763.98" r="9.2" gradientTransform="matrix(-.83 -.56 .98 -1.47 -1009.22 642.35)" xlink:href="#radial-gradient-74"/>
    <radialGradient id="radial-gradient-89" cx="597.72" cy="75.96" r="11.71" xlink:href="#radial-gradient-74"/>
    <radialGradient id="radial-gradient-90" cx="583.71" cy="166.73" r="5.92" gradientTransform="matrix(.97 .23 -.41 1.72 106.3 -357.08)" xlink:href="#radial-gradient-74"/>
    <radialGradient id="radial-gradient-91" cx="-1331.42" cy="63.34" r="7.54" gradientTransform="rotate(159.71 -362.3 242.94)" xlink:href="#radial-gradient-74"/>
    <radialGradient id="radial-gradient-92" cx="-1211.76" cy="171.2" r="7.43" gradientTransform="matrix(-.78 .63 -1.12 -1.37 -130.79 1086.87)" xlink:href="#radial-gradient-74"/>
    <radialGradient id="radial-gradient-93" cx="167.25" cy="1051.31" r="9.46" gradientTransform="rotate(-72.91 -268.84 270.75)" xlink:href="#radial-gradient-74"/>
    <radialGradient id="radial-gradient-94" cx="464.3" cy="1105.78" r="6.05" gradientTransform="rotate(-53.79 -492.63 462.88)" xlink:href="#radial-gradient-74"/>
    <radialGradient id="radial-gradient-95" cx="464.3" cy="1105.78" r="6.05" gradientTransform="rotate(-53.79 -492.63 462.88)" xlink:href="#radial-gradient-74"/>
    <radialGradient id="radial-gradient-96" cx="-595.3" cy="1374.88" r="7.67" gradientTransform="rotate(-120.7 -369.92 393.3)" xlink:href="#radial-gradient-74"/>
    <radialGradient id="radial-gradient-97" cx="-595.3" cy="1374.88" r="7.67" gradientTransform="rotate(-120.7 -369.92 393.3)" xlink:href="#radial-gradient-74"/>
    <radialGradient id="radial-gradient-98" cx="382.74" cy="-413.77" r="4.34" gradientTransform="rotate(29.94 -394.87 255.4)" xlink:href="#radial-gradient-74"/>
    <radialGradient id="radial-gradient-99" cx="382.74" cy="-413.77" r="4.34" gradientTransform="rotate(29.94 -394.87 255.4)" xlink:href="#radial-gradient-74"/>
    <radialGradient id="radial-gradient-100" cx="-1347.42" cy="353.21" r="4.34" gradientTransform="rotate(165.92 -352.04 345.52)" xlink:href="#radial-gradient-74"/>
    <radialGradient id="radial-gradient-101" cx="-1347.42" cy="353.21" r="4.34" gradientTransform="rotate(165.92 -352.04 345.52)" xlink:href="#radial-gradient-74"/>
    <radialGradient id="radial-gradient-102" cx="-304.42" cy="1414.66" r="4.34" gradientTransform="rotate(-92.84 -492.84 323.72)" xlink:href="#radial-gradient-74"/>
    <radialGradient id="radial-gradient-103" cx="-304.42" cy="1414.66" r="4.34" gradientTransform="rotate(-92.84 -492.84 323.72)" xlink:href="#radial-gradient-74"/>
    <radialGradient id="radial-gradient-104" cx="-1484.33" cy="879.83" r="4.34" gradientTransform="rotate(-166.86 -485.95 368.28)" xlink:href="#radial-gradient-74"/>
    <radialGradient id="radial-gradient-105" cx="-1484.33" cy="879.83" r="4.34" gradientTransform="rotate(-166.86 -485.95 368.28)" xlink:href="#radial-gradient-74"/>
    <radialGradient id="radial-gradient-106" cx="-177.55" cy="-725.3" r="3.33" gradientTransform="rotate(69.11 -358.58 255.08)" xlink:href="#radial-gradient-74"/>
    <radialGradient id="radial-gradient-107" cx="-177.55" cy="-725.3" r="3.33" gradientTransform="rotate(69.11 -358.58 255.08)" xlink:href="#radial-gradient-74"/>
    <radialGradient id="radial-gradient-108" cx="-1086.33" cy="-297.56" r="3.33" gradientTransform="rotate(129.8 -323.64 297.07)" xlink:href="#radial-gradient-74"/>
    <radialGradient id="radial-gradient-109" cx="-1086.33" cy="-297.56" r="3.33" gradientTransform="rotate(129.8 -323.64 297.07)" xlink:href="#radial-gradient-74"/>
    <radialGradient id="radial-gradient-110" cx="-245.23" cy="1481.96" r="2.27" gradientTransform="rotate(-108 -334.9 478.94)" xlink:href="#radial-gradient-74"/>
    <radialGradient id="radial-gradient-111" cx="-245.23" cy="1481.96" r="2.27" gradientTransform="rotate(-108 -334.9 478.94)" xlink:href="#radial-gradient-74"/>
    <radialGradient id="radial-gradient-112" cx="883.83" cy="674.18" r="2.27" gradientTransform="matrix(.84 -.54 .95 1.46 -779.33 -430.29)" xlink:href="#radial-gradient-74"/>
    <radialGradient id="radial-gradient-114" cx="786.45" cy="-49.14" r="2.27" gradientTransform="rotate(21.68 396.7 -452.93)" xlink:href="#radial-gradient-74"/>
    <radialGradient id="radial-gradient-115" cx="786.45" cy="-49.14" r="2.27" gradientTransform="rotate(21.68 396.7 -452.93)" xlink:href="#radial-gradient-74"/>
    <radialGradient id="radial-gradient-116" cx="-508.84" cy="-24.12" r="1.81" gradientTransform="matrix(-.29 .96 -1.57 -.47 434.66 556.33)" xlink:href="#radial-gradient-74"/>
    <radialGradient id="radial-gradient-117" cx="-508.84" cy="-24.12" r="1.81" gradientTransform="matrix(-.29 .96 -1.57 -.47 434.66 556.33)" xlink:href="#radial-gradient-74"/>
    <radialGradient id="radial-gradient-118" cx="470.12" cy="809.07" r="4.34" gradientTransform="rotate(-38.54 -531.62 261.96)" xlink:href="#radial-gradient-74"/>
    <radialGradient id="radial-gradient-119" cx="470.12" cy="809.07" r="4.34" gradientTransform="rotate(-38.54 -531.62 261.96)" xlink:href="#radial-gradient-74"/>
    <radialGradient id="radial-gradient-120" cx="611.49" cy="661.1" r="10.06" gradientTransform="matrix(.87 -.5 .41 .72 -194.43 -89.51)" xlink:href="#radial-gradient-74"/>
    <radialGradient id="radial-gradient-121" cx="611.49" cy="661.1" r="10.06" gradientTransform="matrix(.87 -.5 .41 .72 -194.43 -89.51)" xlink:href="#radial-gradient-74"/>
    <radialGradient id="radial-gradient-122" cx="-227.05" cy="-1002.11" r="11.22" gradientTransform="matrix(.45 .89 -.74 .37 -40.78 659.22)" xlink:href="#radial-gradient-74"/>
    <radialGradient id="radial-gradient-123" cx="-225.1" cy="-999" r="6.79" gradientTransform="matrix(.45 .89 -.74 .37 -40.78 659.22)" xlink:href="#radial-gradient-74"/>
    <radialGradient id="radial-gradient-124" cx="-615.9" cy="-1042.73" r="5.53" gradientTransform="matrix(.12 .99 -.83 .1 -192.18 794.36)" xlink:href="#radial-gradient-74"/>
    <radialGradient id="radial-gradient-125" cx="-617.26" cy="-1078.63" r="8.04" gradientTransform="matrix(.12 .99 -.83 .1 -192.18 794.36)" xlink:href="#radial-gradient-74"/>
    <radialGradient id="radial-gradient-126" cx="-615.62" cy="-1075.94" r="5.26" gradientTransform="matrix(.12 .99 -.83 .1 -192.18 794.36)" xlink:href="#radial-gradient-74"/>
    <radialGradient id="radial-gradient-127" cx="203.16" cy="-742.66" r="10.06" gradientTransform="matrix(.78 .62 -.52 .65 57.3 443.21)" xlink:href="#radial-gradient-74"/>
    <radialGradient id="radial-gradient-128" cx="203.16" cy="-742.66" r="10.06" gradientTransform="matrix(.78 .62 -.52 .65 57.3 443.21)" xlink:href="#radial-gradient-74"/>
    <radialGradient id="radial-gradient-129" cx="199.56" cy="-742.62" r="10.06" gradientTransform="matrix(.78 .62 -.52 .65 57.3 443.21)" xlink:href="#radial-gradient-74"/>
    <radialGradient id="radial-gradient-130" cx="603.03" cy="57.64" r="29.24" xlink:href="#radial-gradient-74"/>
  </defs>
  <g style="isolation:isolate">
    <g id="Layer_2" data-name="Layer 2">
      <g id="Fore_v2" clip-path="url(#clip-path)" data-name="Fore v2">
        <circle cx="306.33" cy="290.15" r="67.47" fill="url(#radial-gradient)" transform="rotate(-82.04 306.31 290.15)"/>
        <circle cx="306.33" cy="290.15" r="60.41" fill="#f3a300" transform="rotate(-68.96 306.35 290.15)"/>
        <path d="M264.39 311.85c-5.27-2.52-9.06-9-10.74-14-3.54-10.62-.8-22.21 3.65-32.11 13.89-31 52.23-34 62.24-25.23s3.65 22.12-13.08 29.37-15.68 31-25.46 38.39c-3.74 2.82-8.05 5.06-12.91 4.62a10.76 10.76 0 0 1-3.7-1.04z" class="cls-6"/>
        <g class="cls-7">
          <path d="M260.18 288.88a118.18 118.18 0 0 1-10.46-8.19 57.13 57.13 0 0 0 31.86 60.77 57.13 57.13 0 0 1-21.4-52.58zM302.31 232.87a57.12 57.12 0 0 0-51.8 43.85 114.53 114.53 0 0 0 10.31 8.34 57.12 57.12 0 0 1 48.53-45.22 59.38 59.38 0 0 0-7.04-6.97zM327.6 240.4a60 60 0 0 0-4.1-4.92 57.53 57.53 0 0 0-17.42-2.72 66.68 66.68 0 0 1 6.33 6.77 57.26 57.26 0 0 1 15.19.87zM331.35 241.26a56.71 56.71 0 0 1 9.95 3.62 56.86 56.86 0 0 0-12.85-7.57q1.55 1.92 2.9 3.95z" class="cls-6"/>
        </g>
        <path d="M313.25 231.33a48.37 48.37 0 1 1-65.09 69.5l-.18-.25a59.34 59.34 0 1 0 65.27-69.25z" class="cls-8"/>
        <path d="M346.27 249.34l.15.21c19.5 26.17 14.72 62.72-10.68 81.64-23.51 17.52-56.43 13.78-76.67-7.62 19.54 26 55.8 31.78 81.13 12.91s30.18-55.48 10.68-81.65a61.38 61.38 0 0 0-4.61-5.49zM290.1 239.15c2.22 3-1.07 9.21-7.36 13.89s-13.19 6.06-15.42 3.07 1.07-9.2 7.36-13.89 13.19-6.06 15.42-3.07z" class="cls-8"/>
        <path d="M270 257.59c3.18.54 8.13-1.11 12.74-4.55 5.12-3.81 8.25-8.64 8-11.91-3.18-.55-8.13 1.11-12.74 4.55-5.08 3.81-8.21 8.63-8 11.91zM359.57 281.27c-3.36 1.6-8.82-2.84-12.19-9.92s-3.37-14.12 0-15.73 8.83 2.85 12.2 9.93 3.36 14.12-.01 15.72z" class="cls-8"/>
        <path d="M345.41 258c-1.16 3-.5 8.19 2 13.39 2.74 5.76 6.86 9.77 10.12 10.21 1.15-3 .5-8.19-2-13.39-2.75-5.8-6.87-9.82-10.12-10.21zM323.14 330.13c-2.4-2.84.5-9.26 6.48-14.32s12.79-6.87 15.2-4-.49 9.26-6.48 14.33-12.79 6.86-15.2 3.99z" class="cls-8"/>
        <path d="M342.06 310.48c-3.21-.35-8 1.61-12.44 5.33-4.87 4.12-7.69 9.13-7.28 12.39 3.21.34 8-1.61 12.44-5.33 4.86-4.12 7.69-9.14 7.28-12.39zM284.77 314.62c-.4-7.89 6.89-14.67 16.28-15.15s17.33 5.52 17.73 13.41-6.88 14.67-16.28 15.12-17.33-5.49-17.73-13.38z" class="cls-8"/>
        <path d="M301.05 299.47c-8.48.43-15.23 6-16.18 12.87 1.66 6.73 8.94 11.56 17.4 11.13s15.22-6 16.17-12.87c-1.65-6.73-8.93-11.6-17.39-11.13zM301.73 261c2 4.68-.88 10.4-6.44 12.78s-11.7.54-13.7-4.14.88-10.39 6.44-12.78 11.7-.49 13.7 4.14z" class="cls-8"/>
        <path d="M295.29 273.82c5-2.15 7.85-7 6.89-11.38-2.5-3.69-8-5-13-2.83s-7.85 7-6.89 11.38c2.51 3.69 7.99 5.01 13 2.83zM331.48 300.94c-6.19-1.56-9.69-8.8-7.83-16.16s8.38-12.07 14.56-10.51 9.7 8.8 7.84 16.17-8.38 12.06-14.57 10.5z" class="cls-8"/>
        <path d="M323.65 284.78c-1.68 6.64 1 13.18 6.09 15.54 5.59.32 11.05-4.15 12.73-10.78s-1-13.19-6.1-15.55c-5.59-.32-11.05 4.16-12.72 10.79zM261 276.71c2.93 0 5.36 5 5.41 11.15s-2.29 11.21-5.23 11.24-5.36-5-5.41-11.15 2.3-11.22 5.23-11.24z" class="cls-8"/>
        <path d="M263.37 298.08c1.83-1.77 3.08-5.68 3.05-10.22 0-5-1.66-9.27-3.84-10.67-1.83 1.78-3.08 5.69-3 10.23 0 5.03 1.61 9.27 3.79 10.66zM273.11 332.89c1.44-3.44 8.47-3.76 15.7-.72s11.92 8.29 10.48 11.73-8.48 3.75-15.71.71-11.92-8.29-10.47-11.72z" class="cls-8"/>
        <path d="M299.2 340.85c-1.15-3-5.08-6.45-10.39-8.68-5.88-2.47-11.63-2.72-14.34-.88 1.14 3 5.08 6.44 10.38 8.67 5.88 2.48 11.63 2.73 14.35.89zM309.59 236.31c.25 2.09-3.12 4.21-7.53 4.73s-8.18-.75-8.43-2.85 3.12-4.21 7.53-4.73 8.19.75 8.43 2.85z" class="cls-8"/>
        <path d="M294.52 239.67c1.41 1.17 4.3 1.76 7.54 1.37 3.59-.42 6.49-1.9 7.31-3.57-1.41-1.16-4.3-1.75-7.54-1.37-3.58.43-6.48 1.9-7.31 3.57zM345.71 327.86c-1.64-1.34-.69-5.21 2.12-8.65s6.41-5.14 8-3.8.69 5.2-2.12 8.64-6.37 5.14-8 3.81z" class="cls-8"/>
        <path d="M354.2 315c-1.82.14-4.31 1.73-6.37 4.25-2.28 2.8-3.34 5.88-2.77 7.65 1.82-.14 4.31-1.73 6.37-4.25 2.28-2.84 3.34-5.92 2.77-7.65zM260.19 318.24c1.63-1.34 5.23.35 8.06 3.77s3.8 7.29 2.17 8.63-5.24-.34-8.06-3.77-3.8-7.29-2.17-8.63z" class="cls-8"/>
        <path d="M271.18 329.09c.22-1.82-.86-4.57-2.93-7.08-2.3-2.78-5.11-4.42-7-4.21-.22 1.81.85 4.56 2.93 7.08 2.33 2.78 5.15 4.42 7 4.21zM321.78 342.83c-.84-1.93 1.77-4.94 5.84-6.71s8.06-1.65 8.9.29-1.77 4.94-5.84 6.71-8.06 1.64-8.9-.29z" class="cls-8"/>
        <path d="M335.23 335.25c-1.68-.71-4.62-.43-7.61.87-3.31 1.44-5.65 3.7-6 5.53 1.68.71 4.62.44 7.61-.87 3.35-1.44 5.7-3.7 6-5.53zM348.86 252.25c-.87 1.36-3.9 1-6.78-.84s-4.5-4.41-3.63-5.78 3.9-1 6.78.83 4.5 4.42 3.63 5.79z" class="cls-8"/>
        <path d="M338.26 246.94c.28 1.38 1.71 3.13 3.82 4.47 2.34 1.49 4.79 2 6.08 1.42-.27-1.38-1.71-3.13-3.82-4.47-2.34-1.48-4.78-2.01-6.08-1.42zM360.65 296.07c-1.62-.08-2.79-2.9-2.62-6.31s1.63-6.09 3.24-6 2.79 2.91 2.62 6.31-1.62 6.08-3.24 6z" class="cls-8"/>
        <path d="M360 284.24c-1.06.91-1.88 3-2 5.52-.14 2.77.61 5.16 1.77 6 1.06-.91 1.88-3 2-5.52.17-2.78-.58-5.16-1.77-6zM273.48 322.18c.64-.9 2.69-.54 4.59.8s2.91 3.16 2.28 4.06-2.69.54-4.59-.8-2.91-3.15-2.28-4.06z" class="cls-8"/>
        <path d="M280.52 326.15a5.58 5.58 0 0 0-2.45-3.17c-1.54-1.09-3.19-1.53-4.09-1.17a5.54 5.54 0 0 0 2.45 3.17c1.57 1.09 3.18 1.53 4.09 1.17zM282.8 275.28c1.8.67 2.6 3 1.8 5.15s-2.92 3.4-4.72 2.74-2.6-3-1.79-5.15 2.91-3.4 4.71-2.74z" class="cls-8"/>
        <path d="M281.35 283.31a4.33 4.33 0 0 0 3.25-2.88 4.22 4.22 0 0 0-.9-4.62 4.33 4.33 0 0 0-3.24 2.89 4.18 4.18 0 0 0 .89 4.61zM300.12 246.3c.28 1.07-1.3 2.42-3.55 3s-4.29.23-4.57-.84 1.3-2.42 3.54-3 4.29-.22 4.58.84z" class="cls-8"/>
        <path d="M292.57 249.18a5.59 5.59 0 0 0 4 .14c1.83-.49 3.22-1.47 3.52-2.4a5.59 5.59 0 0 0-4-.14c-1.83.49-3.22 1.47-3.52 2.4zM342.15 271.69c-1.35.5-3-.51-3.59-2.25s-.06-3.54 1.3-4 3 .51 3.59 2.25.05 3.51-1.3 4z" class="cls-8"/>
        <path d="M339 266.05a3.48 3.48 0 0 0-.39 3.39 3.37 3.37 0 0 0 2.81 2.38 3.51 3.51 0 0 0 .4-3.39 3.39 3.39 0 0 0-2.82-2.38zM255.18 267.44c2 .54 2.77 4.45 1.64 8.74s-3.7 7.34-5.74 6.8-2.78-4.45-1.64-8.74 3.7-7.34 5.74-6.8z" class="cls-8"/>
        <path d="M252.78 282.69c1.61-.88 3.21-3.36 4-6.51.92-3.49.61-6.73-.64-8.11-1.6.89-3.21 3.36-4 6.51-.92 3.49-.6 6.73.64 8.11zM351.87 303.33c.87.38 1 1.91.36 3.43s-1.9 2.45-2.76 2.07-1-1.91-.36-3.43 1.89-2.4 2.76-2.07zM351.37 297.79c.52.23.62 1.17.21 2.09s-1.15 1.49-1.68 1.26-.62-1.17-.21-2.09 1.15-1.49 1.68-1.26zM293.48 331c-.47.93-2.19 1-3.85.19s-2.62-2.26-2.15-3.19 2.19-1 3.85-.2 2.67 2.26 2.15 3.2zM298.28 332.1c-.28.57-1.32.62-2.32.12s-1.58-1.36-1.3-1.93 1.32-.62 2.32-.12 1.59 1.36 1.3 1.93zM271.1 322.31c-.37.36-1.19.11-1.81-.55s-.84-1.49-.46-1.84 1.18-.11 1.81.55.84 1.53.46 1.84zM339.18 252.63c-.54.52-1.72.16-2.64-.8s-1.21-2.16-.66-2.68 1.72-.16 2.64.81 1.21 2.15.66 2.67zM341.23 256.83c-.36.34-1.13.1-1.73-.53s-.79-1.41-.44-1.75 1.14-.1 1.73.53.8 1.41.44 1.75zM313.73 343.15c0 .94-1.4 1.66-3.06 1.61s-3-.86-2.95-1.8 1.4-1.66 3.06-1.61 2.98.86 2.95 1.8zM318.68 340.62c0 .58-.85 1-1.85 1s-1.82-.52-1.8-1.09.85-1 1.86-1 1.81.52 1.79 1.09zM306.25 340.34c0 .57-.85 1-1.86 1s-1.81-.53-1.79-1.1.85-1 1.86-1 1.81.53 1.79 1.1z" class="cls-8"/>
        <path d="M260.11 267c-.79-.52-.68-2.06.24-3.44s2.29-2.09 3.07-1.57.68 2.07-.24 3.45-2.29 2.04-3.07 1.56zm1.42 4.6c.55-.85.62-1.78.14-2.1s-1.31.11-1.87 1-.62 1.78-.15 2.1 1.35-.2 1.88-1.04zm6.77-10.43c.56-.85.62-1.78.14-2.1s-1.31.11-1.87 1-.62 1.78-.14 2.1 1.31-.17 1.87-1.04zm39-16.15c-.33-.88.67-2.06 2.23-2.63s3.08-.32 3.41.56-.68 2.06-2.23 2.63-3.09.28-3.41-.58zm10.06.15c.94-.35 1.55-1.07 1.36-1.6s-1.13-.69-2.08-.34-1.55 1.06-1.36 1.6 1.13.65 2.08.3z" style="mix-blend-mode:screen" fill="#f3a300" opacity=".5"/>
        <circle cx="480" cy="875" r="639.92" fill="url(#radial-gradient-2)" transform="rotate(-45 480 875)"/>
        <circle cx="480" cy="873" r="575" fill="url(#radial-gradient-3)" transform="rotate(-45 480 873)"/>
        <path d="M12.07 735.16c-18.84-58.63 3.07-134.39 29.26-183.54C96.74 447.61 205 384.73 312.65 347c336.62-118 637 153.13 642.21 293.22s-142.31 188.11-318.5 112.66-350.06 104.8-477 83.33c-48.44-8.19-96.74-24.93-128.52-65.3a113.33 113.33 0 0 1-18.77-35.75z" style="mix-blend-mode:screen" fill="url(#radial-gradient-4)"/>
        <ellipse cx="575.32" cy="351.88" rx="28.02" ry="58.97" transform="rotate(-81.82 575.3 351.88)" style="mix-blend-mode:multiply" fill="url(#radial-gradient-5)" opacity=".5"/>
        <path d="M520.49 355.66c7.79 10.93 27.18 20.55 50.84 24 26.23 3.77 49.59-1.26 58.58-11.51-7.78-10.94-27.18-20.56-50.84-24-26.22-3.77-49.58 1.26-58.58 11.51z" style="mix-blend-mode:multiply" fill="url(#radial-gradient-6)" opacity=".5"/>
        <path d="M695 585.07c-27.46 17-66.12 4.26-86.35-28.43s-14.36-73 13.1-89.95 66.11-4.26 86.34 28.43 14.32 72.96-13.09 89.95z" style="mix-blend-mode:multiply" fill="url(#radial-gradient-7)" opacity=".5"/>
        <path d="M608.61 556.64c18.25 29.49 51.49 42.73 78 32.57 20.84-19.2 23.8-54.79 5.58-84.24s-51.49-42.72-78-32.56c-20.84 19.19-23.8 54.79-5.58 84.23z" style="mix-blend-mode:multiply" fill="url(#radial-gradient-8)" opacity=".5"/>
        <path d="M140.46 468.46c26 10.08 29.83 62.56 8.61 117.22s-59.47 90.8-85.44 80.72S33.8 603.83 55 549.17s59.49-90.79 85.46-80.71z" style="mix-blend-mode:multiply" fill="url(#radial-gradient-9)" opacity=".5"/>
        <path d="M86.41 665.12c22.34-9.21 47.09-39.32 62.66-79.44 17.26-44.45 17.93-87.47 3.6-107.4-22.33 9.21-47.08 39.32-62.66 79.44-17.25 44.45-17.92 87.47-3.6 107.4z" style="mix-blend-mode:multiply" fill="url(#radial-gradient-10)" opacity=".5"/>
        <ellipse cx="831.58" cy="501.57" rx="36.22" ry="76.23" transform="rotate(-40.97 831.56 501.56)" style="mix-blend-mode:multiply" fill="url(#radial-gradient-11)" opacity=".5"/>
        <path d="M774.77 458.91c-1.63 17.27 9.2 43.08 29.46 66.41 22.45 25.86 49.54 40.7 67 38.28 1.64-17.27-9.19-43.08-29.45-66.41-22.45-25.86-49.55-40.7-67.01-38.28z" style="mix-blend-mode:multiply" fill="url(#radial-gradient-12)" opacity=".5"/>
        <path d="M255.27 393.53c7.37 12.57-8.12 35.34-34.58 50.84s-53.9 17.88-61.27 5.3 8.12-35.34 34.59-50.84 53.9-17.83 61.26-5.3z" style="mix-blend-mode:multiply" fill="url(#radial-gradient-13)" opacity=".5"/>
        <path d="M169.17 456.56c12.15 3.49 32.09-.81 51.52-12.19 21.53-12.61 35.79-30 36.4-42.85-12.15-3.49-32.09.81-51.52 12.19-21.52 12.61-35.79 30.02-36.4 42.85z" style="mix-blend-mode:multiply" fill="url(#radial-gradient-14)" opacity=".5"/>
        <path d="M490.58 297.05l2 1.09c.61.35 1.2.71 1.77 1.07l.33.22 1.35.9.44.31 1.14.84.47.36 1 .81.46.39.93.81.44.39.87.83.4.39.82.85.36.37.79.89.29.33c.28.32.54.65.8 1l.21.25.87 1.15a.18.18 0 0 1 .05.07 39.07 39.07 0 0 1 2.38 3.66l.11.2c.18.32.36.64.52 1l.15.29.43.85.15.32.37.78.12.29a6.11 6.11 0 0 1 .78.42 3 3 0 0 1 .32.24 2.24 2.24 0 0 1 .43.46 1.5 1.5 0 0 1 .11.22.69.69 0 0 1 .06.39.54.54 0 0 1-.66.49l-.16-.05.23.65.09.27.22.68.08.24.2.69a.84.84 0 0 0 .05.17l.19.74a.64.64 0 0 1 0 .07c.13.52.24 1 .32 1.43v.13c0 .16.06.32.08.46a2.07 2.07 0 0 1 0 .22c0 .1 0 .2.05.3V326.41a2.24 2.24 0 0 1 0 .24v.09a2.5 2.5 0 0 1 0 .25v.32c4.49-.57 9-2.5 13.3-4.84l1.23.54.46.2.42-.23 1.06-.54c.39-.19.81-.39 1.25-.58a18.3 18.3 0 0 1 2-.72l-12.76-25.45 2.21.52L535 320.64h.64a6.78 6.78 0 0 1 .68.07l.26.05.28.06a5.87 5.87 0 0 1 .59.19 2.72 2.72 0 0 1 1.79 1.89 2.17 2.17 0 0 1 0 .95 2.47 2.47 0 0 1-.11.36.25.25 0 0 1 0 .07 1.47 1.47 0 0 1-.14.28l-.1.12a.9.9 0 0 1-.15.18 1.37 1.37 0 0 1-.18.16l-.12.1-.3.14h-.07a2.07 2.07 0 0 1-.43.1h-.32l4.28 8.86a62.82 62.82 0 0 1 17 .42c10.56 1.47 14.89-4.62 14.89-4.62 3.14 2.48 4.35 7.21 6.39 11.48.19.39.38.78.59 1.17 0 0-.28.17-.81.45l-.61.3-.78.36-.93.39c-.33.13-.69.27-1.08.4a33.84 33.84 0 0 1-11.26 1.92 34.73 34.73 0 0 1-4.23-.24 62.21 62.21 0 0 0-7.37-.46h-1.41a27.51 27.51 0 0 0-4.12.46 8.15 8.15 0 0 0-2.43.77l-6.14-12.41h.12l-3.94-8.18a82.92 82.92 0 0 1-20 9.52c-1.51.49-3 .94-4.61 1.36.49.17.16.38-.45.57a2.14 2.14 0 0 1 .3.17 2 2 0 0 1 .78.82v.07a1 1 0 0 1 .06.34 1.28 1.28 0 0 1-.07.34.81.81 0 0 1-.1.18l-.05.11a2.28 2.28 0 0 1-.37.4c12.57 4.86 20.63 12.34 20.63 20.74 0 14.67-24.58 26.56-54.89 26.56s-54.89-11.89-54.89-26.56c0-8.4 8-15.88 20.62-20.74a2.28 2.28 0 0 1-.37-.4l-.05-.09a1.39 1.39 0 0 1-.11-.21 1.09 1.09 0 0 1-.05-.26.44.44 0 0 1 0-.1.8.8 0 0 1 0-.15.78.78 0 0 1 0-.21 2.77 2.77 0 0 1 1.88-1.39 8 8 0 0 1 2.35-.34h1a6.52 6.52 0 0 0 .74-.16l.17-.05a29.93 29.93 0 0 1-9.57-5.29c-5.35-4.59-5.63-9.34-4.35-13.16a20 20 0 0 1 5.31-7.83l1.72.17.12-.16a6.2 6.2 0 0 1 1.7-1.46 6.68 6.68 0 0 1 3.32-.87h.75a9.88 9.88 0 0 1 2.2.3l.25.07c8.08-8.21 18.91-11.8 18.91-11.8l.75-1.16-3.2-1.06 12.33-.26-.25 2.76.38 10.57 2.63-10.44-.15-2.76 11.82.27h.33l-3.2 1.06.75 1.16m44.05 33l.86.42-.24-.57z" style="mix-blend-mode:multiply" fill="url(#linear-gradient)" opacity=".58"/>
        <path fill="url(#Degradado_sin_nombre_4)" d="M440.44 259.14c.57 2.66 2.26 7.66 5.91 7.76a4.79 4.79 0 0 0 4.75-2.53l-3.1-5.95z"/>
        <path d="M449.3 266.22a4.42 4.42 0 0 0 1.8-1.85l-3.1-5.95-2.56.24a24.22 24.22 0 0 0 3.86 7.56z" style="mix-blend-mode:multiply" fill="url(#Degradado_sin_nombre_4-2)" opacity=".5"/>
        <path fill="url(#Degradado_sin_nombre_4-3)" d="M442.1 259l-1.66.16c.57 2.66 2.26 7.66 5.91 7.76a6 6 0 0 0 .75 0c-3.33-2.37-4.23-5.82-5-7.92z"/>
        <path fill="#929dbc" d="M478.84 243.53h109.85v2.27H478.84z" transform="rotate(-76.85 533.73 244.68)"/>
        <path d="M521.06 298.1l-.9-.21 25-106.97.95.22-25.05 106.96z" class="cls-28"/>
        <path fill="url(#Degradado_sin_nombre_6)" d="M580.58 199.46s-7.91-10.25-19.7-7.4-15.33-1.65-15.33-1.65l-6.14 25.65s6.26 3.75 19.3 0c10.56-3 14.89 9.56 14.89 9.56 3.4-5.62 4.55-16.76 6.98-26.16z"/>
        <path d="M563.06 193.53a18.34 18.34 0 0 1 16.87 8.61c.2-.9.42-1.8.65-2.68 0 0-7.91-10.25-19.7-7.4s-15.33-1.65-15.33-1.65.76 5.15 17.51 3.12z" class="cls-28"/>
        <path fill="url(#Degradado_sin_nombre_4-4)" d="M527.43 235.51s5.06 6.52 8.3 6.21c4.71-.44 4.34-9.24 2-9.81a38 38 0 0 1-6.32-2.67z"/>
        <path d="M528.33 234.09l-.9 1.42s5.06 6.52 8.3 6.21a3.25 3.25 0 0 0 1.82-.76c-1.09-4.16-5.44-5.39-9.22-6.87z" style="mix-blend-mode:multiply" fill="#777676" opacity=".5"/>
        <path fill="url(#Degradado_sin_nombre_4-5)" d="M539.36 237.12c-.19-1.61-.79-2.91-1.64-3.12a37.79 37.79 0 0 1-6.31-2.67l-3.23 5.09c-.46-.54-.75-.91-.75-.91l4-6.27a37.79 37.79 0 0 0 6.31 2.67c1.19.3 1.89 2.8 1.62 5.21z"/>
        <path fill="url(#Degradado_sin_nombre_6-2)" d="M535.73 229.8l-7.91 7.2-1.23 1.11c-4.34-4.84-8.81-8.82-13.3-10 0 0-1.06 39-22.66 62.4l-9.63-.57-2.52-21.94-.38 21.86-9.64.57s-13.15-9-21.28-29.87l-7.69 1.51s-12.74-22.54-1-43.4c6.16-10.92 16.9-18 35.82-19.37 24.27-1.73 45.15 8.31 61.42 30.5z"/>
        <path d="M478.1 264.35c-1.81.5-2.48 22-2.25 25.67l2.25-.13.38-21.86 2.52 21.86 1.82.11c.92-6.79-3.73-25.92-4.72-25.65z" style="mix-blend-mode:multiply" fill="url(#Degradado_sin_nombre_5)" opacity=".5"/>
        <path fill="#f6f6f6" d="M470.82 290.32l-2.35.14s-12.47-8.56-20.65-28.31c13.18 20.09 21.18 25.85 23 28.17zm18.34.05l1.47.09c20-21.65 22.38-56.54 22.63-61.72-1.35 12.26-9.9 45.34-24.1 61.63zm-48.72-70.64c8.15-18.8 46.24-15.32 54.62-14.4 18.11 2 34.74 18.25 39.69 25.35l1-.88c-16.27-22.19-37.15-32.23-61.39-30.47-18.92 1.37-29.65 8.45-35.82 19.37-11.77 20.86 1 43.39 1 43.39l1.36-.26c-3.21-8.31-10.15-19.73-.46-42.1z"/>
        <path fill="url(#Degradado_sin_nombre_2)" d="M476.79 120.25c-9.83 0-17.27-3.6-17.69-5.74a.5.5 0 0 0-.72-.29c-2.8 1.3-2 5.26-.51 7.2a8.48 8.48 0 0 0 2.08 1.93c-1.16.44-8-3.77-6.87-10.1a.54.54 0 0 0-1-.41c-2.11 2.74-3.49 5.63-2.21 9.06a9.36 9.36 0 0 0 3.72 4.44l-.34.19a27.63 27.63 0 0 1-3.53-1.41c-1.59-.78-4.55-2.13-4.31-4.22.05-.43-.55-.48-.75-.2-1.57 2.21.14 4.5 1.83 6 1 .89 1.25 3.57.29 4.37a41.93 41.93 0 0 0-15.14 32c0 23.68 20.21 42.87 45.13 42.87s45.12-19.19 45.12-42.87-20.18-42.76-45.1-42.82z"/>
        <path d="M521.91 163.13c0 23.68-20.2 42.88-45.13 42.88s-45.11-19.2-45.11-42.88A40.09 40.09 0 0 1 432 158c5.77 17.37 22.86 29.95 43 29.95 23.08 0 42.1-16.45 44.79-37.69a41 41 0 0 1 2.12 12.87z" style="mix-blend-mode:multiply" fill="#22100d" opacity=".5"/>
        <path fill="url(#Degradado_sin_nombre_6-3)" d="M433.63 156.54c6.47-25.54 43.86-40.22 66.13-26 16.41 10.51 23.4 31.34 18.55 49.36a41 41 0 0 0 3.6-16.8c0-23.68-20.2-42.82-45.12-42.88-9.83 0-17.27-3.6-17.69-5.74a.5.5 0 0 0-.72-.29c-2.8 1.3-2 5.26-.51 7.2a8.48 8.48 0 0 0 2.08 1.93c-1.16.44-8-3.77-6.87-10.1a.54.54 0 0 0-1-.41c-2.11 2.74-3.49 5.63-2.21 9.06a9.36 9.36 0 0 0 3.72 4.44l-.34.19a27.63 27.63 0 0 1-3.53-1.41c-1.59-.78-4.55-2.13-4.31-4.22.05-.43-.55-.48-.75-.2-1.57 2.21.14 4.5 1.83 6 1 .89 1.25 3.57.29 4.37a41.93 41.93 0 0 0-15.14 32 40.7 40.7 0 0 0 .76 7.77 45 45 0 0 1 1.23-14.27z"/>
        <path d="M476.79 106.52A51.48 51.48 0 1 1 425.31 158a51.55 51.55 0 0 1 51.48-51.48m0-3.41A54.89 54.89 0 1 0 531.68 158a54.89 54.89 0 0 0-54.89-54.89z" class="cls-28" opacity=".54"/>
        <circle cx="476.79" cy="158" r="54.89" class="cls-28" opacity=".19" transform="rotate(-81.36 476.78 158)"/>
        <path fill="url(#Degradado_sin_nombre_4-6)" d="M507.36 207.33h-61.14a4.29 4.29 0 0 1-4.3-4.3 4.29 4.29 0 0 1 4.3-4.29h61.14a4.3 4.3 0 0 1 4.3 4.29 4.3 4.3 0 0 1-4.3 4.3z"/>
        <path d="M511.65 203a4.52 4.52 0 0 1-.06.74 4.28 4.28 0 0 0-4.23-3.57h-61.14a4.26 4.26 0 0 0-3 1.26 4.19 4.19 0 0 0-1.19 2.31 3.64 3.64 0 0 1-.07-.74 4.32 4.32 0 0 1 1.26-3 4.26 4.26 0 0 1 3-1.26h61.14a4.3 4.3 0 0 1 4.29 4.26z" style="mix-blend-mode:screen" fill="url(#Degradado_sin_nombre_4-7)"/>
        <path d="M511.65 203a4.21 4.21 0 0 1-1.26 3 4.26 4.26 0 0 1-3 1.27h-61.17a4.31 4.31 0 0 1-4.3-4.3 4.19 4.19 0 0 1 .23-1.37 4.28 4.28 0 0 0 4.07 2.94h61.14a4.31 4.31 0 0 0 4.07-2.94 4.18 4.18 0 0 1 .22 1.4z" style="mix-blend-mode:multiply" fill="url(#Degradado_sin_nombre_4-8)" opacity=".5"/>
        <path fill="url(#Degradado_sin_nombre_4-9)" d="M468.46 290.46l.76 2.4-3.2 2.19 12.28-.41-.2-4.75-9.64.57z"/>
        <path d="M479.73 114c2.74-5.79 22.95-3.61 35.28 13.12 10.57 14.35 12.47 36 6.9 36-1.51 0-5.61-20.77-19.76-30.12-15.15-10-26.93-9.47-22.42-19z" style="mix-blend-mode:screen" fill="url(#linear-gradient-2)" opacity=".79"/>
        <path d="M477.51 195.91c-2.49 5.91-22.78 4.61-35.82-11.58-11.17-13.87-14-35.43-8.45-35.67 1.51-.07 6.5 20.5 21 29.23 15.6 9.35 27.36 8.31 23.27 18.02z" style="mix-blend-mode:screen" fill="url(#linear-gradient-3)" opacity=".79"/>
        <path fill="url(#Degradado_sin_nombre_4-10)" d="M502.84 234.6c.52 8.82 5.2 12.1 8.69 8.72.87-.84 1.85 2.6-1.61 5.1-3.29 2.38-10.58 1.77-10.07-13.66 0 0 2.98-.39 2.99-.16z"/>
        <path d="M505.42 249.29a7.32 7.32 0 0 0 1.08-.91 5.35 5.35 0 0 0 1.32-3.88c-2.45-.64-4.64-4-5-9.9 0-.23-3 .16-3 .16-.3 9.95 2.61 13.73 5.6 14.53z" class="cls-48"/>
        <path fill="url(#Degradado_sin_nombre_4-11)" d="M507.81 205c-3.21.3-8.3 8.1-6.58 15.68.25 1.1 2 .49 2-.55.35-5.89 4.08-11.8 7.24-12.83 2.33-.72-1.78-2.3-2.66-2.3z"/>
        <path d="M503.26 209.06a16.3 16.3 0 0 0-2 11.65c.25 1.1 2 .49 2-.55a19 19 0 0 1 2.41-7.95 14.27 14.27 0 0 0-2.41-3.15z" class="cls-48"/>
        <path d="M507.22 206.31a12.55 12.55 0 0 1 2.54 1.35 4.7 4.7 0 0 1 .73-.33c2.31-.75-1.8-2.38-2.68-2.3a3.72 3.72 0 0 0-1.82.83l1.23.45z" style="mix-blend-mode:screen" fill="url(#Degradado_sin_nombre_4-12)"/>
        <path d="M511.53 243.32a5.09 5.09 0 0 1-1.44 1 7.88 7.88 0 0 1-1.21 4.69 5.48 5.48 0 0 0 1-.58c3.5-2.51 2.52-5.95 1.65-5.11z" style="mix-blend-mode:screen" fill="url(#Degradado_sin_nombre_4-13)"/>
        <path fill="#564f4f" d="M457.83 234.76c.5 15.43-6.78 16-10.08 13.66a11.19 11.19 0 0 1-1.74-1.37c-.16-1.32-.14-2.45-.22-3.93 3.49 3.38 8.53.3 9-8.52.06-.23 3.04.16 3.04.16z"/>
        <path fill="#2d1c43" d="M457.83 234.76c.5 15.43-6.78 16-10.08 13.66a11.19 11.19 0 0 1-1.74-1.37c-.16-1.32-.14-2.45-.22-3.93 3.49 3.38 8.53.3 9-8.52.06-.23 3.04.16 3.04.16z" opacity=".5"/>
        <path fill="url(#Degradado_sin_nombre_4-14)" d="M447.18 207.33c3.16 1 6.9 6.94 7.24 12.83.06 1 1.78 1.65 2 .55 1.72-7.58-3.38-15.38-6.59-15.68-.83-.03-4.96 1.55-2.65 2.3z"/>
        <path d="M454.41 209.06a16.31 16.31 0 0 1 2 11.65c-.25 1.1-2 .49-2-.55a19 19 0 0 0-2.41-7.95 14.27 14.27 0 0 1 2.41-3.15z" class="cls-48"/>
        <path d="M450.45 206.31a12.46 12.46 0 0 0-2.53 1.35 5.27 5.27 0 0 0-.74-.33c-2.31-.75 1.8-2.38 2.68-2.3a3.75 3.75 0 0 1 1.83.83c-.42.14-.83.29-1.24.45z" style="mix-blend-mode:screen" fill="url(#Degradado_sin_nombre_4-15)"/>
        <path d="M473.57 294.79l4.73-.15-.2-4.75-2.67.16a7.35 7.35 0 0 1-1.86 4.74z" style="mix-blend-mode:multiply" fill="url(#Degradado_sin_nombre_4-16)" opacity=".5"/>
        <path fill="url(#Degradado_sin_nombre_4-17)" d="M468.13 295c.62-.41 1.24-.85 1.85-1.29s1.37-.77.84-1.7c-.31-.55-.81-1-1.17-1.56l-1.16.07.75 2.4L466 295z"/>
        <path fill="url(#Degradado_sin_nombre_4-18)" d="M490.63 290.46l-.75 2.4 3.2 2.19-12.28-.41.2-4.75 9.63.57z"/>
        <path d="M483.58 290l-2.58-.15-.2 4.75 3.95.13a11.16 11.16 0 0 1-1.17-4.73z" style="mix-blend-mode:multiply" fill="url(#Degradado_sin_nombre_4-19)" opacity=".5"/>
        <path fill="url(#Degradado_sin_nombre_4-20)" d="M489.41 290.39c-.48.79-1 1.56-1.51 2.32a23.62 23.62 0 0 1 2.78 2.26l2.4.07-3.2-2.18.75-2.4z"/>
        <path fill="url(#Degradado_sin_nombre_6-4)" d="M454 197.07c2.95-4.24 41.73-3.82 45.93 0s4.51 57.67 1.21 61.27-45.57 2.55-47.66-.34c-3.94-5.41-2.48-56.68.52-60.93z"/>
        <path d="M501.13 258.35c-3.3 3.59-45.58 2.53-47.67-.35-1.82-2.52-2.47-15-2.35-28 .07 10.94.78 20.48 2.35 22.63 2.09 2.89 44.37 4 47.67.36 1.39-1.51 2.14-11.94 2.22-23.78.12 13.92-.63 27.4-2.22 29.14z" class="cls-63"/>
        <path d="M501.13 219.93c-3.3 1.47-45.58 1-47.67-.14s-2.59-7.16-2.29-13c.22 3.7.92 6.76 2.29 7.52 2.09 1.17 44.37 1.61 47.67.14 1.22-.55 1.94-3.89 2.16-8 .31 6.2-.42 12.71-2.16 13.48z" style="mix-blend-mode:multiply" fill="#777676" opacity=".4"/>
        <path fill="url(#Degradado_sin_nombre_6-5)" d="M454 193.82c2.95-1.73 41.73-1.55 45.93 0s4.51 23.51 1.21 25-45.57 1-47.66-.14c-3.94-2.23-2.48-23.13.52-24.86z"/>
        <path d="M503.33 209.55c-.15-6-1.29-12-3.42-12.82-4.19-1.56-43-1.73-45.93 0-1.55.91-2.69 7.1-2.86 13.11-.2-6.73 1.06-15 2.86-16 2.94-1.73 41.74-1.56 45.93 0 2.48.9 3.61 8.97 3.42 15.71z" style="mix-blend-mode:screen" fill="#636262" opacity=".3"/>
        <path d="M501.13 218.79c-3.3 1.47-45.58 1-47.67-.13s-2.59-7.16-2.29-13c.22 3.71.92 6.76 2.29 7.53 2.09 1.17 44.37 1.6 47.67.13 1.22-.54 1.94-3.88 2.16-8 .31 6.2-.42 12.68-2.16 13.47z" class="cls-63"/>
        <path d="M460.52 226.12c-2.71 3.1-3.26 21.58 0 23.31s33.48 1.95 34.59 0 2.49-20.71 0-23.31-31.88-3.12-34.59 0z" style="mix-blend-mode:multiply" fill="#ccc" opacity=".5"/>
        <path d="M445.34 228.77c0-.08-.21-1.39-.75 1-2.54 11.26-.46 26.35 1.18 31.08.49-.13.91-.18 1.42-.27-1.02-6.67-1.96-26.48-1.85-31.81z" style="mix-blend-mode:multiply" fill="url(#Degradado_sin_nombre_5-2)" opacity=".5"/>
        <path d="M527.82 237l-1.23 1.11c-4.34-4.84-8.81-8.82-13.3-10-.06 0 2.56-1.59 9.22 3.05a22.1 22.1 0 0 1 5.31 5.84z" style="mix-blend-mode:multiply" fill="url(#Degradado_sin_nombre_5-3)" opacity=".5"/>
        <path fill="url(#radial-gradient-15)" d="M656.74 240a32.8 32.8 0 1 1-45.9-6.7 32.8 32.8 0 0 1 45.9 6.7z"/>
        <circle cx="630.44" cy="259.56" r="29.37" fill="url(#radial-gradient-16)" transform="rotate(-81.64 630.43 259.56)"/>
        <path d="M610.05 270.11c-2.56-1.23-4.4-4.37-5.22-6.81-1.72-5.16-.39-10.79 1.77-15.61 6.76-15.05 25.4-16.53 30.26-12.26s1.78 10.75-6.36 14.27-7.62 15.09-12.38 18.67a9.16 9.16 0 0 1-6.27 2.25 5.38 5.38 0 0 1-1.8-.51z" style="mix-blend-mode:screen" fill="url(#radial-gradient-17)"/>
        <g class="cls-7">
          <path d="M608 258.94a58.89 58.89 0 0 1-5.08-4 27.77 27.77 0 0 0 15.48 29.55 28.06 28.06 0 0 1-5.15-5.28 27.7 27.7 0 0 1-5.25-20.27z" style="mix-blend-mode:screen" fill="url(#radial-gradient-18)"/>
          <path d="M628.49 231.72A27.76 27.76 0 0 0 603.3 253a57.31 57.31 0 0 0 5 4.06 27.79 27.79 0 0 1 23.6-22 28.71 28.71 0 0 0-3.41-3.34z" style="mix-blend-mode:screen" fill="url(#radial-gradient-19)"/>
          <path d="M640.78 235.38a28.31 28.31 0 0 0-2-2.39 27.71 27.71 0 0 0-8.47-1.33 34.41 34.41 0 0 1 3.09 3.34 27.67 27.67 0 0 1 7.38.38z" style="mix-blend-mode:screen" fill="url(#radial-gradient-20)"/>
          <path d="M642.6 235.79a28 28 0 0 1 4.84 1.76 27.81 27.81 0 0 0-6.25-3.68q.75.95 1.41 1.92z" style="mix-blend-mode:screen" fill="url(#radial-gradient-21)"/>
        </g>
        <path d="M633.8 231a23.51 23.51 0 1 1-31.64 33.78l-.09-.12A28.85 28.85 0 1 0 633.8 231z" style="mix-blend-mode:multiply" fill="url(#radial-gradient-22)" opacity=".5"/>
        <path d="M649.85 239.72l.08.1c9.48 12.73 7.15 30.5-5.19 39.69-11.43 8.52-27.44 6.7-37.27-3.7 9.49 12.63 27.12 15.45 39.43 6.27s14.68-27 5.2-39.69a32.37 32.37 0 0 0-2.25-2.67z" style="mix-blend-mode:multiply" fill="url(#radial-gradient-23)" opacity=".5"/>
        <path d="M622.55 234.77c1.08 1.45-.52 4.47-3.58 6.75s-6.41 2.95-7.49 1.5.51-4.48 3.57-6.76 6.42-2.95 7.5-1.49z" style="mix-blend-mode:multiply" fill="url(#radial-gradient-24)" opacity=".5"/>
        <path d="M612.78 243.73c1.54.27 4-.54 6.19-2.21 2.49-1.85 4-4.2 3.91-5.79-1.55-.26-4 .54-6.2 2.21-2.48 1.85-4 4.2-3.9 5.79z" style="mix-blend-mode:multiply" fill="url(#radial-gradient-25)" opacity=".5"/>
        <path d="M656.32 255.24c-1.63.78-4.29-1.38-5.93-4.82s-1.63-6.86 0-7.64 4.29 1.38 5.93 4.82 1.68 6.87 0 7.64z" style="mix-blend-mode:multiply" fill="url(#radial-gradient-26)" opacity=".5"/>
        <path d="M649.44 243.91c-.57 1.47-.25 4 .95 6.51 1.34 2.8 3.34 4.75 4.92 5 .56-1.46.25-4-1-6.5-1.31-2.84-3.31-4.8-4.87-5.01z" style="mix-blend-mode:multiply" fill="url(#radial-gradient-27)" opacity=".5"/>
        <path d="M638.61 279c-1.17-1.38.24-4.5 3.15-7s6.22-3.33 7.39-1.95-.24 4.5-3.15 7-6.22 3.33-7.39 1.95z" style="mix-blend-mode:multiply" fill="url(#radial-gradient-28)" opacity=".5"/>
        <path d="M647.81 269.44c-1.56-.17-3.91.79-6 2.59-2.36 2-3.74 4.44-3.54 6 1.56.17 3.91-.79 6-2.59 2.36-1.98 3.73-4.44 3.54-6z" style="mix-blend-mode:multiply" fill="url(#radial-gradient-29)" opacity=".5"/>
        <path d="M620 271.46c-.2-3.84 3.34-7.14 7.91-7.37s8.43 2.69 8.62 6.52-3.35 7.14-7.91 7.37-8.47-2.69-8.62-6.52z" style="mix-blend-mode:multiply" fill="url(#radial-gradient-30)" opacity=".5"/>
        <path d="M627.87 264.09c-4.12.21-7.4 2.92-7.86 6.26.8 3.27 4.34 5.62 8.45 5.41s7.41-2.92 7.87-6.26c-.81-3.27-4.33-5.62-8.46-5.41z" style="mix-blend-mode:multiply" fill="url(#radial-gradient-31)" opacity=".5"/>
        <path d="M628.2 245.41c1 2.27-.43 5.06-3.13 6.22s-5.69.25-6.66-2 .43-5.05 3.13-6.21 5.69-.28 6.66 1.99z" style="mix-blend-mode:multiply" fill="url(#radial-gradient-32)" opacity=".5"/>
        <path d="M625.07 251.63c2.44-1 3.82-3.42 3.35-5.54-1.21-1.79-3.88-2.42-6.31-1.38s-3.82 3.42-3.35 5.54c1.24 1.75 3.87 2.42 6.31 1.38z" style="mix-blend-mode:multiply" fill="url(#radial-gradient-33)" opacity=".5"/>
        <path d="M642.67 264.81c-3-.76-4.72-4.28-3.81-7.86s4.07-5.87 7.08-5.11 4.71 4.28 3.81 7.86-4.08 5.87-7.08 5.11z" style="mix-blend-mode:multiply" fill="url(#radial-gradient-34)" opacity=".5"/>
        <path d="M638.86 257c-.82 3.23.49 6.41 3 7.56 2.72.15 5.37-2 6.19-5.25s-.5-6.41-3-7.55c-2.73-.21-5.38 1.97-6.19 5.24z" style="mix-blend-mode:multiply" fill="url(#radial-gradient-35)" opacity=".5"/>
        <path d="M608.4 253c1.43 0 2.61 2.41 2.64 5.42s-1.12 5.45-2.55 5.46-2.6-2.41-2.63-5.42S607 253 608.4 253z" class="cls-91"/>
        <path d="M609.56 263.42c.89-.86 1.49-2.77 1.48-5 0-2.45-.81-4.51-1.87-5.19a7.25 7.25 0 0 0-1.48 5c.02 2.45.81 4.51 1.87 5.19z" class="cls-91"/>
        <path d="M614.29 280.34c.7-1.67 4.12-1.83 7.63-.35s5.8 4 5.09 5.7-4.12 1.83-7.63.35-5.79-4.04-5.09-5.7z" style="mix-blend-mode:multiply" fill="url(#radial-gradient-38)" opacity=".5"/>
        <path d="M627 284.21c-.56-1.47-2.47-3.13-5.05-4.22-2.86-1.2-5.65-1.32-7-.43.56 1.47 2.47 3.13 5 4.22 2.91 1.22 5.7 1.32 7.05.43z" style="mix-blend-mode:multiply" fill="url(#radial-gradient-39)" opacity=".5"/>
        <path d="M632 233.39c.12 1-1.52 2.05-3.67 2.3s-4-.37-4.1-1.39 1.52-2.05 3.67-2.3 4 .37 4.1 1.39z" style="mix-blend-mode:multiply" fill="url(#radial-gradient-40)" opacity=".5"/>
        <path d="M624.7 235a5.2 5.2 0 0 0 3.66.67c1.75-.21 3.16-.93 3.56-1.74a5.23 5.23 0 0 0-3.67-.66c-1.74.22-3.15.94-3.55 1.73z" style="mix-blend-mode:multiply" fill="url(#radial-gradient-41)" opacity=".5"/>
        <path d="M649.58 277.89c-.79-.65-.33-2.53 1-4.2s3.12-2.5 3.91-1.85.34 2.53-1 4.2-3.11 2.5-3.91 1.85z" style="mix-blend-mode:multiply" fill="url(#radial-gradient-42)" opacity=".5"/>
        <path d="M653.71 271.62a5.25 5.25 0 0 0-3.1 2.07c-1.11 1.36-1.62 2.86-1.34 3.72a5.2 5.2 0 0 0 3.09-2.07c1.11-1.34 1.64-2.86 1.35-3.72z" style="mix-blend-mode:multiply" fill="url(#radial-gradient-43)" opacity=".5"/>
        <path d="M608 273.22c.79-.65 2.54.17 3.92 1.83s1.84 3.54 1.05 4.2-2.54-.17-3.92-1.84-1.83-3.54-1.05-4.19z" style="mix-blend-mode:multiply" fill="url(#radial-gradient-44)" opacity=".5"/>
        <path d="M613.35 278.49a5.21 5.21 0 0 0-1.42-3.44c-1.12-1.35-2.49-2.15-3.39-2.05a5.21 5.21 0 0 0 1.43 3.44c1.11 1.36 2.48 2.15 3.38 2.05z" style="mix-blend-mode:multiply" fill="url(#radial-gradient-45)" opacity=".5"/>
        <path d="M638 285.17c-.41-.94.86-2.4 2.84-3.26s3.91-.8 4.32.14-.86 2.4-2.84 3.26-3.96.8-4.32-.14z" style="mix-blend-mode:multiply" fill="url(#radial-gradient-46)" opacity=".5"/>
        <path d="M644.49 281.49a5.18 5.18 0 0 0-3.7.42c-1.61.7-2.75 1.8-2.9 2.69a5.24 5.24 0 0 0 3.7-.42c1.61-.7 2.75-1.8 2.9-2.69z" style="mix-blend-mode:multiply" fill="url(#radial-gradient-47)" opacity=".5"/>
        <path d="M651.11 241.13c-.42.67-1.89.49-3.29-.4s-2.19-2.15-1.77-2.81 1.9-.48 3.3.4 2.19 2.15 1.76 2.81z" style="mix-blend-mode:multiply" fill="url(#radial-gradient-48)" opacity=".5"/>
        <path d="M646 238.56a4 4 0 0 0 1.86 2.17 3.6 3.6 0 0 0 3 .69 4 4 0 0 0-1.86-2.17 3.57 3.57 0 0 0-3-.69z" style="mix-blend-mode:multiply" fill="url(#radial-gradient-49)" opacity=".5"/>
        <path d="M656.85 262.44c-.79 0-1.36-1.41-1.28-3.07s.79-3 1.58-2.92 1.35 1.41 1.27 3.07-.79 2.96-1.57 2.92z" style="mix-blend-mode:multiply" fill="url(#radial-gradient-50)" opacity=".5"/>
        <path d="M656.55 256.69a4 4 0 0 0-1 2.68 3.65 3.65 0 0 0 .86 2.92 4 4 0 0 0 1-2.69 3.61 3.61 0 0 0-.86-2.91z" style="mix-blend-mode:multiply" fill="url(#radial-gradient-51)" opacity=".5"/>
        <path d="M614.47 275.14c.31-.44 1.31-.27 2.23.38s1.42 1.54 1.11 2-1.31.27-2.23-.38-1.42-1.57-1.11-2z" style="mix-blend-mode:multiply" fill="url(#radial-gradient-52)" opacity=".5"/>
        <path d="M617.89 277.06a2.72 2.72 0 0 0-1.19-1.54 2.47 2.47 0 0 0-2-.57 2.69 2.69 0 0 0 1.19 1.54 2.43 2.43 0 0 0 2 .57z" style="mix-blend-mode:multiply" fill="url(#radial-gradient-53)" opacity=".5"/>
        <path d="M619 252.33a2.09 2.09 0 1 1-2.29 1.33 1.9 1.9 0 0 1 2.29-1.33z" class="cls-108"/>
        <path d="M618.3 256.24a2.11 2.11 0 0 0 1.57-1.4 2.06 2.06 0 0 0-.43-2.25 2.12 2.12 0 0 0-1.58 1.4 2 2 0 0 0 .44 2.25z" class="cls-108"/>
        <path d="M627.42 238.25c.14.51-.63 1.17-1.72 1.46s-2.09.11-2.23-.41.63-1.17 1.72-1.46 2.09-.11 2.23.41z" style="mix-blend-mode:multiply" fill="url(#radial-gradient-56)" opacity=".5"/>
        <path d="M623.75 239.64a2.66 2.66 0 0 0 2 .07 2.48 2.48 0 0 0 1.71-1.16 2.66 2.66 0 0 0-1.95-.07 2.43 2.43 0 0 0-1.76 1.16z" style="mix-blend-mode:multiply" fill="url(#radial-gradient-57)" opacity=".5"/>
        <path d="M647.85 250.59a1.68 1.68 0 1 1 .63-2 1.47 1.47 0 0 1-.63 2z" style="mix-blend-mode:multiply" fill="url(#radial-gradient-58)" opacity=".5"/>
        <path d="M646.3 247.85a1.66 1.66 0 0 0-.19 1.64 1.63 1.63 0 0 0 1.36 1.16 1.71 1.71 0 0 0 .2-1.65 1.63 1.63 0 0 0-1.37-1.15z" style="mix-blend-mode:multiply" fill="url(#radial-gradient-59)" opacity=".5"/>
        <path d="M605.57 248.52c1 .26 1.35 2.17.8 4.25s-1.8 3.57-2.79 3.31-1.35-2.17-.8-4.25 1.8-3.57 2.79-3.31z" style="mix-blend-mode:multiply" fill="url(#radial-gradient-60)" opacity=".5"/>
        <path d="M604.41 255.94a5.2 5.2 0 0 0 2-3.17c.45-1.7.3-3.27-.31-3.94a5.17 5.17 0 0 0-2 3.16c-.45 1.7-.3 3.28.31 3.95z" style="mix-blend-mode:multiply" fill="url(#radial-gradient-61)" opacity=".5"/>
        <path d="M652.58 266c.42.18.5.93.17 1.67s-.92 1.19-1.34 1-.5-.93-.17-1.67.92-1.21 1.34-1z" style="mix-blend-mode:multiply" fill="url(#radial-gradient-62)" opacity=".5"/>
        <path d="M652.33 263.28c.26.11.31.56.11 1s-.56.73-.82.61-.3-.56-.1-1 .56-.73.81-.61z" style="mix-blend-mode:multiply" fill="url(#radial-gradient-63)" opacity=".5"/>
        <path d="M624.19 279.42c-.23.45-1.07.5-1.87.09s-1.27-1.09-1-1.55 1.06-.5 1.87-.1 1.23 1.14 1 1.56z" style="mix-blend-mode:multiply" fill="url(#radial-gradient-64)" opacity=".5"/>
        <path d="M626.53 280c-.14.27-.65.3-1.13.05s-.77-.66-.63-.94.64-.3 1.13-.05.76.62.63.94z" style="mix-blend-mode:multiply" fill="url(#radial-gradient-65)" opacity=".5"/>
        <path d="M613.31 275.2c-.18.17-.57.05-.88-.27s-.4-.72-.22-.9.57 0 .88.27.4.7.22.9z" style="mix-blend-mode:multiply" fill="url(#radial-gradient-66)" opacity=".5"/>
        <path d="M646.41 241.32c-.26.25-.84.08-1.28-.39s-.59-1.05-.33-1.3.84-.08 1.29.39.59 1.05.32 1.3z" style="mix-blend-mode:multiply" fill="url(#radial-gradient-67)" opacity=".5"/>
        <path d="M647.41 243.36c-.18.17-.55 0-.84-.25s-.39-.69-.22-.86.55-.05.84.26.39.69.22.85z" style="mix-blend-mode:multiply" fill="url(#radial-gradient-68)" opacity=".5"/>
        <path d="M634 285.33c0 .45-.68.8-1.49.78s-1.45-.42-1.43-.88.68-.8 1.48-.78 1.49.42 1.44.88z" style="mix-blend-mode:multiply" fill="url(#radial-gradient-69)" opacity=".5"/>
        <path d="M636.45 284.1c0 .28-.42.49-.91.47s-.88-.25-.87-.53.41-.49.9-.47.88.25.88.53z" style="mix-blend-mode:multiply" fill="url(#radial-gradient-70)" opacity=".5"/>
        <path d="M630.4 284c0 .28-.41.49-.9.48s-.88-.26-.87-.54.41-.49.9-.47.88.21.87.53z" style="mix-blend-mode:multiply" fill="url(#radial-gradient-71)" opacity=".5"/>
        <path d="M608 248.29c-.38-.25-.33-1 .11-1.68s1.12-1 1.5-.76.33 1-.12 1.68-1.14 1.01-1.49.76zm.69 2.23c.27-.41.3-.86.07-1s-.64.06-.91.47-.3.86-.07 1 .61-.06.88-.47zm3.29-5.07c.27-.41.3-.86.07-1s-.64.06-.91.47-.3.86-.07 1 .61-.06.93-.47zm19-7.85c-.16-.43.33-1 1.09-1.28s1.49-.15 1.65.28-.33 1-1.08 1.28-1.57.12-1.73-.28zm4.89.08c.46-.17.76-.52.66-.78s-.55-.34-1-.17-.75.52-.66.78.47.33.93.17z" style="mix-blend-mode:screen" fill="url(#radial-gradient-72)" opacity=".5"/>
        <circle cx="604.97" cy="79.25" r="19.53" fill="url(#radial-gradient-73)" transform="rotate(-13.18 605.16 79.25)"/>
        <circle cx="604.97" cy="79.25" r="17.48" fill="url(#radial-gradient-74)" transform="rotate(-16.99 604.79 79.24)"/>
        <path d="M591.48 77a7.15 7.15 0 0 1-.07-5.11c1-3.08 3.65-5.29 6.4-6.82 8.58-4.78 18 1.14 18.8 4.91s-3 5.76-8.11 4.55-9 4.49-12.55 4.51a5.44 5.44 0 0 1-3.79-1.16 3.24 3.24 0 0 1-.68-.88z" style="mix-blend-mode:screen" fill="url(#radial-gradient-75)"/>
        <g class="cls-7">
          <path d="M594.48 71a34.55 34.55 0 0 1-1-3.71 16.54 16.54 0 0 0-3.11 19.61 16.54 16.54 0 0 1 4.11-15.9z" style="mix-blend-mode:screen" fill="url(#radial-gradient-76)"/>
          <path d="M613.94 65.27a16.54 16.54 0 0 0-19.61 1.22 34.25 34.25 0 0 0 1 3.71 16.54 16.54 0 0 1 19.08-2.1 17.73 17.73 0 0 0-.47-2.83z" style="mix-blend-mode:screen" fill="url(#radial-gradient-77)"/>
          <path d="M618.5 71.38a16.21 16.21 0 0 0-.1-1.84 16.27 16.27 0 0 0-3.57-3.65 19.65 19.65 0 0 1 .3 2.67 16.61 16.61 0 0 1 3.37 2.82z" style="mix-blend-mode:screen" fill="url(#radial-gradient-78)"/>
          <path d="M619.23 72.23a17.37 17.37 0 0 1 1.68 2.56 16.21 16.21 0 0 0-1.67-4c.01.5.01.97-.01 1.44z" style="mix-blend-mode:screen" fill="url(#radial-gradient-79)"/>
        </g>
        <path d="M616.74 66.8a13.84 13.84 0 0 1 .88 4.87 14 14 0 0 1-28 0v-.09a17.18 17.18 0 1 0 27.12-4.78z" style="mix-blend-mode:multiply" fill="url(#radial-gradient-80)" opacity=".5"/>
        <path d="M621.29 76.69v.07a16.58 16.58 0 0 1-33.07 2.08 16.6 16.6 0 1 0 33.19-.08 17.7 17.7 0 0 0-.12-2.07z" style="mix-blend-mode:multiply" fill="url(#radial-gradient-81)" opacity=".5"/>
        <path d="M610 64.61c0 1.08-1.84 2-4.11 2s-4.11-.87-4.11-2 1.84-2 4.11-2 4.11.92 4.11 2z" style="mix-blend-mode:multiply" fill="url(#radial-gradient-82)" opacity=".5"/>
        <path d="M602.16 65.42a5.52 5.52 0 0 0 3.75 1.14c1.85 0 3.41-.58 3.93-1.37a5.47 5.47 0 0 0-3.75-1.19c-1.84 0-3.41.62-3.93 1.42z" style="mix-blend-mode:multiply" fill="url(#radial-gradient-83)" opacity=".5"/>
        <path d="M618.86 86.4c-1.06-.21-1.56-2.19-1.11-4.41s1.65-3.86 2.71-3.65 1.56 2.18 1.12 4.41-1.66 3.86-2.72 3.65z" style="mix-blend-mode:multiply" fill="url(#radial-gradient-84)" opacity=".5"/>
        <path d="M619.6 78.54a5.43 5.43 0 0 0-1.85 3.46c-.36 1.81-.1 3.45.58 4.12a5.45 5.45 0 0 0 1.85-3.45c.36-1.82.1-3.47-.58-4.13z" style="mix-blend-mode:multiply" fill="url(#radial-gradient-85)" opacity=".5"/>
        <path d="M602 91.44c-.07-1.08 1.71-2.06 4-2.2s4.15.61 4.22 1.69-1.72 2.06-4 2.2-4.22-.61-4.22-1.69z" style="mix-blend-mode:multiply" fill="url(#radial-gradient-86)" opacity=".5"/>
        <path d="M609.75 90.15a5.43 5.43 0 0 0-3.81-.91c-1.85.11-3.37.78-3.84 1.61a5.48 5.48 0 0 0 3.81.92c1.84-.12 3.37-.77 3.84-1.62z" style="mix-blend-mode:multiply" fill="url(#radial-gradient-87)" opacity=".5"/>
        <path d="M595.73 81.2c1.27-1.9 4.14-2.21 6.4-.7s3.07 4.28 1.8 6.18-4.14 2.22-6.4.7-3.07-4.27-1.8-6.18z" style="mix-blend-mode:multiply" fill="url(#radial-gradient-88)" opacity=".5"/>
        <path d="M602.13 80.5a4.76 4.76 0 0 0-6 .19 5.14 5.14 0 0 0 8.09 5.4 4.75 4.75 0 0 0-2.09-5.59z" style="mix-blend-mode:multiply" fill="url(#radial-gradient-89)" opacity=".5"/>
        <path d="M608.93 71.7a3.22 3.22 0 1 1-2.46-3.33 3 3 0 0 1 2.46 3.33z" style="mix-blend-mode:multiply" fill="url(#radial-gradient-90)" opacity=".5"/>
        <path d="M605.23 73.56a3.06 3.06 0 0 0 3.56-1.45 3.31 3.31 0 0 0-6.09-1.46 3.08 3.08 0 0 0 2.53 2.91z" style="mix-blend-mode:multiply" fill="url(#radial-gradient-91)" opacity=".5"/>
        <path d="M608.94 86.11c-1.17-1.43-.73-3.72 1-5.11s4-1.35 5.2.08.73 3.72-1 5.11-4.04 1.35-5.2-.08z" style="mix-blend-mode:multiply" fill="url(#radial-gradient-92)" opacity=".5"/>
        <path d="M609.91 81a3.85 3.85 0 0 0-1.27 4.66 4.15 4.15 0 0 0 6.09-5 3.84 3.84 0 0 0-4.82.34z" style="mix-blend-mode:multiply" fill="url(#radial-gradient-93)" opacity=".5"/>
        <path d="M596.77 68.3c.69.5.39 2.08-.67 3.52s-2.47 2.21-3.16 1.71-.38-2.08.68-3.53 2.47-2.2 3.15-1.7z" style="mix-blend-mode:multiply" fill="url(#radial-gradient-94)" opacity=".5"/>
        <path d="M593.63 73.67a4.35 4.35 0 0 0 2.47-1.85 3.86 3.86 0 0 0 .95-3.14 4.35 4.35 0 0 0-2.47 1.85 3.86 3.86 0 0 0-.95 3.14z" style="mix-blend-mode:multiply" fill="url(#radial-gradient-95)" opacity=".5"/>
        <path d="M589.87 83.43c.93-.55 2.61.59 3.77 2.55s1.33 4 .4 4.53-2.62-.59-3.77-2.55-1.33-3.96-.4-4.53z" style="mix-blend-mode:multiply" fill="url(#radial-gradient-96)" opacity=".5"/>
        <path d="M594.55 89.79a5.52 5.52 0 0 0-.91-3.81c-.94-1.59-2.23-2.65-3.18-2.69a5.42 5.42 0 0 0 .91 3.81c.94 1.59 2.23 2.64 3.18 2.69z" style="mix-blend-mode:multiply" fill="url(#radial-gradient-97)" opacity=".5"/>
        <path d="M615 67.32c-.3.53-1.45.44-2.56-.2S610.7 65.53 611 65s1.46-.44 2.57.2 1.77 1.59 1.43 2.12z" style="mix-blend-mode:multiply" fill="url(#radial-gradient-98)" opacity=".5"/>
        <path d="M611 65.5a3.13 3.13 0 0 0 1.52 1.62 2.76 2.76 0 0 0 2.31.43 3.07 3.07 0 0 0-1.51-1.62 2.78 2.78 0 0 0-2.32-.43z" style="mix-blend-mode:multiply" fill="url(#radial-gradient-99)" opacity=".5"/>
        <path d="M607.59 94.81c-.15-.59.74-1.32 2-1.64s2.38-.08 2.53.51-.74 1.33-2 1.64-2.39.08-2.53-.51z" style="mix-blend-mode:multiply" fill="url(#radial-gradient-100)" opacity=".5"/>
        <path d="M611.79 93.29a3.17 3.17 0 0 0-2.22-.12 2.79 2.79 0 0 0-2 1.3 3.14 3.14 0 0 0 2.21.12 2.83 2.83 0 0 0 2.01-1.3z" style="mix-blend-mode:multiply" fill="url(#radial-gradient-101)" opacity=".5"/>
        <path d="M589.4 77.8c.61 0 1.16 1 1.22 2.26s-.38 2.35-1 2.38-1.15-1-1.22-2.27.39-2.34 1-2.37z" style="mix-blend-mode:multiply" fill="url(#radial-gradient-102)" opacity=".5"/>
        <path d="M590.08 82.21a3.09 3.09 0 0 0 .54-2.15 2.77 2.77 0 0 0-.89-2.18 3.12 3.12 0 0 0-.54 2.15 2.75 2.75 0 0 0 .89 2.18z" style="mix-blend-mode:multiply" fill="url(#radial-gradient-103)" opacity=".5"/>
        <path d="M599.44 94.15c.14-.59 1.27-.84 2.52-.55s2.15 1 2 1.61-1.27.84-2.52.55-2.13-1.01-2-1.61z" style="mix-blend-mode:multiply" fill="url(#radial-gradient-104)" opacity=".5"/>
        <path d="M603.88 94.72A3.12 3.12 0 0 0 602 93.6a2.78 2.78 0 0 0-2.34.26 3.11 3.11 0 0 0 1.88 1.14 2.79 2.79 0 0 0 2.34-.28z" style="mix-blend-mode:multiply" fill="url(#radial-gradient-105)" opacity=".5"/>
        <path d="M621.39 77.81c-.44.17-1.08-.44-1.43-1.36s-.28-1.81.16-2 1.08.45 1.43 1.37.28 1.82-.16 1.99z" style="mix-blend-mode:multiply" fill="url(#radial-gradient-106)" opacity=".5"/>
        <path d="M619.85 74.75a2.34 2.34 0 0 0 .11 1.7 2.2 2.2 0 0 0 1.17 1.38 2.4 2.4 0 0 0-.12-1.7 2.11 2.11 0 0 0-1.16-1.38z" style="mix-blend-mode:multiply" fill="url(#radial-gradient-107)" opacity=".5"/>
        <path d="M616.55 90c-.36-.3-.14-1.16.48-1.92s1.43-1.13 1.79-.83.15 1.16-.48 1.92-1.43 1.15-1.79.83z" style="mix-blend-mode:multiply" fill="url(#radial-gradient-108)" opacity=".5"/>
        <path d="M618.45 87.17a2.41 2.41 0 0 0-1.42.93 2.12 2.12 0 0 0-.62 1.7 2.39 2.39 0 0 0 1.42-.94 2.1 2.1 0 0 0 .62-1.69z" style="mix-blend-mode:multiply" fill="url(#radial-gradient-109)" opacity=".5"/>
        <path d="M591.81 81c.3-.1.71.34.92 1s.13 1.23-.17 1.33-.72-.34-.93-1-.13-1.22.18-1.33z" style="mix-blend-mode:multiply" fill="url(#radial-gradient-110)" opacity=".5"/>
        <path d="M592.75 83.15a1.64 1.64 0 0 0 0-1.16 1.43 1.43 0 0 0-.75-1 1.64 1.64 0 0 0 0 1.16 1.49 1.49 0 0 0 .75 1z" style="mix-blend-mode:multiply" fill="url(#radial-gradient-111)" opacity=".5"/>
        <path d="M602.08 71.74a1.24 1.24 0 1 1-1.57-.18 1.12 1.12 0 0 1 1.57.18z" class="cls-165"/>
        <path d="M600.35 73.35a1.24 1.24 0 0 0 1.25-.11 1.21 1.21 0 0 0 .59-1.23 1.27 1.27 0 0 0-1.25.11 1.22 1.22 0 0 0-.59 1.23z" class="cls-165"/>
        <path d="M611.11 68c-.12.3-.72.34-1.35.09s-1-.69-.91-1 .72-.33 1.34-.08 1.03.7.92.99z" style="mix-blend-mode:multiply" fill="url(#radial-gradient-114)" opacity=".5"/>
        <path d="M608.86 67.37a1.6 1.6 0 0 0 .9.72 1.47 1.47 0 0 0 1.23 0 1.6 1.6 0 0 0-.9-.72 1.44 1.44 0 0 0-1.23 0z" style="mix-blend-mode:multiply" fill="url(#radial-gradient-115)" opacity=".5"/>
        <path d="M616.47 81.16A.87.87 0 0 1 616 80a.78.78 0 1 1 .44 1.14z" style="mix-blend-mode:multiply" fill="url(#radial-gradient-116)" opacity=".5"/>
        <path d="M616.7 79.3a1 1 0 0 0-.7.7 1 1 0 0 0 .24 1 1 1 0 0 0 .68-.72 1 1 0 0 0-.22-.98z" style="mix-blend-mode:multiply" fill="url(#radial-gradient-117)" opacity=".5"/>
        <path d="M597 65.14c.38.48-.12 1.51-1.13 2.31s-2.13 1.06-2.51.59.13-1.52 1.13-2.32 2.15-1.06 2.51-.58z" style="mix-blend-mode:multiply" fill="url(#radial-gradient-118)" opacity=".5"/>
        <path d="M593.83 68.26a3 3 0 0 0 2.06-.81 2.8 2.8 0 0 0 1.26-2 3.1 3.1 0 0 0-2.07.81 2.81 2.81 0 0 0-1.25 2z" style="mix-blend-mode:multiply" fill="url(#radial-gradient-119)" opacity=".5"/>
        <path d="M613.26 90.19c.13.23-.1.62-.51.86s-.87.23-1 0 .09-.62.51-.86.86-.19 1 0z" style="mix-blend-mode:multiply" fill="url(#radial-gradient-120)" opacity=".5"/>
        <path d="M614.1 88.81c.08.15-.06.38-.31.53s-.53.14-.61 0 .06-.38.31-.52.51-.15.61-.01z" style="mix-blend-mode:multiply" fill="url(#radial-gradient-121)" opacity=".5"/>
        <path d="M594.92 86.51c-.27.14-.68-.14-.92-.62s-.22-1 0-1.11.69.14.93.62.26.97-.01 1.11z" style="mix-blend-mode:multiply" fill="url(#radial-gradient-122)" opacity=".5"/>
        <path d="M595.85 87.6c-.17.08-.42-.09-.56-.38s-.14-.59 0-.67.41.09.56.38.15.59 0 .67z" style="mix-blend-mode:multiply" fill="url(#radial-gradient-123)" opacity=".5"/>
        <path d="M591.23 80.63c-.15 0-.29-.18-.32-.45s.06-.48.21-.5.29.18.32.44-.06.49-.21.51z" style="mix-blend-mode:multiply" fill="url(#radial-gradient-124)" opacity=".5"/>
        <path d="M619.08 76.23c-.22 0-.43-.26-.47-.65s.09-.71.3-.73.43.26.48.64-.1.71-.31.74z" style="mix-blend-mode:multiply" fill="url(#radial-gradient-125)" opacity=".5"/>
        <path d="M618.83 77.56c-.14 0-.28-.18-.31-.43s.06-.46.2-.48.28.17.31.42-.03.47-.2.49z" style="mix-blend-mode:multiply" fill="url(#radial-gradient-126)" opacity=".5"/>
        <path d="M597.52 92.83c-.17.22-.61.15-1-.15s-.54-.72-.37-.93.61-.14 1 .16.54.71.37.92z" style="mix-blend-mode:multiply" fill="url(#radial-gradient-127)" opacity=".5"/>
        <path d="M599.11 93.1c-.11.13-.37.09-.6-.09s-.33-.44-.23-.56.37-.09.6.09.33.46.23.56z" style="mix-blend-mode:multiply" fill="url(#radial-gradient-128)" opacity=".5"/>
        <path d="M596.27 90.89c-.1.13-.37.09-.6-.1s-.33-.43-.23-.56.38-.09.6.09.33.44.23.57z" style="mix-blend-mode:multiply" fill="url(#radial-gradient-129)" opacity=".5"/>
        <path d="M598.25 65.88c-.09-.26.2-.59.65-.76s.89-.08 1 .17-.19.6-.65.76-.91.09-1-.17zm-.47 1.31c.28-.1.46-.3.4-.46s-.32-.2-.6-.1-.45.3-.39.46.32.2.59.1zm3.38-1.25c.27-.1.45-.3.4-.46s-.33-.2-.6-.1-.46.3-.4.46.32.16.6.1zm11.84 3c.08-.26.51-.36 1-.23s.77.46.69.72-.51.36-1 .23-.77-.46-.69-.72zm2.31 1.77c.28.09.55 0 .59-.13s-.14-.36-.42-.44-.54 0-.59.13.11.36.42.44z" style="mix-blend-mode:screen" fill="url(#radial-gradient-130)" opacity=".5"/>
      </g>
    </g>
  </g>
</svg>
